<svg width="1600" height="1200" viewBox="0 0 1600 1200" fill="none" xmlns="http://www.w3.org/2000/svg">
<g clip-path="url(#clip0)">
<path d="M994.4 435.6C994.7 436.4 995 470.4 995 511.1V585H1167.5H1340V582.8C1340 580.1 1337.2 571.1 1331.4 555.4C1328.9 548.7 1326 539.9 1324.9 535.9C1322.5 527.2 1318.2 521 1309.5 513.9C1298.1 504.6 1294.2 503.5 1264.5 501.5C1209.5 497.8 1184.9 494.4 1099.8 479C1081.8 475.7 1064.8 472.2 1062.2 471.2C1055.7 468.7 1048.2 463.6 1038.5 455C1031.1 448.5 1030.3 447.5 1028.4 441.3L1026.2 434.5L1010 434.2C995.4 434 993.8 434.1 994.4 435.6ZM1026.5 442.6C1028.3 448 1029.5 449.5 1036.5 455.7C1047.1 465 1055.1 470.5 1061.5 472.9C1066.5 474.8 1122.7 485.3 1162.5 491.9C1198.3 497.8 1226.3 500.9 1262.5 503C1284.1 504.3 1292.7 505.8 1299.6 509.3C1305 512.1 1314.7 520.4 1318.1 525.2C1320.6 528.7 1335.6 570.9 1337.5 579.7L1338.2 583H1167.1H996V510.2C996 470.1 996.3 437 996.7 436.6C997.1 436.3 1003.5 436.1 1010.9 436.2L1024.5 436.5L1026.5 442.6Z" fill="black"/>
<path d="M744 424V434H697.4C655.3 434 650.8 434.2 651.4 435.6C651.7 436.5 652 470.4 652 511.1V585H824.5H997V509.5V434H935H873V424V414H808.5H744V424ZM758 426C758 434.3 757.9 435 756 435C754.1 435 754 434.3 754 426C754 417.7 754.1 417 756 417C757.9 417 758 417.7 758 426ZM765 426V435H762.1H759.3L759.1 426L758.9 417H761.9H765V426ZM773 426V435H770H767V426V417H770H773V426ZM782 426.1V435.1L778.8 434.8L775.5 434.5L775.2 425.7L774.9 417H778.5H782V426.1ZM790 419.2C790 420.5 790.3 424.5 790.7 428.2L791.3 435H787.6H784V426V417H787C789.4 417 790 417.4 790 419.2ZM799 426.1V435.1L795.8 434.8L792.5 434.5L792.2 425.7L791.9 417H795.5H799V426.1ZM808 424.4C808 428.5 808.3 432.5 808.6 433.4C809.1 434.7 808.4 435 805.1 435H801V426V417H804.5H808V424.4ZM816 422.9C816 426.1 816.3 430.2 816.6 431.9C817.2 434.9 817.2 435 813.6 435H810V426V417H813C816 417 816 417 816 422.9ZM825 426V435H821.5H818V426V417H821.5H825V426ZM833 426V435H830H827V426V417H830H833V426ZM840 425C840 429.4 840.1 433.3 840.3 433.7C840.4 434.2 839.3 434.6 837.8 434.8L835 435.1V426.1C835 417.1 835 417 837.5 417C840 417 840 417.1 840 425ZM848 426V435H845H842V426V417H845H848V426ZM856.2 424C856.3 427.8 856.4 431.8 856.4 432.7C856.5 434 855.6 434.6 853.3 434.8L850 435.1V426.1V417H853H856L856.2 424ZM867 420.7C867 422.8 866.7 426.9 866.3 429.8L865.7 435.1L862.1 434.8L858.5 434.5L858.2 425.7L857.9 417H862.5H867V420.7ZM675 459.8C675 472.9 675.3 506 675.7 533.3L676.3 583H664.7H653V510.2C653 470.1 653.3 437 653.7 436.7C654 436.3 659 436 664.7 436H675V459.8ZM744 447.5V459H808.5H873V447.5V436H891H909V509.5V583H802.7H696.3L695.7 559.7C695.3 547 695 513.9 695 486.2V436H719.5H744V447.5ZM995 509.5V583H962H929.1L928.8 510.2C928.6 470.2 928.6 437.2 928.8 436.7C929 436.3 943.9 436 962.1 436H995V509.5Z" fill="black"/>
<path d="M569 430.1C569 431.8 569.4 432.9 570 432.5C570.6 432.2 571 431.2 571 430.4C571 429.2 572.8 429 581.3 429.2L591.5 429.5L591.8 505.7C591.9 555.4 592.4 582 593 582C593.7 582 594 556.7 594 509V436H623.5H653V509.5V583L622.8 583.2L592.5 583.5L592.2 588.2L591.9 593H581.4H571V589.9C571 584.6 569.5 583 564.5 583H560V509.5V436H564.5H569V509.1C569 557.5 569.3 581.9 570 581.5C571.6 580.5 571.4 436.8 569.8 435.2C569.1 434.5 566.7 434 564.3 434C560.4 434 560 433.8 560 431.5V429H547H534V431.5C534 433.9 533.7 434 528 434C522.4 434 522 433.8 522 431.7C522 429.5 521.8 429.5 509 429.5C496.2 429.5 496 429.5 496 431.7C496 433.8 495.5 434 491.4 434C487 434 486.8 433.9 487.4 431.5L488 429H475H462V431.5C462 433.7 461.6 434 458 434C454.7 434 454 433.7 454 432C454 430.1 453.3 430 440.5 430C427.7 430 427 430.1 427 432C427 433.3 426.3 434 425 434C423.8 434 423 433.3 423 432.2C423 430.7 421.7 430.5 409 430.5C396.3 430.5 395 430.7 395 432.2C395 433.7 394.1 434 390.5 434C386.7 434 386 433.7 386 432C386 430.1 385.3 430 374 430C362.7 430 362 430.1 362 432C362 433.7 361.3 434 358 434C354.7 434 354 433.7 354 432C354 430.1 353.3 430 341 430C328.7 430 328 430.1 328 432C328 433.9 327.3 434 318.4 434C310 434 308.9 434.2 309.4 435.6C309.7 436.5 310 470.4 310 511.1V585H319C327.3 585 328 585.1 328 587C328 588.9 328.7 589 341 589C353.3 589 354 588.9 354 587C354 585.3 354.7 585 358 585C361.6 585 362 585.2 362 587.5V590H374H386V587.5C386 585.2 386.4 585 390.5 585C394.8 585 395 585.1 395 588V591H409H423V588C423 585.7 423.5 585 424.9 585C426.4 585 427 585.8 427.2 588.5L427.5 592.1L440.8 592.3L454 592.5V588.7C454 585 454 585 458 585H462V589.5V594H474.9H487.8L487.2 589.5L486.7 585H491.4H496V589.5V594H509H522V589.5V585H528H534V589.5V594H547H560V589.5V585H564.5H569V590V595H581.5H594V590V585H624.5H655V509.5V434H624.5H594V430.5V427H581.5H569V430.1ZM383.7 509.8L384 588.1L373.7 587.8L363.5 587.5L363.2 512.6C363.1 463.9 363.3 437.3 364 436.6C364.6 436 364.6 435.2 363.9 434.4C361.7 431.7 364.1 430.9 373.8 431.2L383.5 431.5L383.7 509.8ZM452.5 432C452.9 432.6 452.7 433.7 452 434.5C451.3 435.4 451.2 436 452 436.5C453.6 437.5 453.4 582.7 451.8 583.3C450.8 583.7 450.8 584.1 451.8 584.8C452.6 585.3 453 586.8 452.8 588.1C452.5 590.4 452.2 590.5 441.6 590.8C435.6 590.9 430.3 590.7 429.9 590.3C429.5 589.9 429 587.2 428.9 584.5C428.4 572 429.1 432.2 429.7 431.6C430.8 430.5 451.8 430.9 452.5 432ZM486 432.4C486 433.2 485.5 434.2 485 434.5C484.2 435 484.2 435.6 485 436.5C485.7 437.3 486 461.5 485.8 515.1L485.5 592.5L475.6 592.8C470.1 592.9 465.3 592.7 464.9 592.3C463.8 591.1 463.7 587.9 463.9 505.7L464 431H475C483.9 431 486 431.3 486 432.4ZM520.5 432C520.9 432.6 520.7 433.7 520 434.5C519.2 435.4 519.2 436 520 436.5C520.7 436.9 521 461.1 521 514.6V592H509.5H498V515.1C498 472.7 497.7 437.4 497.4 436.6C497.1 435.8 497.3 434.2 498 433.1C499 431.2 500 431 509.5 431C515.6 431 520.1 431.4 520.5 432ZM558 511.5V592H547H536V588.7C536 586.5 536 442.8 536 431.7C536 431.3 540.9 431 547 431H558V511.5ZM352.1 433.2C352.2 433.9 352.2 434.8 352.1 435.2C352.1 435.6 352 469.9 352 511.5V587.1L340.7 586.8L329.5 586.5L329.3 510.1C329.1 468.1 329.3 433.4 329.6 432.9C330.5 431.4 352 431.8 352.1 433.2ZM420.7 510.7L420.9 589H408.5H396V511.1C396.1 468.3 396.4 433 396.7 432.6C397.1 432.2 402.6 432.1 408.9 432.2L420.5 432.5L420.7 510.7ZM328 509.5V583H319.5H311V510.2C311 470.1 311.3 437 311.7 436.7C312 436.3 315.9 436 320.2 436H328V509.5ZM362 509.5V583H358H354V509.5V436H358H362V509.5ZM395 509.5V583H390.5H386V509.5V436H390.5H395V509.5ZM427 509.5C427 582.3 427 583 425 583C423 583 423 582.3 423 509.5C423 436.7 423 436 425 436C427 436 427 436.7 427 509.5ZM462 509.5V583H458H454V509.5V436H458H462V509.5ZM496 509.5V583H491.5H487V510.2C487 470.1 487.3 437 487.7 436.7C488 436.3 490.1 436 492.2 436H496V509.5ZM534 509.5V583H528H522V509.5V436H528H534V509.5Z" fill="black"/>
</g>
<defs>
<clipPath id="clip0">
<rect width="1600" height="1200" fill="white"/>
</clipPath>
</defs>
</svg>
