<svg width="325" height="248" viewBox="0 0 325 248" fill="none" xmlns="http://www.w3.org/2000/svg">
<rect x="1" width="324" height="248" fill="#C4C4C4"/>
<rect x="2" y="67" width="277" height="119" fill="#706F6F" stroke="black" stroke-width="2"/>
<path d="M114.221 67.259C135.537 63.9403 157.193 70.6358 172.917 85.4064L249.764 157.597C259.994 167.206 252.601 184.347 238.591 183.502L81.4563 174.023C70.3176 173.351 59.1817 175.384 48.9991 179.949C40.1003 183.938 30.4586 186 20.7066 186H1V67H24.9724C30.966 67 36.9348 67.7698 42.7323 69.2904L50.3877 71.2984C59.6959 73.7399 69.4075 74.236 78.916 72.7556L114.221 67.259Z" fill="#C4C4C4"/>
<path d="M1 66H24.8172C31.8981 66 38.938 67.0744 45.6965 69.1864L50.0024 70.532C61.474 74.1169 73.6755 74.6877 85.4317 72.1895L111.094 66.7364C133.856 61.8994 157.534 68.6902 174.272 84.856L249.799 157.799C259.821 167.477 252.384 184.398 238.478 183.561L81.1275 174.091C70.5468 173.454 59.9762 175.495 50.3932 180.025V180.025C41.9049 184.038 32.6277 186.104 23.2388 186.073L1 186" stroke="black" stroke-width="2"/>
<path d="M181.287 179.251L181.281 179.251L120.532 175.501L120.531 175.501L81.6421 173.04L110.389 66.4773L125.426 65.566C126.137 65.5229 126.85 65.5323 127.559 65.594L136.695 66.3884C137.507 66.459 138.311 66.5978 139.099 66.8035L147.974 69.1186C148.874 69.3534 149.749 69.6743 150.588 70.0769L160.651 74.907C161.38 75.2568 162.078 75.6669 162.738 76.1331L170.183 81.3882L178.651 89.358L178.657 89.3641L249.691 158.631C259.378 168.077 251.995 184.469 238.501 183.473L181.287 179.251Z" fill="#FF0000" stroke="black"/>
</svg>
