<svg width="282" height="248" viewBox="0 0 282 248" fill="none" xmlns="http://www.w3.org/2000/svg">
<rect width="281" height="248" fill="#C4C4C4"/>
<rect x="1" y="67" width="279" height="119" fill="#706F6F" stroke="black" stroke-width="2"/>
<path d="M68.2138 147.11C49.0981 141.362 49.2728 114.233 68.4608 108.732L146 86.5L199.739 73.7485C203.241 72.9174 206.802 72.3577 210.391 72.0744L281 66.5V187L205 182.5L146 170.5L68.2138 147.11Z" fill="#C4C4C4"/>
<path d="M142.169 169.654L132.728 166.704L180.333 78.4359L201.579 73.495L217.661 72.076L167.708 173.96L154.279 172.281C150.172 171.768 146.119 170.888 142.169 169.654Z" fill="#FF0000" stroke="black"/>
<path d="M281.121 67.4851L241.811 70.2425L207.919 72.6198C204.312 72.8729 200.729 73.4051 197.204 74.2118L143.5 86.5L106.5 97L67.3888 109.034C59.7278 111.391 54.5 118.47 54.5 126.485V126.485" stroke="black" stroke-width="2"/>
<path d="M280.794 186L241.5 184L205.5 181.5L143.5 170L105 159L69.8668 147.595C60.5093 144.557 54.173 135.838 54.173 126V126" stroke="black" stroke-width="2"/>
</svg>
