<svg width="324" height="249" viewBox="0 0 324 249" fill="none" xmlns="http://www.w3.org/2000/svg">
<rect width="324" height="248" fill="#C4C4C4"/>
<rect x="1" y="68" width="277" height="119" fill="#706F6F" stroke="black" stroke-width="2"/>
<path d="M1 117H82V137H1V117Z" fill="#FF0000" stroke="black" stroke-width="2"/>
<path d="M82.5 110C82.5 104.753 86.7533 100.5 92 100.5H106.5V154.5H92C86.7533 154.5 82.5 150.247 82.5 145V110Z" fill="#413838" stroke="black"/>
<path d="M52.5 158.5V158.346L52.4536 158.199L51.5705 155.402C48.7777 146.558 38.4082 142.705 30.5174 147.579C28.7167 148.691 27.1867 150.191 26.0388 151.969L3.97235 186.15L3.02662 71.7164L19.4369 95.2129C21.9908 98.8696 25.5889 101.67 29.7605 103.249L35.2895 105.341C39.8417 107.063 44.9779 106.035 48.5164 102.693C51.0591 100.292 52.5 96.949 52.5 93.4516V44.6217C52.5 35.1414 56.0379 26.0024 62.4212 18.9932L68.4415 12.3827C73.9459 6.33868 82.274 3.71942 90.247 5.52464L98.255 7.33776C101.033 7.96667 103.28 10.0014 104.18 12.7032C105.759 17.4381 102.744 22.4654 97.8233 23.3029L92.2315 24.2547C87.2796 25.0976 83.0779 28.3625 81.0378 32.9527L78.3554 38.9882C76.8024 42.4823 76 46.2635 76 50.0872V123.5V194.241C76 198.51 76.9426 202.726 78.7604 206.589L80.9618 211.267C83.0767 215.762 87.0069 219.141 91.7671 220.559L98.1442 222.459C103.09 223.932 105.812 229.229 104.129 234.108C103.233 236.708 101.205 238.761 98.6156 239.689L92.7694 241.785C83.6232 245.063 73.409 241.959 67.6338 234.146L60.1349 224C55.1761 217.291 52.5 209.168 52.5 200.826V158.5Z" fill="#C4C4C4" stroke="black" stroke-width="2"/>
<circle cx="98" cy="117" r="3.75" fill="#008000" stroke="black" stroke-width="0.5"/>
<path d="M93.75 128C93.75 130.071 92.0711 131.75 90 131.75C87.9289 131.75 86.25 130.071 86.25 128C86.25 125.929 87.9289 124.25 90 124.25C92.0711 124.25 93.75 125.929 93.75 128Z" fill="#008000" stroke="black" stroke-width="0.5"/>
<circle cx="98" cy="139" r="3.75" fill="#008000" stroke="black" stroke-width="0.5"/>
<circle cx="93.5" cy="14.5" r="5" fill="#0000FF" stroke="black"/>
<circle cx="72" cy="27" r="6.5" fill="#0000FF" stroke="black"/>
<circle cx="72" cy="219" r="6.5" fill="#0000FF" stroke="black"/>
<circle cx="64.5" cy="189.5" r="8" fill="#0000FF" stroke="black"/>
<circle cx="64.5" cy="59.5" r="8" fill="#0000FF" stroke="black"/>
<circle cx="55.5" cy="125.5" r="12" fill="#0000FF" stroke="black"/>
<circle cx="93.5" cy="231.5" r="5" fill="#0000FF" stroke="black"/>
<path d="M70.0791 163.794V163.82L70.0819 163.846L71.7607 179.758C71.826 180.377 71.1888 180.83 70.625 180.565L70.5293 180.52C66.4383 178.595 61.6494 178.88 57.8153 181.276C57.2806 181.61 56.5909 181.205 56.6225 180.575L57.2436 168.22C57.3923 165.262 57.2764 162.297 56.8972 159.359L56.3599 155.197C56.0599 152.872 55.4021 150.607 54.41 148.484L53.113 145.707C52.4946 144.383 53.4609 142.865 54.9221 142.865C58.9539 142.865 62.757 140.992 65.2147 137.796L67.4204 134.928C68.2837 133.805 70.0791 134.416 70.0791 135.832L70.0791 163.794ZM70.5 68.3192V85.7635V85.7668L70.1375 113.106C70.1201 114.422 68.5758 115.119 67.578 114.262L66.1212 113.011C63.2533 110.549 59.5984 109.195 55.8185 109.195C54.0341 109.195 52.7957 107.417 53.4142 105.743L55.0602 101.289C55.9045 99.0044 56.4881 96.6317 56.7999 94.216L57.3795 89.726C57.7175 87.1073 57.8496 84.4661 57.7746 81.8267L57.3817 68.0038C57.3685 67.5408 57.8768 67.2501 58.2692 67.4962L58.4367 67.6012C61.8554 69.7452 66.1752 69.8384 69.6832 67.844C70.0476 67.6368 70.5 67.9 70.5 68.3192Z" fill="#FFFF00" stroke="black"/>
<path d="M24.6797 105.135C25.2804 105.206 25.8165 105.546 26.1381 106.058L27.2138 107.772C28.1285 109.23 29.7283 110.114 31.4489 110.114H33.3806C33.471 110.114 33.561 110.102 33.6482 110.078L39.083 108.568C39.2656 108.518 39.4526 108.484 39.6415 108.469L45.2309 108.012C45.3854 108 45.5348 107.951 45.6674 107.871L48.328 106.26C49.0256 105.838 49.9083 106.383 49.8427 107.196L49.6786 109.228C49.5627 110.663 48.8331 111.979 47.6769 112.839L45.7314 114.284C45.5589 114.412 45.3498 114.482 45.135 114.482H40.3652L17.4072 113.789C16.3616 113.757 15.5169 112.925 15.4696 111.88L15.333 108.866L15.2191 106.354C15.1632 105.121 16.2268 104.132 17.4527 104.278L24.6797 105.135Z" fill="#FFFF00"/>
<path d="M25.0033 145.824C25.6107 145.752 26.1521 145.41 26.4751 144.896L27.5398 143.199C28.4592 141.734 30.077 140.844 31.8183 140.844H33.7128C33.8048 140.844 33.8963 140.856 33.9848 140.881L39.4132 142.388C39.5987 142.44 39.7887 142.474 39.9807 142.489L45.5619 142.945C45.7187 142.958 45.8703 143.007 46.0045 143.088L48.6471 144.688C49.3496 145.114 50.2425 144.57 50.1769 143.757L50.012 141.715C49.8968 140.288 49.1687 138.979 48.0128 138.12L46.0691 136.676C45.8946 136.546 45.6825 136.476 45.4645 136.476H40.6997L17.7561 137.169C16.7024 137.2 15.8515 138.031 15.8043 139.075L15.5535 144.606C15.4977 145.838 16.5708 146.824 17.8063 146.678L25.0033 145.824Z" fill="#FFFF00"/>
<path d="M24.6797 105.135C25.2804 105.206 25.8165 105.546 26.1381 106.058L27.2138 107.772C28.1285 109.23 29.7283 110.114 31.4489 110.114H33.3806C33.471 110.114 33.561 110.102 33.6482 110.078L39.083 108.568C39.2656 108.518 39.4526 108.484 39.6415 108.469L45.2309 108.012C45.3854 108 45.5348 107.951 45.6674 107.871L48.328 106.26C49.0256 105.838 49.9083 106.383 49.8427 107.196L49.6786 109.228C49.5627 110.663 48.8331 111.979 47.6769 112.839L45.7314 114.284C45.5589 114.412 45.3498 114.482 45.135 114.482H40.3652L17.4072 113.789C16.3616 113.757 15.5169 112.925 15.4696 111.88L15.333 108.866L15.2191 106.354C15.1632 105.121 16.2268 104.132 17.4527 104.278L24.6797 105.135Z" stroke="black"/>
<path d="M25.0033 145.824C25.6107 145.752 26.1521 145.41 26.4751 144.896L27.5398 143.199C28.4592 141.734 30.077 140.844 31.8183 140.844H33.7128C33.8048 140.844 33.8963 140.856 33.9848 140.881L39.4132 142.388C39.5987 142.44 39.7887 142.474 39.9807 142.489L45.5619 142.945C45.7187 142.958 45.8703 143.007 46.0045 143.088L48.6471 144.688C49.3496 145.114 50.2425 144.57 50.1769 143.757L50.012 141.715C49.8968 140.288 49.1687 138.979 48.0128 138.12L46.0691 136.676C45.8946 136.546 45.6825 136.476 45.4645 136.476H40.6997L17.7561 137.169C16.7024 137.2 15.8515 138.031 15.8043 139.075L15.5535 144.606C15.4977 145.838 16.5708 146.824 17.8063 146.678L25.0033 145.824Z" stroke="black"/>
<path d="M30.5 116H42.0858C42.9767 116 43.4229 117.077 42.7929 117.707L41.7357 118.764C41.5827 118.917 41.4835 119.116 41.4529 119.33L41.1227 121.641C41.0523 122.134 40.6304 122.5 40.1327 122.5H19.4052C19.0031 122.5 18.6401 122.259 18.4838 121.889L16.5857 117.389C16.3077 116.729 16.7917 116 17.5071 116H30.5Z" fill="#FFFF00"/>
<path d="M30.9143 134.5H42.5001C43.391 134.5 43.8371 133.423 43.2072 132.793L42.15 131.736C41.997 131.583 41.8977 131.384 41.8671 131.17L41.5369 128.859C41.4666 128.366 41.0446 128 40.547 128H19.8195C19.4174 128 19.0544 128.241 18.8981 128.611L17 133.111C16.7219 133.771 17.2059 134.5 17.9214 134.5H30.9143Z" fill="#FFFF00"/>
<path d="M30.5 116H42.0858C42.9767 116 43.4229 117.077 42.7929 117.707L41.7357 118.764C41.5827 118.917 41.4835 119.116 41.4529 119.33L41.1227 121.641C41.0523 122.134 40.6304 122.5 40.1327 122.5H19.4052C19.0031 122.5 18.6401 122.259 18.4838 121.889L16.5857 117.389C16.3077 116.729 16.7917 116 17.5071 116H30.5Z" stroke="black"/>
<path d="M30.9143 134.5H42.5001C43.391 134.5 43.8371 133.423 43.2072 132.793L42.15 131.736C41.997 131.583 41.8977 131.384 41.8671 131.17L41.5369 128.859C41.4666 128.366 41.0446 128 40.547 128H19.8195C19.4174 128 19.0544 128.241 18.8981 128.611L17 133.111C16.7219 133.771 17.2059 134.5 17.9214 134.5H30.9143Z" stroke="black"/>
<path d="M20 124.488C20 124.217 20.2165 123.995 20.4878 123.988L39.9878 123.512C40.2686 123.506 40.5 123.731 40.5 124.012V126.488C40.5 126.769 40.2686 126.994 39.9878 126.988L20.4878 126.512C20.2165 126.505 20 126.283 20 126.012V124.488Z" fill="#FFFF00" stroke="black" stroke-width="0.5"/>
<circle cx="16.5" cy="125.5" r="1.5" fill="#0000FF" stroke="black" stroke-width="0.5"/>
<path d="M12 80V174C12 180.291 7.15953 185.451 1 185.959V68.0411C7.15953 68.5492 12 73.7093 12 80Z" fill="#413838" stroke="black" stroke-width="2"/>
</svg>
