<svg width="281" height="248" viewBox="0 0 281 248" fill="none" xmlns="http://www.w3.org/2000/svg">
<rect width="281" height="248" fill="#C4C4C4"/>
<path d="M1 69H280V188H1V69Z" fill="#706F6F" stroke="black" stroke-width="2"/>
<path d="M279.91 73.2739L278.586 180.049C278.557 182.394 276.017 183.842 273.985 182.672L262.522 176.074C251.531 169.749 237.94 169.846 227.013 176.273C216.952 182.192 204.466 182.391 194.249 176.754L191.306 175.13C181.027 169.459 168.378 170.342 158.986 177.386C148.295 185.404 133.415 184.695 123.535 175.697L119.374 171.908C115.182 168.09 110.16 165.296 104.705 163.748L103.988 163.545C87.7236 158.929 76.5 144.078 76.5 127.171V113.431C76.5 98.1414 88.1804 85.385 103.411 84.0412C107.621 83.6697 111.713 82.4549 115.444 80.4692L123.336 76.2686C134.284 70.4416 147.218 69.6391 158.802 74.0683C168.92 77.9369 180.095 78.0161 190.267 74.2912L192.849 73.3456C203.93 69.2879 216.085 69.2606 227.184 73.2685L227.596 73.4173C239.482 77.7097 252.506 77.6504 264.352 73.2501L274.517 69.4746C277.15 68.4967 279.945 70.4655 279.91 73.2739Z" fill="#C4C4C4" stroke="black" stroke-width="2"/>
<g filter="url(#filter0_i)">
<path d="M27.9138 117.657H76V125.19H27.9138V117.657Z" fill="#FF0000" stroke="black" stroke-width="2"/>
<g filter="url(#filter1_d)">
<path d="M30.5345 95.4247V95.4247C39.8662 95.4247 47.431 102.99 47.431 112.321V130.959C47.431 140.29 39.8662 147.855 30.5345 147.855V147.855L18.5481 133.51C11.984 125.655 12.4115 114.11 19.5388 106.762L30.5345 95.4247Z" fill="#008000"/>
<path d="M46.431 112.321V130.959C46.431 139.583 39.5623 146.604 30.9965 146.848L19.3155 132.869C13.0795 125.406 13.4857 114.439 20.2566 107.458L30.9525 96.4301C39.5387 96.6517 46.431 103.682 46.431 112.321Z" stroke="black" stroke-width="2"/>
</g>
</g>
<path d="M28 99.4601V99.4601C35.8731 98.5374 42.9616 101.663 45.3306 107.102L45.5414 107.586" stroke="black"/>
<path d="M27 100.734V100.734C34.7019 101.579 41.3595 104.631 45.6542 109.285L46.0452 109.709" stroke="black"/>
<path d="M25 102.703V102.703C32.6642 103.822 39.3966 106.765 44.2611 111.123L46.0604 112.735" stroke="black"/>
<path d="M28.4267 144.141V144.141C36.1434 144.683 42.973 141.665 45.7372 136.492L46 136" stroke="black"/>
<path d="M27 142.298V142.298C34.9729 141.412 41.8657 138.252 46.3257 133.439L46.7322 133" stroke="black"/>
<path d="M25 140.032V140.032C32.6642 138.913 39.3966 135.97 44.2611 131.612L46.0604 130" stroke="black"/>
<path d="M17.7158 110.829L18.0893 110.8C28.4487 109.996 38.4136 112.119 46.6828 116.891V116.891M18.0542 131.218L20.2676 131.333C29.0827 131.793 38.1878 129.938 46.5812 125.973V125.973" stroke="black"/>
<path d="M15.5 119.5V119.5C23.8579 118.335 32.3051 118.528 40.5095 120.073L46.5258 121.207L41.06 122.043C32.5086 123.352 23.8407 123.068 15.5 121.207V121.207" stroke="black"/>
<g filter="url(#filter2_i)">
<path d="M163 75L166.86 75.5467C173.757 76.5236 180.762 76.4653 187.642 75.374L190 75L185.342 117.346C184.782 122.433 184.782 127.567 185.342 132.654L190 175V175C181.843 171.442 172.609 171.257 164.317 174.487L163 175L167.999 133.34C168.664 127.8 168.664 122.2 167.999 116.66L163 75Z" fill="#FFFF00"/>
<path d="M232 75L235.86 75.5467C242.757 76.5236 249.762 76.4653 256.642 75.374L259 75L254.342 117.346C253.782 122.433 253.782 127.567 254.342 132.654L259 175C250.843 171.442 241.609 171.257 233.317 174.487L232 175L236.999 133.34C237.664 127.8 237.664 122.2 236.999 116.66L232 75Z" fill="#FFFF00"/>
</g>
<path d="M163 75L166.86 75.5467C173.757 76.5236 180.762 76.4653 187.642 75.374L190 75L185.342 117.346C184.782 122.433 184.782 127.567 185.342 132.654L190 175V175C181.843 171.442 172.609 171.257 164.317 174.487L163 175L167.999 133.34C168.664 127.8 168.664 122.2 167.999 116.66L163 75Z" stroke="black"/>
<path d="M232 75L235.86 75.5467C242.757 76.5236 249.762 76.4653 256.642 75.374L259 75L254.342 117.346C253.782 122.433 253.782 127.567 254.342 132.654L259 175C250.843 171.442 241.609 171.257 233.317 174.487L232 175L236.999 133.34C237.664 127.8 237.664 122.2 236.999 116.66L232 75Z" stroke="black"/>
<path d="M272.242 68.5387C275.511 67.3106 279 69.7271 279 73.2193V180.296C279 183.515 275.539 185.547 272.728 183.979L260.162 176.967C249.549 171.045 236.442 171.309 225.996 177.523V177.523C215.726 183.633 202.838 183.893 192.402 178.07L189.504 176.453C179.646 170.953 167.467 171.806 158.473 178.629V178.629C147.507 186.946 132.157 186.214 122.034 176.889L117.86 173.045C113.829 169.333 108.987 166.612 103.719 165.1L102.949 164.879C86.4015 160.13 75 144.996 75 127.78V113.254C75 97.5859 86.9613 84.5097 102.567 83.1171V83.1171C106.648 82.753 110.612 81.564 114.219 79.6222L122.04 75.4126C133.137 69.4388 146.292 68.6166 158.047 73.1622V73.1622C167.861 76.957 178.723 77.0346 188.59 73.3804L191.151 72.4319C202.362 68.2799 214.685 68.252 225.915 72.3532L226.323 72.5024C237.894 76.7281 250.596 76.6698 262.127 72.3381L272.242 68.5387Z" stroke="black" stroke-width="2"/>
<path d="M269 79V173C269 179.291 273.84 184.451 280 184.959V67.0411C273.84 67.5492 269 72.7093 269 79Z" fill="#413838" stroke="black" stroke-width="2"/>
<defs>
<filter id="filter0_i" x="9.89542" y="95.4247" width="67.1046" height="56.4303" filterUnits="userSpaceOnUse" color-interpolation-filters="sRGB">
<feFlood flood-opacity="0" result="BackgroundImageFix"/>
<feBlend mode="normal" in="SourceGraphic" in2="BackgroundImageFix" result="shape"/>
<feColorMatrix in="SourceAlpha" type="matrix" values="0 0 0 0 0 0 0 0 0 0 0 0 0 0 0 0 0 0 127 0" result="hardAlpha"/>
<feOffset dx="-6" dy="4"/>
<feGaussianBlur stdDeviation="2"/>
<feComposite in2="hardAlpha" operator="arithmetic" k2="-1" k3="1"/>
<feColorMatrix type="matrix" values="0 0 0 0 0 0 0 0 0 0 0 0 0 0 0 0 0 0 0.25 0"/>
<feBlend mode="normal" in2="shape" result="effect1_innerShadow"/>
</filter>
<filter id="filter1_d" x="12.8954" y="95.4247" width="41.5356" height="60.4303" filterUnits="userSpaceOnUse" color-interpolation-filters="sRGB">
<feFlood flood-opacity="0" result="BackgroundImageFix"/>
<feColorMatrix in="SourceAlpha" type="matrix" values="0 0 0 0 0 0 0 0 0 0 0 0 0 0 0 0 0 0 127 0" result="hardAlpha"/>
<feOffset dx="3" dy="4"/>
<feGaussianBlur stdDeviation="2"/>
<feComposite in2="hardAlpha" operator="out"/>
<feColorMatrix type="matrix" values="0 0 0 0 0 0 0 0 0 0 0 0 0 0 0 0 0 0 0.25 0"/>
<feBlend mode="normal" in2="BackgroundImageFix" result="effect1_dropShadow"/>
<feBlend mode="normal" in="SourceGraphic" in2="effect1_dropShadow" result="shape"/>
</filter>
<filter id="filter2_i" x="162.404" y="70.4035" width="102.187" height="105.4" filterUnits="userSpaceOnUse" color-interpolation-filters="sRGB">
<feFlood flood-opacity="0" result="BackgroundImageFix"/>
<feBlend mode="normal" in="SourceGraphic" in2="BackgroundImageFix" result="shape"/>
<feColorMatrix in="SourceAlpha" type="matrix" values="0 0 0 0 0 0 0 0 0 0 0 0 0 0 0 0 0 0 127 0" result="hardAlpha"/>
<feOffset dx="5" dy="-4"/>
<feGaussianBlur stdDeviation="9"/>
<feComposite in2="hardAlpha" operator="arithmetic" k2="-1" k3="1"/>
<feColorMatrix type="matrix" values="0 0 0 0 0 0 0 0 0 0 0 0 0 0 0 0 0 0 0.5 0"/>
<feBlend mode="normal" in2="shape" result="effect1_innerShadow"/>
</filter>
</defs>
</svg>
