<svg width="281" height="248" viewBox="0 0 281 248" fill="none" xmlns="http://www.w3.org/2000/svg">
<rect x="7.62939e-05" width="281" height="248" fill="#C4C4C4"/>
<rect x="1.00008" y="67" width="279" height="119" fill="#706F6F" stroke="black" stroke-width="2"/>
<path d="M280 73.1452V179.902C280 182.228 277.452 183.656 275.468 182.441L263.96 175.397C252.86 168.603 238.89 168.603 227.79 175.397C217.332 181.799 204.168 181.799 193.71 175.397C182.61 168.603 168.64 168.603 157.54 175.397C147.082 181.799 133.918 181.799 123.46 175.397C112.36 168.603 98.3897 168.603 87.2904 175.397C76.832 181.799 63.668 181.799 53.2096 175.397C42.1103 168.603 28.1397 168.603 17.0404 175.397L5.53192 182.441C3.54792 183.656 1 182.228 1 179.902V78.1549C1 73.5393 6.00739 70.6639 9.99375 72.9905L17.0584 77.1137C28.2217 83.6289 42.0283 83.6289 53.1916 77.1137C63.7319 70.962 76.7681 70.962 87.3084 77.1137C98.4717 83.6289 112.278 83.6289 123.442 77.1137C133.982 70.962 147.018 70.962 157.558 77.1137C168.722 83.6289 182.528 83.6289 193.692 77.1137C204.232 70.962 217.268 70.962 227.808 77.1137C238.972 83.6289 252.778 83.6289 263.942 77.1137L275.333 70.4653C277.402 69.258 280 70.7501 280 73.1452Z" fill="#C4C4C4" stroke="black" stroke-width="2"/>
<g filter="url(#filter0_i)">
<path d="M21 80.0003L26.0669 80.654C32.3672 81.4669 38.7488 81.4184 45.0361 80.5099L48.5625 80.0003L43.9611 118.109C43.2881 123.683 43.2881 129.318 43.9611 134.891L48.5625 173V173C40.1814 169.67 30.876 169.496 22.3765 172.512L21 173L25.9209 135.642C26.7202 129.574 26.7202 123.427 25.9209 117.359L21 80.0003Z" fill="#FFFF00"/>
<path d="M91.4375 80.0003L95.3779 80.5087C102.419 81.4172 109.57 81.363 116.593 80.348L119 80.0003L114.245 119.382C113.674 124.113 113.674 128.887 114.245 133.618L119 173C110.673 169.691 101.247 169.52 92.7816 172.523L91.4375 173L96.5409 134.257C97.2195 129.104 97.2195 123.896 96.5409 118.744L91.4375 80.0003Z" fill="#FFFF00"/>
</g>
<path d="M21 80.0003L26.0669 80.654C32.3672 81.4669 38.7488 81.4184 45.0361 80.5099L48.5625 80.0003L43.9611 118.109C43.2881 123.683 43.2881 129.318 43.9611 134.891L48.5625 173V173C40.1814 169.67 30.876 169.496 22.3765 172.512L21 173L25.9209 135.642C26.7202 129.574 26.7202 123.427 25.9209 117.359L21 80.0003Z" stroke="black"/>
<path d="M91.4375 80.0003L95.3779 80.5087C102.419 81.4172 109.57 81.363 116.593 80.348L119 80.0003L114.245 119.382C113.674 124.113 113.674 128.887 114.245 133.618L119 173C110.673 169.691 101.247 169.52 92.7816 172.523L91.4375 173L96.5409 134.257C97.2195 129.104 97.2195 123.896 96.5409 118.744L91.4375 80.0003Z" stroke="black"/>
<g filter="url(#filter1_i)">
<path d="M162 79.5003L163.063 79.7469C171.934 81.8054 181.168 81.7208 190 79.5003V79.5003L185.029 118.929C184.311 124.622 184.296 130.381 184.984 136.077L189.563 174V174C181.181 170.67 171.876 170.496 163.377 173.512L162 174L166.94 136.499C167.727 130.525 167.739 124.474 166.976 118.497L162 79.5003Z" fill="#FFFF00"/>
<path d="M232 79.5003V79.5003C234.909 80.8349 237.954 81.9183 241.144 82.1771C245.02 82.4914 249.081 82.3242 253.071 81.9127C256.063 81.604 258.921 80.5499 261.5 79.0003V79.0003L255.245 120.382C254.674 125.113 254.674 129.887 255.245 134.618L260 174C252.336 170.954 243.501 169.276 235.543 171.371C234.182 171.729 232.987 172.521 232 173.523V173.523L237.541 135.257C238.22 130.104 238.22 124.896 237.541 119.744L232 79.5003Z" fill="#FFFF00"/>
</g>
<path d="M162 79.5003L163.063 79.7469C171.934 81.8054 181.168 81.7208 190 79.5003V79.5003L185.029 118.929C184.311 124.622 184.296 130.381 184.984 136.077L189.563 174V174C181.181 170.67 171.876 170.496 163.377 173.512L162 174L166.94 136.499C167.727 130.525 167.739 124.474 166.976 118.497L162 79.5003Z" stroke="black"/>
<path d="M232 79.5003V79.5003C234.909 80.8349 237.954 81.9183 241.144 82.1771C245.02 82.4914 249.081 82.3242 253.071 81.9127C256.063 81.604 258.921 80.5499 261.5 79.0003V79.0003L255.245 120.382C254.674 125.113 254.674 129.887 255.245 134.618L260 174C252.336 170.954 243.501 169.276 235.543 171.371C234.182 171.729 232.987 172.521 232 173.523V173.523L237.541 135.257C238.22 130.104 238.22 124.896 237.541 119.744L232 79.5003Z" stroke="black"/>
<rect x="256.24" y="102.6" width="41.5298" height="20.5682" rx="9.5" transform="rotate(89.9747 256.24 102.6)" fill="#327138" stroke="black"/>
<rect x="259.155" y="102.599" width="41.5298" height="20.5682" rx="9.5" transform="rotate(89.9747 259.155 102.599)" fill="#FF0000" stroke="black"/>
<path d="M248.793 131.63C244.3 131.632 240.583 127.646 240.581 122.633C240.579 117.621 244.292 113.632 248.785 113.63C253.278 113.628 256.995 117.614 256.997 122.626C257 127.638 253.286 131.628 248.793 131.63Z" fill="#FFFF00" stroke="black"/>
<path d="M250.376 131.629C245.883 131.631 242.166 127.645 242.164 122.633C242.162 117.62 245.875 113.631 250.368 113.629C254.862 113.627 258.579 117.613 258.581 122.625C258.583 127.638 254.87 131.627 250.376 131.629Z" fill="#0000FF" stroke="black"/>
<path d="M280 177.986V75.0656C280 71.1507 275.769 68.6976 272.371 70.6427L261.191 77.0436C250.773 83.0073 237.977 83.0073 227.559 77.0436C216.526 70.7274 202.974 70.7274 191.941 77.0436C181.523 83.0073 168.727 83.0073 158.309 77.0436C147.276 70.7274 133.724 70.7274 122.691 77.0436C112.273 83.0073 99.4766 83.0073 89.0593 77.0436C78.0265 70.7274 64.4735 70.7274 53.4407 77.0436C43.0234 83.0073 30.2266 83.0073 19.8093 77.0436L8.62851 70.6427C5.23092 68.6976 1 71.1507 1 75.0657V177.986C1 181.85 5.21585 184.236 8.52856 182.247L19.8273 175.463C30.1656 169.256 43.0844 169.256 53.4227 175.463C64.3947 182.051 78.1053 182.051 89.0773 175.463C99.4156 169.256 112.334 169.256 122.673 175.463C133.645 182.051 147.355 182.051 158.327 175.463C168.666 169.256 181.584 169.256 191.923 175.463C202.895 182.051 216.605 182.051 227.577 175.463C237.916 169.256 250.834 169.256 261.173 175.463L272.471 182.247C275.784 184.236 280 181.85 280 177.986Z" stroke="black" stroke-width="2"/>
<path d="M280 67.5411V185.459C273.84 184.951 269 179.791 269 173.5V79.5C269 73.2093 273.84 68.0492 280 67.5411Z" fill="#413838" stroke="black" stroke-width="2"/>
<path d="M12 80V174C12 180.291 7.15953 185.451 1 185.959V68.0411C7.15953 68.5492 12 73.7093 12 80Z" fill="#413838" stroke="black" stroke-width="2"/>
<defs>
<filter id="filter0_i" x="20.3977" y="79.412" width="104.2" height="98.3636" filterUnits="userSpaceOnUse" color-interpolation-filters="sRGB">
<feFlood flood-opacity="0" result="BackgroundImageFix"/>
<feBlend mode="normal" in="SourceGraphic" in2="BackgroundImageFix" result="shape"/>
<feColorMatrix in="SourceAlpha" type="matrix" values="0 0 0 0 0 0 0 0 0 0 0 0 0 0 0 0 0 0 127 0" result="hardAlpha"/>
<feOffset dx="5" dy="4"/>
<feGaussianBlur stdDeviation="9"/>
<feComposite in2="hardAlpha" operator="arithmetic" k2="-1" k3="1"/>
<feColorMatrix type="matrix" values="0 0 0 0 0 0 0 0 0 0 0 0 0 0 0 0 0 0 0.5 0"/>
<feBlend mode="normal" in2="shape" result="effect1_innerShadow"/>
</filter>
<filter id="filter1_i" x="161.398" y="78.5717" width="105.597" height="96.2039" filterUnits="userSpaceOnUse" color-interpolation-filters="sRGB">
<feFlood flood-opacity="0" result="BackgroundImageFix"/>
<feBlend mode="normal" in="SourceGraphic" in2="BackgroundImageFix" result="shape"/>
<feColorMatrix in="SourceAlpha" type="matrix" values="0 0 0 0 0 0 0 0 0 0 0 0 0 0 0 0 0 0 127 0" result="hardAlpha"/>
<feOffset dx="5"/>
<feGaussianBlur stdDeviation="9"/>
<feComposite in2="hardAlpha" operator="arithmetic" k2="-1" k3="1"/>
<feColorMatrix type="matrix" values="0 0 0 0 0 0 0 0 0 0 0 0 0 0 0 0 0 0 0.5 0"/>
<feBlend mode="normal" in2="shape" result="effect1_innerShadow"/>
</filter>
</defs>
</svg>
