<svg width="328" height="248" viewBox="0 0 328 248" fill="none" xmlns="http://www.w3.org/2000/svg">
<rect width="324" height="248" fill="#C4C4C4"/>
<rect x="1" y="67" width="277" height="119" fill="#706F6F" stroke="black" stroke-width="2"/>
<path d="M1 116H82V136H1V116Z" fill="#FF0000" stroke="black" stroke-width="2"/>
<path d="M92 99.5H106.5V153.5H92C86.7533 153.5 82.5 149.247 82.5 144V109C82.5 103.753 86.7533 99.5 92 99.5Z" fill="#413838" stroke="black"/>
<rect x="57.5" y="83.5" width="12" height="88" fill="#413838" stroke="black"/>
<g filter="url(#filter0_d)">
<path d="M311.143 196C325.177 191.205 328.579 171.247 317.062 161.274L310.665 155.734H173.896C166.66 155.734 159.467 154.612 152.574 152.408L117.647 141.239H40.5094L30.0531 161.103H9L20.6408 178.431C28.0593 189.475 39.8608 196 52.4143 196H311.143Z" fill="#FF0000"/>
<path d="M311.143 57C325.177 61.7945 328.579 81.7531 317.062 91.7262L310.665 97.2657H174.663C166.922 97.2657 159.23 98.4634 151.882 100.813L117.647 111.761H40.5094L30.0531 91.8969H9L20.6408 74.5686C28.0593 63.5255 39.8608 57 52.4143 57H311.143Z" fill="#FF0000"/>
<path d="M30.0531 162.103H30.6568L30.938 161.569L41.1131 142.239H117.491L152.27 153.36C159.261 155.596 166.556 156.734 173.896 156.734H310.293L316.408 162.03C321.866 166.756 323.813 173.871 322.699 180.411C321.593 186.9 317.496 192.703 310.975 195H52.4143C40.217 195 28.7168 188.66 21.4708 177.874L10.8765 162.103H30.0531ZM30.938 91.4311L30.6568 90.8969H30.0531H10.8765L21.4708 75.1262C28.7168 64.3399 40.217 58 52.4143 58H310.975C317.496 60.2966 321.593 66.1003 322.699 72.5892C323.813 79.1293 321.866 86.2436 316.408 90.9703L310.293 96.2657H174.663C166.818 96.2657 159.025 97.4793 151.578 99.8609L117.491 110.761H41.1131L30.938 91.4311Z" stroke="black" stroke-width="2"/>
</g>
<path d="M38.75 69.5C38.75 71.3325 37.484 72.75 36 72.75C34.516 72.75 33.25 71.3325 33.25 69.5C33.25 67.6675 34.516 66.25 36 66.25C37.484 66.25 38.75 67.6675 38.75 69.5Z" fill="#C4C4C4" stroke="black" stroke-width="0.5"/>
<path d="M51.75 65C51.75 66.0557 51.4288 67.0018 50.9213 67.6784C50.4139 68.3549 49.7321 68.75 49 68.75C48.2679 68.75 47.5861 68.3549 47.0787 67.6784C46.5712 67.0018 46.25 66.0557 46.25 65C46.25 63.9443 46.5712 62.9982 47.0787 62.3216C47.5861 61.6451 48.2679 61.25 49 61.25C49.7321 61.25 50.4139 61.6451 50.9213 62.3216C51.4288 62.9982 51.75 63.9443 51.75 65Z" fill="#C4C4C4" stroke="black" stroke-width="0.5"/>
<path d="M27.75 83C27.75 84.0557 27.4288 85.0018 26.9213 85.6784C26.4139 86.3549 25.7321 86.75 25 86.75C24.2679 86.75 23.5861 86.3549 23.0787 85.6784C22.5712 85.0018 22.25 84.0557 22.25 83C22.25 81.9443 22.5712 80.9982 23.0787 80.3216C23.5861 79.6451 24.2679 79.25 25 79.25C25.7321 79.25 26.4139 79.6451 26.9213 80.3216C27.4288 80.9982 27.75 81.9443 27.75 83Z" fill="#C4C4C4" stroke="black" stroke-width="0.5"/>
<path d="M38.75 183.5C38.75 181.668 37.484 180.25 36 180.25C34.516 180.25 33.25 181.668 33.25 183.5C33.25 185.332 34.516 186.75 36 186.75C37.484 186.75 38.75 185.332 38.75 183.5Z" fill="#C4C4C4" stroke="black" stroke-width="0.5"/>
<path d="M51.75 188C51.75 186.944 51.4288 185.998 50.9213 185.322C50.4139 184.645 49.7321 184.25 49 184.25C48.2679 184.25 47.5861 184.645 47.0787 185.322C46.5712 185.998 46.25 186.944 46.25 188C46.25 189.056 46.5712 190.002 47.0787 190.678C47.5861 191.355 48.2679 191.75 49 191.75C49.7321 191.75 50.4139 191.355 50.9213 190.678C51.4288 190.002 51.75 189.056 51.75 188Z" fill="#C4C4C4" stroke="black" stroke-width="0.5"/>
<path d="M27.75 170C27.75 168.944 27.4288 167.998 26.9213 167.322C26.4139 166.645 25.7321 166.25 25 166.25C24.2679 166.25 23.5861 166.645 23.0787 167.322C22.5712 167.998 22.25 168.944 22.25 170C22.25 171.056 22.5712 172.002 23.0787 172.678C23.5861 173.355 24.2679 173.75 25 173.75C25.7321 173.75 26.4139 173.355 26.9213 172.678C27.4288 172.002 27.75 171.056 27.75 170Z" fill="#C4C4C4" stroke="black" stroke-width="0.5"/>
<circle cx="98" cy="116" r="3.75" fill="#C4C4C4" stroke="black" stroke-width="0.5"/>
<path d="M93.75 127C93.75 129.071 92.0711 130.75 90 130.75C87.9289 130.75 86.25 129.071 86.25 127C86.25 124.929 87.9289 123.25 90 123.25C92.0711 123.25 93.75 124.929 93.75 127Z" fill="#C4C4C4" stroke="black" stroke-width="0.5"/>
<circle cx="98" cy="138" r="3.75" fill="#C4C4C4" stroke="black" stroke-width="0.5"/>
<defs>
<filter id="filter0_d" x="5" y="57" width="323" height="147" filterUnits="userSpaceOnUse" color-interpolation-filters="sRGB">
<feFlood flood-opacity="0" result="BackgroundImageFix"/>
<feColorMatrix in="SourceAlpha" type="matrix" values="0 0 0 0 0 0 0 0 0 0 0 0 0 0 0 0 0 0 127 0" result="hardAlpha"/>
<feOffset dy="4"/>
<feGaussianBlur stdDeviation="2"/>
<feComposite in2="hardAlpha" operator="out"/>
<feColorMatrix type="matrix" values="0 0 0 0 0 0 0 0 0 0 0 0 0 0 0 0 0 0 0.25 0"/>
<feBlend mode="normal" in2="BackgroundImageFix" result="effect1_dropShadow"/>
<feBlend mode="normal" in="SourceGraphic" in2="effect1_dropShadow" result="shape"/>
</filter>
</defs>
</svg>
