 <svg
          className="saber-emitter"
          width={324 * multiplier}
          height={248 * multiplier}
          viewBox="1.5 -1 324 250"
          fill="none"
          xmlns="http://www.w3.org/2000/svg"
        >
          {getDefs()}

          <rect width="324" height="248" fill="transparent" />
<rect x="1" y="67" width="277" height="119" fill="transparent" stroke="transparent" stroke-width="2"/>
<path d="M1 74H109.099L137.678 175H1V74Z" fill={bodyColor} stroke="black" stroke-width="2"/>
<path d="M104.661 69.2683L163.872 99.2306C171.754 103.219 178.639 108.926 184.021 115.931L223.817 167.736C227.354 172.34 224.072 179 218.266 179H101.5C97.634 179 94.5 175.866 94.5 172V75.5141C94.5 70.2957 100.004 66.9121 104.661 69.2683Z" fill={bodyColor} stroke="black" stroke-width="2"/>
<path d="M15.5 74.5H62V174.5H15.5V74.5Z" fill="url(#black-duraplast-vertical)" stroke="black"/>
<path d="M32 79.5H45C47.4853 79.5 49.5 81.5147 49.5 84C49.5 86.4853 47.4853 88.5 45 88.5H32C29.5147 88.5 27.5 86.4853 27.5 84C27.5 81.5147 29.5147 79.5 32 79.5Z" fill={bodyColor} stroke="black"/>
<path d="M32 101.5H45C47.4853 101.5 49.5 103.515 49.5 106C49.5 108.485 47.4853 110.5 45 110.5H32C29.5147 110.5 27.5 108.485 27.5 106C27.5 103.515 29.5147 101.5 32 101.5Z" fill={bodyColor} stroke="black"/>
<path d="M32 143.5H45C47.4853 143.5 49.5 145.515 49.5 148C49.5 150.485 47.4853 152.5 45 152.5H32C29.5147 152.5 27.5 150.485 27.5 148C27.5 145.515 29.5147 143.5 32 143.5Z" fill={bodyColor} stroke="black"/>
<path d="M32 123.5H45C47.4853 123.5 49.5 125.515 49.5 128C49.5 130.485 47.4853 132.5 45 132.5H32C29.5147 132.5 27.5 130.485 27.5 128C27.5 125.515 29.5147 123.5 32 123.5Z" fill={bodyColor} stroke="black"/>
<path d="M32 165.5H45C47.4853 165.5 49.5 167.515 49.5 170C49.5 172.485 47.4853 174.5 45 174.5H32C29.5147 174.5 27.5 172.485 27.5 170C27.5 167.515 29.5147 165.5 32 165.5Z" fill={bodyColor} stroke="black"/>
<path d="M154.5 154C154.5 159.724 148.985 164.5 142 164.5C135.015 164.5 129.5 159.724 129.5 154C129.5 148.276 135.015 143.5 142 143.5C148.985 143.5 154.5 148.276 154.5 154Z" fill="url(#royal-chromium)" stroke="black"/>
<path d="M154.5 156C154.5 161.724 148.985 166.5 142 166.5C135.015 166.5 129.5 161.724 129.5 156C129.5 150.276 135.015 145.5 142 145.5C148.985 145.5 154.5 150.276 154.5 156Z" fill="url(#royal-chromium)" stroke="black"/>
</svg>
