<svg
          className="saber-switch"
          width={281 * multiplier}
          height={248 * multiplier}
          viewBox="0 0 281 248"
          fill="none"
          xmlns="http://www.w3.org/2000/svg"
        >
          {getDefs()}
          <rect width="281" height="248" fill="transparent" />
<rect x="1" y="67" width="279" height="119" fill="transparent" stroke="transparent" stroke-width="2"/>
<rect x="1" y="76" width="279" height="101" fill={bodyColor} stroke="black" stroke-width="2"/>
<rect x="1" y="67" width="139" height="119" rx="7" fill="url(#black-duraplast-vertical)" stroke="black" stroke-width="2"/>
<rect x="166.5" y="76.5" width="67" height="100" fill="url(#black-duraplast-vertical)" stroke="black"/>
<path d="M170.5 75.25H232.5C237.747 75.25 242 79.5033 242 84.75V94.75C242 99.9967 237.747 104.25 232.5 104.25H170.5C165.253 104.25 161 99.9967 161 94.75V84.75C161 79.5033 165.253 75.25 170.5 75.25Z" fill="url(#royal-chromium-vertical" stroke="black"/>
<path d="M167 73.25H229C234.247 73.25 238.5 77.5033 238.5 82.75V92.75C238.5 97.9967 234.247 102.25 229 102.25H167C161.753 102.25 157.5 97.9967 157.5 92.75V82.75C157.5 77.5033 161.753 73.25 167 73.25Z" fill="url(#royal-chromium-vertical" stroke="black"/>
<path d="M227.5 85.5C227.5 87.6234 226.183 89.6113 223.919 91.0919C221.659 92.5697 218.507 93.5 215 93.5C211.493 93.5 208.341 92.5697 206.081 91.0919C203.817 89.6113 202.5 87.6234 202.5 85.5C202.5 83.3766 203.817 81.3887 206.081 79.9081C208.341 78.4303 211.493 77.5 215 77.5C218.507 77.5 221.659 78.4303 223.919 79.9081C226.183 81.3887 227.5 83.3766 227.5 85.5Z" fill={bodyColor} stroke="black"/>
<path d="M206.143 82.1255L206.96 81.0409C208.099 79.5313 208.144 77.463 207.073 75.9051C206.253 74.7125 204.898 74 203.451 74H194.75C192.938 74 192.438 71.51 194.109 70.8102L194.627 70.5934C194.791 70.5251 194.963 70.4816 195.139 70.4644L200.744 69.9176C203.537 69.6451 206.357 69.8455 209.083 70.5105C212.979 71.4607 216.588 73.3354 219.606 75.9759L222.025 78.0921C222.58 78.5778 223.056 79.1464 223.438 79.7778C225.944 83.9283 223.684 89.3174 218.966 90.4378L216.864 90.9372C214.668 91.4586 212.375 91.399 210.209 90.764L208.874 90.3725C205.331 89.3337 203.92 85.0734 206.143 82.1255Z" fill="#FFFF00" stroke="black"/>
<path d="M207.391 78.6976L209.078 78.5196C212.262 78.1834 215.235 76.7645 217.5 74.5V74.5" stroke="black" stroke-width="4"/>
</svg>
