<?xml version="1.0" encoding="utf-8"?>
<svg xmlns="http://www.w3.org/2000/svg" xmlns:xlink="http://www.w3.org/1999/xlink" style="background: none; display: block; position: relative; shape-rendering: auto;" width="163" height="163" preserveAspectRatio="xMidYMid" viewBox="0 0 163 163"><g transform="scale(0.64)"><g>
  <line x1="156.05006948203123" x2="156.05006948203123" y1="72.790498241058" y2="72.790498241058" stroke-width="3" stroke="#ffffff" stroke-linecap="round"></line><line x1="156.05006948203123" x2="156.05006948203123" y1="-439.209501758942" y2="-439.209501758942" stroke-width="3" stroke="#ffffff" stroke-linecap="round"></line><line x1="412.05006948203123" x2="412.05006948203123" y1="-439.209501758942" y2="-439.209501758942" stroke-width="3" stroke="#ffffff" stroke-linecap="round"></line><line x1="668.0500694820312" x2="668.0500694820312" y1="-439.209501758942" y2="-439.209501758942" stroke-width="3" stroke="#ffffff" stroke-linecap="round"></line><line x1="156.05006948203123" x2="156.05006948203123" y1="-183.209501758942" y2="-183.209501758942" stroke-width="3" stroke="#ffffff" stroke-linecap="round"></line><line x1="412.05006948203123" x2="412.05006948203123" y1="-183.209501758942" y2="-183.209501758942" stroke-width="3" stroke="#ffffff" stroke-linecap="round"></line><line x1="668.0500694820312" x2="668.0500694820312" y1="-183.209501758942" y2="-183.209501758942" stroke-width="3" stroke="#ffffff" stroke-linecap="round"></line><line x1="156.05006948203123" x2="156.05006948203123" y1="72.790498241058" y2="72.790498241058" stroke-width="3" stroke="#ffffff" stroke-linecap="round"></line><line x1="412.05006948203123" x2="412.05006948203123" y1="72.790498241058" y2="72.790498241058" stroke-width="3" stroke="#ffffff" stroke-linecap="round"></line><line x1="668.0500694820312" x2="668.0500694820312" y1="72.790498241058" y2="72.790498241058" stroke-width="3" stroke="#ffffff" stroke-linecap="round"></line><line x1="232.44713887267824" x2="232.44713887267824" y1="89.37676443550475" y2="89.37676443550475" stroke-width="3" stroke="#ffffff" stroke-linecap="round"></line><line x1="232.44713887267824" x2="232.44713887267824" y1="-422.62323556449525" y2="-422.62323556449525" stroke-width="3" stroke="#ffffff" stroke-linecap="round"></line><line x1="488.44713887267824" x2="488.44713887267824" y1="-422.62323556449525" y2="-422.62323556449525" stroke-width="3" stroke="#ffffff" stroke-linecap="round"></line><line x1="744.4471388726782" x2="744.4471388726782" y1="-422.62323556449525" y2="-422.62323556449525" stroke-width="3" stroke="#ffffff" stroke-linecap="round"></line><line x1="232.44713887267824" x2="232.44713887267824" y1="-166.62323556449525" y2="-166.62323556449525" stroke-width="3" stroke="#ffffff" stroke-linecap="round"></line><line x1="488.44713887267824" x2="488.44713887267824" y1="-166.62323556449525" y2="-166.62323556449525" stroke-width="3" stroke="#ffffff" stroke-linecap="round"></line><line x1="744.4471388726782" x2="744.4471388726782" y1="-166.62323556449525" y2="-166.62323556449525" stroke-width="3" stroke="#ffffff" stroke-linecap="round"></line><line x1="232.44713887267824" x2="232.44713887267824" y1="89.37676443550475" y2="89.37676443550475" stroke-width="3" stroke="#ffffff" stroke-linecap="round"></line><line x1="488.44713887267824" x2="488.44713887267824" y1="89.37676443550475" y2="89.37676443550475" stroke-width="3" stroke="#ffffff" stroke-linecap="round"></line><line x1="744.4471388726782" x2="744.4471388726782" y1="89.37676443550475" y2="89.37676443550475" stroke-width="3" stroke="#ffffff" stroke-linecap="round"></line><line x1="74.23884948321472" x2="74.23884948321472" y1="17.14958724767638" y2="17.14958724767638" stroke-width="3" stroke="#ffffff" stroke-linecap="round"></line><line x1="74.23884948321472" x2="74.23884948321472" y1="-494.8504127523236" y2="-494.8504127523236" stroke-width="3" stroke="#ffffff" stroke-linecap="round"></line><line x1="330.2388494832147" x2="330.2388494832147" y1="-494.8504127523236" y2="-494.8504127523236" stroke-width="3" stroke="#ffffff" stroke-linecap="round"></line><line x1="586.2388494832147" x2="586.2388494832147" y1="-494.8504127523236" y2="-494.8504127523236" stroke-width="3" stroke="#ffffff" stroke-linecap="round"></line><line x1="74.23884948321472" x2="74.23884948321472" y1="-238.85041275232362" y2="-238.85041275232362" stroke-width="3" stroke="#ffffff" stroke-linecap="round"></line><line x1="330.2388494832147" x2="330.2388494832147" y1="-238.85041275232362" y2="-238.85041275232362" stroke-width="3" stroke="#ffffff" stroke-linecap="round"></line><line x1="586.2388494832147" x2="586.2388494832147" y1="-238.85041275232362" y2="-238.85041275232362" stroke-width="3" stroke="#ffffff" stroke-linecap="round"></line><line x1="74.23884948321472" x2="74.23884948321472" y1="17.14958724767638" y2="17.14958724767638" stroke-width="3" stroke="#ffffff" stroke-linecap="round"></line><line x1="330.2388494832147" x2="330.2388494832147" y1="17.14958724767638" y2="17.14958724767638" stroke-width="3" stroke="#ffffff" stroke-linecap="round"></line><line x1="586.2388494832147" x2="586.2388494832147" y1="17.14958724767638" y2="17.14958724767638" stroke-width="3" stroke="#ffffff" stroke-linecap="round"></line><line x1="14.843498877192815" x2="14.843498877192815" y1="57.59473300966704" y2="57.59473300966704" stroke-width="3" stroke="#ffffff" stroke-linecap="round"></line><line x1="14.843498877192815" x2="14.843498877192815" y1="-454.40526699033296" y2="-454.40526699033296" stroke-width="3" stroke="#ffffff" stroke-linecap="round"></line><line x1="270.8434988771928" x2="270.8434988771928" y1="-454.40526699033296" y2="-454.40526699033296" stroke-width="3" stroke="#ffffff" stroke-linecap="round"></line><line x1="526.8434988771928" x2="526.8434988771928" y1="-454.40526699033296" y2="-454.40526699033296" stroke-width="3" stroke="#ffffff" stroke-linecap="round"></line><line x1="14.843498877192815" x2="14.843498877192815" y1="-198.40526699033296" y2="-198.40526699033296" stroke-width="3" stroke="#ffffff" stroke-linecap="round"></line><line x1="270.8434988771928" x2="270.8434988771928" y1="-198.40526699033296" y2="-198.40526699033296" stroke-width="3" stroke="#ffffff" stroke-linecap="round"></line><line x1="526.8434988771928" x2="526.8434988771928" y1="-198.40526699033296" y2="-198.40526699033296" stroke-width="3" stroke="#ffffff" stroke-linecap="round"></line><line x1="14.843498877192815" x2="14.843498877192815" y1="57.59473300966704" y2="57.59473300966704" stroke-width="3" stroke="#ffffff" stroke-linecap="round"></line><line x1="270.8434988771928" x2="270.8434988771928" y1="57.59473300966704" y2="57.59473300966704" stroke-width="3" stroke="#ffffff" stroke-linecap="round"></line><line x1="526.8434988771928" x2="526.8434988771928" y1="57.59473300966704" y2="57.59473300966704" stroke-width="3" stroke="#ffffff" stroke-linecap="round"></line><line x1="26.687178146901374" x2="26.687178146901374" y1="51.774202766970575" y2="51.774202766970575" stroke-width="3" stroke="#ffffff" stroke-linecap="round"></line><line x1="26.687178146901374" x2="26.687178146901374" y1="-460.2257972330294" y2="-460.2257972330294" stroke-width="3" stroke="#ffffff" stroke-linecap="round"></line><line x1="282.6871781469014" x2="282.6871781469014" y1="-460.2257972330294" y2="-460.2257972330294" stroke-width="3" stroke="#ffffff" stroke-linecap="round"></line><line x1="538.6871781469014" x2="538.6871781469014" y1="-460.2257972330294" y2="-460.2257972330294" stroke-width="3" stroke="#ffffff" stroke-linecap="round"></line><line x1="26.687178146901374" x2="26.687178146901374" y1="-204.22579723302943" y2="-204.22579723302943" stroke-width="3" stroke="#ffffff" stroke-linecap="round"></line><line x1="282.6871781469014" x2="282.6871781469014" y1="-204.22579723302943" y2="-204.22579723302943" stroke-width="3" stroke="#ffffff" stroke-linecap="round"></line><line x1="538.6871781469014" x2="538.6871781469014" y1="-204.22579723302943" y2="-204.22579723302943" stroke-width="3" stroke="#ffffff" stroke-linecap="round"></line><line x1="26.687178146901374" x2="26.687178146901374" y1="51.774202766970575" y2="51.774202766970575" stroke-width="3" stroke="#ffffff" stroke-linecap="round"></line><line x1="282.6871781469014" x2="282.6871781469014" y1="51.774202766970575" y2="51.774202766970575" stroke-width="3" stroke="#ffffff" stroke-linecap="round"></line><line x1="538.6871781469014" x2="538.6871781469014" y1="51.774202766970575" y2="51.774202766970575" stroke-width="3" stroke="#ffffff" stroke-linecap="round"></line><line x1="219.35587559727037" x2="219.35587559727037" y1="216.51051532799642" y2="216.51051532799642" stroke-width="3" stroke="#ffffff" stroke-linecap="round"></line><line x1="219.35587559727037" x2="219.35587559727037" y1="-295.4894846720036" y2="-295.4894846720036" stroke-width="3" stroke="#ffffff" stroke-linecap="round"></line><line x1="475.35587559727037" x2="475.35587559727037" y1="-295.4894846720036" y2="-295.4894846720036" stroke-width="3" stroke="#ffffff" stroke-linecap="round"></line><line x1="731.3558755972704" x2="731.3558755972704" y1="-295.4894846720036" y2="-295.4894846720036" stroke-width="3" stroke="#ffffff" stroke-linecap="round"></line><line x1="219.35587559727037" x2="219.35587559727037" y1="-39.489484672003584" y2="-39.489484672003584" stroke-width="3" stroke="#ffffff" stroke-linecap="round"></line><line x1="475.35587559727037" x2="475.35587559727037" y1="-39.489484672003584" y2="-39.489484672003584" stroke-width="3" stroke="#ffffff" stroke-linecap="round"></line><line x1="731.3558755972704" x2="731.3558755972704" y1="-39.489484672003584" y2="-39.489484672003584" stroke-width="3" stroke="#ffffff" stroke-linecap="round"></line><line x1="219.35587559727037" x2="219.35587559727037" y1="216.51051532799642" y2="216.51051532799642" stroke-width="3" stroke="#ffffff" stroke-linecap="round"></line><line x1="475.35587559727037" x2="475.35587559727037" y1="216.51051532799642" y2="216.51051532799642" stroke-width="3" stroke="#ffffff" stroke-linecap="round"></line><line x1="731.3558755972704" x2="731.3558755972704" y1="216.51051532799642" y2="216.51051532799642" stroke-width="3" stroke="#ffffff" stroke-linecap="round"></line><line x1="240.80176283482172" x2="240.80176283482172" y1="211.27691781169204" y2="211.27691781169204" stroke-width="3" stroke="#ffffff" stroke-linecap="round"></line><line x1="240.80176283482172" x2="240.80176283482172" y1="-300.72308218830796" y2="-300.72308218830796" stroke-width="3" stroke="#ffffff" stroke-linecap="round"></line><line x1="496.8017628348217" x2="496.8017628348217" y1="-300.72308218830796" y2="-300.72308218830796" stroke-width="3" stroke="#ffffff" stroke-linecap="round"></line><line x1="752.8017628348217" x2="752.8017628348217" y1="-300.72308218830796" y2="-300.72308218830796" stroke-width="3" stroke="#ffffff" stroke-linecap="round"></line><line x1="240.80176283482172" x2="240.80176283482172" y1="-44.723082188307956" y2="-44.723082188307956" stroke-width="3" stroke="#ffffff" stroke-linecap="round"></line><line x1="496.8017628348217" x2="496.8017628348217" y1="-44.723082188307956" y2="-44.723082188307956" stroke-width="3" stroke="#ffffff" stroke-linecap="round"></line><line x1="752.8017628348217" x2="752.8017628348217" y1="-44.723082188307956" y2="-44.723082188307956" stroke-width="3" stroke="#ffffff" stroke-linecap="round"></line><line x1="240.80176283482172" x2="240.80176283482172" y1="211.27691781169204" y2="211.27691781169204" stroke-width="3" stroke="#ffffff" stroke-linecap="round"></line><line x1="496.8017628348217" x2="496.8017628348217" y1="211.27691781169204" y2="211.27691781169204" stroke-width="3" stroke="#ffffff" stroke-linecap="round"></line><line x1="752.8017628348217" x2="752.8017628348217" y1="211.27691781169204" y2="211.27691781169204" stroke-width="3" stroke="#ffffff" stroke-linecap="round"></line><line x1="20.71993737026179" x2="20.71993737026179" y1="248.33452142412733" y2="248.33452142412733" stroke-width="3" stroke="#ffffff" stroke-linecap="round"></line><line x1="20.71993737026179" x2="20.71993737026179" y1="-263.66547857587267" y2="-263.66547857587267" stroke-width="3" stroke="#ffffff" stroke-linecap="round"></line><line x1="276.7199373702618" x2="276.7199373702618" y1="-263.66547857587267" y2="-263.66547857587267" stroke-width="3" stroke="#ffffff" stroke-linecap="round"></line><line x1="532.7199373702617" x2="532.7199373702617" y1="-263.66547857587267" y2="-263.66547857587267" stroke-width="3" stroke="#ffffff" stroke-linecap="round"></line><line x1="20.71993737026179" x2="20.71993737026179" y1="-7.665478575872669" y2="-7.665478575872669" stroke-width="3" stroke="#ffffff" stroke-linecap="round"></line><line x1="276.7199373702618" x2="276.7199373702618" y1="-7.665478575872669" y2="-7.665478575872669" stroke-width="3" stroke="#ffffff" stroke-linecap="round"></line><line x1="532.7199373702617" x2="532.7199373702617" y1="-7.665478575872669" y2="-7.665478575872669" stroke-width="3" stroke="#ffffff" stroke-linecap="round"></line><line x1="20.71993737026179" x2="20.71993737026179" y1="248.33452142412733" y2="248.33452142412733" stroke-width="3" stroke="#ffffff" stroke-linecap="round"></line><line x1="276.7199373702618" x2="276.7199373702618" y1="248.33452142412733" y2="248.33452142412733" stroke-width="3" stroke="#ffffff" stroke-linecap="round"></line><line x1="532.7199373702617" x2="532.7199373702617" y1="248.33452142412733" y2="248.33452142412733" stroke-width="3" stroke="#ffffff" stroke-linecap="round"></line><line x1="78.90638894538682" x2="78.90638894538682" y1="184.39125454213433" y2="184.39125454213433" stroke-width="3" stroke="#ffffff" stroke-linecap="round"></line><line x1="78.90638894538682" x2="78.90638894538682" y1="-327.60874545786567" y2="-327.60874545786567" stroke-width="3" stroke="#ffffff" stroke-linecap="round"></line><line x1="334.9063889453868" x2="334.9063889453868" y1="-327.60874545786567" y2="-327.60874545786567" stroke-width="3" stroke="#ffffff" stroke-linecap="round"></line><line x1="590.9063889453869" x2="590.9063889453869" y1="-327.60874545786567" y2="-327.60874545786567" stroke-width="3" stroke="#ffffff" stroke-linecap="round"></line><line x1="78.90638894538682" x2="78.90638894538682" y1="-71.60874545786567" y2="-71.60874545786567" stroke-width="3" stroke="#ffffff" stroke-linecap="round"></line><line x1="334.9063889453868" x2="334.9063889453868" y1="-71.60874545786567" y2="-71.60874545786567" stroke-width="3" stroke="#ffffff" stroke-linecap="round"></line><line x1="590.9063889453869" x2="590.9063889453869" y1="-71.60874545786567" y2="-71.60874545786567" stroke-width="3" stroke="#ffffff" stroke-linecap="round"></line><line x1="78.90638894538682" x2="78.90638894538682" y1="184.39125454213433" y2="184.39125454213433" stroke-width="3" stroke="#ffffff" stroke-linecap="round"></line><line x1="334.9063889453868" x2="334.9063889453868" y1="184.39125454213433" y2="184.39125454213433" stroke-width="3" stroke="#ffffff" stroke-linecap="round"></line><line x1="590.9063889453869" x2="590.9063889453869" y1="184.39125454213433" y2="184.39125454213433" stroke-width="3" stroke="#ffffff" stroke-linecap="round"></line><line x1="209.77394765974742" x2="209.77394765974742" y1="159.80339577440145" y2="159.80339577440145" stroke-width="3" stroke="#ffffff" stroke-linecap="round"></line><line x1="209.77394765974742" x2="209.77394765974742" y1="-352.19660422559855" y2="-352.19660422559855" stroke-width="3" stroke="#ffffff" stroke-linecap="round"></line><line x1="465.7739476597474" x2="465.7739476597474" y1="-352.19660422559855" y2="-352.19660422559855" stroke-width="3" stroke="#ffffff" stroke-linecap="round"></line><line x1="721.7739476597474" x2="721.7739476597474" y1="-352.19660422559855" y2="-352.19660422559855" stroke-width="3" stroke="#ffffff" stroke-linecap="round"></line><line x1="209.77394765974742" x2="209.77394765974742" y1="-96.19660422559855" y2="-96.19660422559855" stroke-width="3" stroke="#ffffff" stroke-linecap="round"></line><line x1="465.7739476597474" x2="465.7739476597474" y1="-96.19660422559855" y2="-96.19660422559855" stroke-width="3" stroke="#ffffff" stroke-linecap="round"></line><line x1="721.7739476597474" x2="721.7739476597474" y1="-96.19660422559855" y2="-96.19660422559855" stroke-width="3" stroke="#ffffff" stroke-linecap="round"></line><line x1="209.77394765974742" x2="209.77394765974742" y1="159.80339577440145" y2="159.80339577440145" stroke-width="3" stroke="#ffffff" stroke-linecap="round"></line><line x1="465.7739476597474" x2="465.7739476597474" y1="159.80339577440145" y2="159.80339577440145" stroke-width="3" stroke="#ffffff" stroke-linecap="round"></line><line x1="721.7739476597474" x2="721.7739476597474" y1="159.80339577440145" y2="159.80339577440145" stroke-width="3" stroke="#ffffff" stroke-linecap="round"></line>
  <animateTransform attributeName="transform" type="translate" values="0 0;-256 256" keyTimes="0;1" repeatCount="indefinite" dur="20s"></animateTransform>
</g><g>
  <line x1="143.1917873850566" x2="143.1917873850566" y1="69.61912052732043" y2="69.61912052732043" stroke-width="3" stroke="#bfbfbf" stroke-linecap="round"></line><line x1="143.1917873850566" x2="143.1917873850566" y1="-442.38087947267957" y2="-442.38087947267957" stroke-width="3" stroke="#bfbfbf" stroke-linecap="round"></line><line x1="399.1917873850566" x2="399.1917873850566" y1="-442.38087947267957" y2="-442.38087947267957" stroke-width="3" stroke="#bfbfbf" stroke-linecap="round"></line><line x1="655.1917873850566" x2="655.1917873850566" y1="-442.38087947267957" y2="-442.38087947267957" stroke-width="3" stroke="#bfbfbf" stroke-linecap="round"></line><line x1="143.1917873850566" x2="143.1917873850566" y1="-186.38087947267957" y2="-186.38087947267957" stroke-width="3" stroke="#bfbfbf" stroke-linecap="round"></line><line x1="399.1917873850566" x2="399.1917873850566" y1="-186.38087947267957" y2="-186.38087947267957" stroke-width="3" stroke="#bfbfbf" stroke-linecap="round"></line><line x1="655.1917873850566" x2="655.1917873850566" y1="-186.38087947267957" y2="-186.38087947267957" stroke-width="3" stroke="#bfbfbf" stroke-linecap="round"></line><line x1="143.1917873850566" x2="143.1917873850566" y1="69.61912052732043" y2="69.61912052732043" stroke-width="3" stroke="#bfbfbf" stroke-linecap="round"></line><line x1="399.1917873850566" x2="399.1917873850566" y1="69.61912052732043" y2="69.61912052732043" stroke-width="3" stroke="#bfbfbf" stroke-linecap="round"></line><line x1="655.1917873850566" x2="655.1917873850566" y1="69.61912052732043" y2="69.61912052732043" stroke-width="3" stroke="#bfbfbf" stroke-linecap="round"></line><line x1="39.88595064949499" x2="39.88595064949499" y1="183.84920619617378" y2="183.84920619617378" stroke-width="3" stroke="#bfbfbf" stroke-linecap="round"></line><line x1="39.88595064949499" x2="39.88595064949499" y1="-328.1507938038262" y2="-328.1507938038262" stroke-width="3" stroke="#bfbfbf" stroke-linecap="round"></line><line x1="295.885950649495" x2="295.885950649495" y1="-328.1507938038262" y2="-328.1507938038262" stroke-width="3" stroke="#bfbfbf" stroke-linecap="round"></line><line x1="551.885950649495" x2="551.885950649495" y1="-328.1507938038262" y2="-328.1507938038262" stroke-width="3" stroke="#bfbfbf" stroke-linecap="round"></line><line x1="39.88595064949499" x2="39.88595064949499" y1="-72.15079380382622" y2="-72.15079380382622" stroke-width="3" stroke="#bfbfbf" stroke-linecap="round"></line><line x1="295.885950649495" x2="295.885950649495" y1="-72.15079380382622" y2="-72.15079380382622" stroke-width="3" stroke="#bfbfbf" stroke-linecap="round"></line><line x1="551.885950649495" x2="551.885950649495" y1="-72.15079380382622" y2="-72.15079380382622" stroke-width="3" stroke="#bfbfbf" stroke-linecap="round"></line><line x1="39.88595064949499" x2="39.88595064949499" y1="183.84920619617378" y2="183.84920619617378" stroke-width="3" stroke="#bfbfbf" stroke-linecap="round"></line><line x1="295.885950649495" x2="295.885950649495" y1="183.84920619617378" y2="183.84920619617378" stroke-width="3" stroke="#bfbfbf" stroke-linecap="round"></line><line x1="551.885950649495" x2="551.885950649495" y1="183.84920619617378" y2="183.84920619617378" stroke-width="3" stroke="#bfbfbf" stroke-linecap="round"></line><line x1="67.33588773141844" x2="67.33588773141844" y1="168.46919471520528" y2="168.46919471520528" stroke-width="3" stroke="#bfbfbf" stroke-linecap="round"></line><line x1="67.33588773141844" x2="67.33588773141844" y1="-343.5308052847947" y2="-343.5308052847947" stroke-width="3" stroke="#bfbfbf" stroke-linecap="round"></line><line x1="323.33588773141844" x2="323.33588773141844" y1="-343.5308052847947" y2="-343.5308052847947" stroke-width="3" stroke="#bfbfbf" stroke-linecap="round"></line><line x1="579.3358877314184" x2="579.3358877314184" y1="-343.5308052847947" y2="-343.5308052847947" stroke-width="3" stroke="#bfbfbf" stroke-linecap="round"></line><line x1="67.33588773141844" x2="67.33588773141844" y1="-87.53080528479472" y2="-87.53080528479472" stroke-width="3" stroke="#bfbfbf" stroke-linecap="round"></line><line x1="323.33588773141844" x2="323.33588773141844" y1="-87.53080528479472" y2="-87.53080528479472" stroke-width="3" stroke="#bfbfbf" stroke-linecap="round"></line><line x1="579.3358877314184" x2="579.3358877314184" y1="-87.53080528479472" y2="-87.53080528479472" stroke-width="3" stroke="#bfbfbf" stroke-linecap="round"></line><line x1="67.33588773141844" x2="67.33588773141844" y1="168.46919471520528" y2="168.46919471520528" stroke-width="3" stroke="#bfbfbf" stroke-linecap="round"></line><line x1="323.33588773141844" x2="323.33588773141844" y1="168.46919471520528" y2="168.46919471520528" stroke-width="3" stroke="#bfbfbf" stroke-linecap="round"></line><line x1="579.3358877314184" x2="579.3358877314184" y1="168.46919471520528" y2="168.46919471520528" stroke-width="3" stroke="#bfbfbf" stroke-linecap="round"></line><line x1="154.84489522849162" x2="154.84489522849162" y1="141.6608600677804" y2="141.6608600677804" stroke-width="3" stroke="#d2cfb8" stroke-linecap="round"></line><line x1="154.84489522849162" x2="154.84489522849162" y1="-370.3391399322196" y2="-370.3391399322196" stroke-width="3" stroke="#d2cfb8" stroke-linecap="round"></line><line x1="410.8448952284916" x2="410.8448952284916" y1="-370.3391399322196" y2="-370.3391399322196" stroke-width="3" stroke="#d2cfb8" stroke-linecap="round"></line><line x1="666.8448952284916" x2="666.8448952284916" y1="-370.3391399322196" y2="-370.3391399322196" stroke-width="3" stroke="#d2cfb8" stroke-linecap="round"></line><line x1="154.84489522849162" x2="154.84489522849162" y1="-114.33913993221961" y2="-114.33913993221961" stroke-width="3" stroke="#d2cfb8" stroke-linecap="round"></line><line x1="410.8448952284916" x2="410.8448952284916" y1="-114.33913993221961" y2="-114.33913993221961" stroke-width="3" stroke="#d2cfb8" stroke-linecap="round"></line><line x1="666.8448952284916" x2="666.8448952284916" y1="-114.33913993221961" y2="-114.33913993221961" stroke-width="3" stroke="#d2cfb8" stroke-linecap="round"></line><line x1="154.84489522849162" x2="154.84489522849162" y1="141.6608600677804" y2="141.6608600677804" stroke-width="3" stroke="#d2cfb8" stroke-linecap="round"></line><line x1="410.8448952284916" x2="410.8448952284916" y1="141.6608600677804" y2="141.6608600677804" stroke-width="3" stroke="#d2cfb8" stroke-linecap="round"></line><line x1="666.8448952284916" x2="666.8448952284916" y1="141.6608600677804" y2="141.6608600677804" stroke-width="3" stroke="#d2cfb8" stroke-linecap="round"></line><line x1="212.90267190616476" x2="212.90267190616476" y1="80.85160540893264" y2="80.85160540893264" stroke-width="3" stroke="#bfbfbf" stroke-linecap="round"></line><line x1="212.90267190616476" x2="212.90267190616476" y1="-431.14839459106736" y2="-431.14839459106736" stroke-width="3" stroke="#bfbfbf" stroke-linecap="round"></line><line x1="468.90267190616476" x2="468.90267190616476" y1="-431.14839459106736" y2="-431.14839459106736" stroke-width="3" stroke="#bfbfbf" stroke-linecap="round"></line><line x1="724.9026719061648" x2="724.9026719061648" y1="-431.14839459106736" y2="-431.14839459106736" stroke-width="3" stroke="#bfbfbf" stroke-linecap="round"></line><line x1="212.90267190616476" x2="212.90267190616476" y1="-175.14839459106736" y2="-175.14839459106736" stroke-width="3" stroke="#bfbfbf" stroke-linecap="round"></line><line x1="468.90267190616476" x2="468.90267190616476" y1="-175.14839459106736" y2="-175.14839459106736" stroke-width="3" stroke="#bfbfbf" stroke-linecap="round"></line><line x1="724.9026719061648" x2="724.9026719061648" y1="-175.14839459106736" y2="-175.14839459106736" stroke-width="3" stroke="#bfbfbf" stroke-linecap="round"></line><line x1="212.90267190616476" x2="212.90267190616476" y1="80.85160540893264" y2="80.85160540893264" stroke-width="3" stroke="#bfbfbf" stroke-linecap="round"></line><line x1="468.90267190616476" x2="468.90267190616476" y1="80.85160540893264" y2="80.85160540893264" stroke-width="3" stroke="#bfbfbf" stroke-linecap="round"></line><line x1="724.9026719061648" x2="724.9026719061648" y1="80.85160540893264" y2="80.85160540893264" stroke-width="3" stroke="#bfbfbf" stroke-linecap="round"></line><line x1="56.34698313737363" x2="56.34698313737363" y1="8.954446554862841" y2="8.954446554862841" stroke-width="3" stroke="#bfbfbf" stroke-linecap="round"></line><line x1="56.34698313737363" x2="56.34698313737363" y1="-503.04555344513716" y2="-503.04555344513716" stroke-width="3" stroke="#bfbfbf" stroke-linecap="round"></line><line x1="312.3469831373736" x2="312.3469831373736" y1="-503.04555344513716" y2="-503.04555344513716" stroke-width="3" stroke="#bfbfbf" stroke-linecap="round"></line><line x1="568.3469831373736" x2="568.3469831373736" y1="-503.04555344513716" y2="-503.04555344513716" stroke-width="3" stroke="#bfbfbf" stroke-linecap="round"></line><line x1="56.34698313737363" x2="56.34698313737363" y1="-247.04555344513716" y2="-247.04555344513716" stroke-width="3" stroke="#bfbfbf" stroke-linecap="round"></line><line x1="312.3469831373736" x2="312.3469831373736" y1="-247.04555344513716" y2="-247.04555344513716" stroke-width="3" stroke="#bfbfbf" stroke-linecap="round"></line><line x1="568.3469831373736" x2="568.3469831373736" y1="-247.04555344513716" y2="-247.04555344513716" stroke-width="3" stroke="#bfbfbf" stroke-linecap="round"></line><line x1="56.34698313737363" x2="56.34698313737363" y1="8.954446554862841" y2="8.954446554862841" stroke-width="3" stroke="#bfbfbf" stroke-linecap="round"></line><line x1="312.3469831373736" x2="312.3469831373736" y1="8.954446554862841" y2="8.954446554862841" stroke-width="3" stroke="#bfbfbf" stroke-linecap="round"></line><line x1="568.3469831373736" x2="568.3469831373736" y1="8.954446554862841" y2="8.954446554862841" stroke-width="3" stroke="#bfbfbf" stroke-linecap="round"></line><line x1="64.41399598411198" x2="64.41399598411198" y1="240.50254041897267" y2="240.50254041897267" stroke-width="3" stroke="#bfbfbf" stroke-linecap="round"></line><line x1="64.41399598411198" x2="64.41399598411198" y1="-271.49745958102733" y2="-271.49745958102733" stroke-width="3" stroke="#bfbfbf" stroke-linecap="round"></line><line x1="320.413995984112" x2="320.413995984112" y1="-271.49745958102733" y2="-271.49745958102733" stroke-width="3" stroke="#bfbfbf" stroke-linecap="round"></line><line x1="576.413995984112" x2="576.413995984112" y1="-271.49745958102733" y2="-271.49745958102733" stroke-width="3" stroke="#bfbfbf" stroke-linecap="round"></line><line x1="64.41399598411198" x2="64.41399598411198" y1="-15.497459581027329" y2="-15.497459581027329" stroke-width="3" stroke="#bfbfbf" stroke-linecap="round"></line><line x1="320.413995984112" x2="320.413995984112" y1="-15.497459581027329" y2="-15.497459581027329" stroke-width="3" stroke="#bfbfbf" stroke-linecap="round"></line><line x1="576.413995984112" x2="576.413995984112" y1="-15.497459581027329" y2="-15.497459581027329" stroke-width="3" stroke="#bfbfbf" stroke-linecap="round"></line><line x1="64.41399598411198" x2="64.41399598411198" y1="240.50254041897267" y2="240.50254041897267" stroke-width="3" stroke="#bfbfbf" stroke-linecap="round"></line><line x1="320.413995984112" x2="320.413995984112" y1="240.50254041897267" y2="240.50254041897267" stroke-width="3" stroke="#bfbfbf" stroke-linecap="round"></line><line x1="576.413995984112" x2="576.413995984112" y1="240.50254041897267" y2="240.50254041897267" stroke-width="3" stroke="#bfbfbf" stroke-linecap="round"></line><line x1="63.49871874733293" x2="63.49871874733293" y1="110.13880350179204" y2="110.13880350179204" stroke-width="3" stroke="#d2cfb8" stroke-linecap="round"></line><line x1="63.49871874733293" x2="63.49871874733293" y1="-401.86119649820796" y2="-401.86119649820796" stroke-width="3" stroke="#d2cfb8" stroke-linecap="round"></line><line x1="319.49871874733293" x2="319.49871874733293" y1="-401.86119649820796" y2="-401.86119649820796" stroke-width="3" stroke="#d2cfb8" stroke-linecap="round"></line><line x1="575.498718747333" x2="575.498718747333" y1="-401.86119649820796" y2="-401.86119649820796" stroke-width="3" stroke="#d2cfb8" stroke-linecap="round"></line><line x1="63.49871874733293" x2="63.49871874733293" y1="-145.86119649820796" y2="-145.86119649820796" stroke-width="3" stroke="#d2cfb8" stroke-linecap="round"></line><line x1="319.49871874733293" x2="319.49871874733293" y1="-145.86119649820796" y2="-145.86119649820796" stroke-width="3" stroke="#d2cfb8" stroke-linecap="round"></line><line x1="575.498718747333" x2="575.498718747333" y1="-145.86119649820796" y2="-145.86119649820796" stroke-width="3" stroke="#d2cfb8" stroke-linecap="round"></line><line x1="63.49871874733293" x2="63.49871874733293" y1="110.13880350179204" y2="110.13880350179204" stroke-width="3" stroke="#d2cfb8" stroke-linecap="round"></line><line x1="319.49871874733293" x2="319.49871874733293" y1="110.13880350179204" y2="110.13880350179204" stroke-width="3" stroke="#d2cfb8" stroke-linecap="round"></line><line x1="575.498718747333" x2="575.498718747333" y1="110.13880350179204" y2="110.13880350179204" stroke-width="3" stroke="#d2cfb8" stroke-linecap="round"></line><line x1="113.3944365277564" x2="113.3944365277564" y1="192.36507480487523" y2="192.36507480487523" stroke-width="3" stroke="#ffffff" stroke-linecap="round"></line><line x1="113.3944365277564" x2="113.3944365277564" y1="-319.63492519512477" y2="-319.63492519512477" stroke-width="3" stroke="#ffffff" stroke-linecap="round"></line><line x1="369.3944365277564" x2="369.3944365277564" y1="-319.63492519512477" y2="-319.63492519512477" stroke-width="3" stroke="#ffffff" stroke-linecap="round"></line><line x1="625.3944365277564" x2="625.3944365277564" y1="-319.63492519512477" y2="-319.63492519512477" stroke-width="3" stroke="#ffffff" stroke-linecap="round"></line><line x1="113.3944365277564" x2="113.3944365277564" y1="-63.634925195124765" y2="-63.634925195124765" stroke-width="3" stroke="#ffffff" stroke-linecap="round"></line><line x1="369.3944365277564" x2="369.3944365277564" y1="-63.634925195124765" y2="-63.634925195124765" stroke-width="3" stroke="#ffffff" stroke-linecap="round"></line><line x1="625.3944365277564" x2="625.3944365277564" y1="-63.634925195124765" y2="-63.634925195124765" stroke-width="3" stroke="#ffffff" stroke-linecap="round"></line><line x1="113.3944365277564" x2="113.3944365277564" y1="192.36507480487523" y2="192.36507480487523" stroke-width="3" stroke="#ffffff" stroke-linecap="round"></line><line x1="369.3944365277564" x2="369.3944365277564" y1="192.36507480487523" y2="192.36507480487523" stroke-width="3" stroke="#ffffff" stroke-linecap="round"></line><line x1="625.3944365277564" x2="625.3944365277564" y1="192.36507480487523" y2="192.36507480487523" stroke-width="3" stroke="#ffffff" stroke-linecap="round"></line><line x1="223.08069773871358" x2="223.08069773871358" y1="129.22320146173604" y2="129.22320146173604" stroke-width="3" stroke="#bfbfbf" stroke-linecap="round"></line><line x1="223.08069773871358" x2="223.08069773871358" y1="-382.77679853826396" y2="-382.77679853826396" stroke-width="3" stroke="#bfbfbf" stroke-linecap="round"></line><line x1="479.0806977387136" x2="479.0806977387136" y1="-382.77679853826396" y2="-382.77679853826396" stroke-width="3" stroke="#bfbfbf" stroke-linecap="round"></line><line x1="735.0806977387135" x2="735.0806977387135" y1="-382.77679853826396" y2="-382.77679853826396" stroke-width="3" stroke="#bfbfbf" stroke-linecap="round"></line><line x1="223.08069773871358" x2="223.08069773871358" y1="-126.77679853826396" y2="-126.77679853826396" stroke-width="3" stroke="#bfbfbf" stroke-linecap="round"></line><line x1="479.0806977387136" x2="479.0806977387136" y1="-126.77679853826396" y2="-126.77679853826396" stroke-width="3" stroke="#bfbfbf" stroke-linecap="round"></line><line x1="735.0806977387135" x2="735.0806977387135" y1="-126.77679853826396" y2="-126.77679853826396" stroke-width="3" stroke="#bfbfbf" stroke-linecap="round"></line><line x1="223.08069773871358" x2="223.08069773871358" y1="129.22320146173604" y2="129.22320146173604" stroke-width="3" stroke="#bfbfbf" stroke-linecap="round"></line><line x1="479.0806977387136" x2="479.0806977387136" y1="129.22320146173604" y2="129.22320146173604" stroke-width="3" stroke="#bfbfbf" stroke-linecap="round"></line><line x1="735.0806977387135" x2="735.0806977387135" y1="129.22320146173604" y2="129.22320146173604" stroke-width="3" stroke="#bfbfbf" stroke-linecap="round"></line>
  <animateTransform attributeName="transform" type="translate" values="0 0;-256 256" keyTimes="0;1" repeatCount="indefinite" dur="10s"></animateTransform>
</g><g>
  <line x1="57.63320924951495" x2="57.63320924951495" y1="157.9216393749315" y2="157.9216393749315" stroke-width="3" stroke="#d2cfb8" stroke-linecap="round"></line><line x1="57.63320924951495" x2="57.63320924951495" y1="-354.0783606250685" y2="-354.0783606250685" stroke-width="3" stroke="#d2cfb8" stroke-linecap="round"></line><line x1="313.63320924951495" x2="313.63320924951495" y1="-354.0783606250685" y2="-354.0783606250685" stroke-width="3" stroke="#d2cfb8" stroke-linecap="round"></line><line x1="569.633209249515" x2="569.633209249515" y1="-354.0783606250685" y2="-354.0783606250685" stroke-width="3" stroke="#d2cfb8" stroke-linecap="round"></line><line x1="57.63320924951495" x2="57.63320924951495" y1="-98.07836062506851" y2="-98.07836062506851" stroke-width="3" stroke="#d2cfb8" stroke-linecap="round"></line><line x1="313.63320924951495" x2="313.63320924951495" y1="-98.07836062506851" y2="-98.07836062506851" stroke-width="3" stroke="#d2cfb8" stroke-linecap="round"></line><line x1="569.633209249515" x2="569.633209249515" y1="-98.07836062506851" y2="-98.07836062506851" stroke-width="3" stroke="#d2cfb8" stroke-linecap="round"></line><line x1="57.63320924951495" x2="57.63320924951495" y1="157.9216393749315" y2="157.9216393749315" stroke-width="3" stroke="#d2cfb8" stroke-linecap="round"></line><line x1="313.63320924951495" x2="313.63320924951495" y1="157.9216393749315" y2="157.9216393749315" stroke-width="3" stroke="#d2cfb8" stroke-linecap="round"></line><line x1="569.633209249515" x2="569.633209249515" y1="157.9216393749315" y2="157.9216393749315" stroke-width="3" stroke="#d2cfb8" stroke-linecap="round"></line><line x1="108.09978126755743" x2="108.09978126755743" y1="41.64230587750626" y2="41.64230587750626" stroke-width="3" stroke="#d2cfb8" stroke-linecap="round"></line><line x1="108.09978126755743" x2="108.09978126755743" y1="-470.35769412249374" y2="-470.35769412249374" stroke-width="3" stroke="#d2cfb8" stroke-linecap="round"></line><line x1="364.09978126755743" x2="364.09978126755743" y1="-470.35769412249374" y2="-470.35769412249374" stroke-width="3" stroke="#d2cfb8" stroke-linecap="round"></line><line x1="620.0997812675574" x2="620.0997812675574" y1="-470.35769412249374" y2="-470.35769412249374" stroke-width="3" stroke="#d2cfb8" stroke-linecap="round"></line><line x1="108.09978126755743" x2="108.09978126755743" y1="-214.35769412249374" y2="-214.35769412249374" stroke-width="3" stroke="#d2cfb8" stroke-linecap="round"></line><line x1="364.09978126755743" x2="364.09978126755743" y1="-214.35769412249374" y2="-214.35769412249374" stroke-width="3" stroke="#d2cfb8" stroke-linecap="round"></line><line x1="620.0997812675574" x2="620.0997812675574" y1="-214.35769412249374" y2="-214.35769412249374" stroke-width="3" stroke="#d2cfb8" stroke-linecap="round"></line><line x1="108.09978126755743" x2="108.09978126755743" y1="41.64230587750626" y2="41.64230587750626" stroke-width="3" stroke="#d2cfb8" stroke-linecap="round"></line><line x1="364.09978126755743" x2="364.09978126755743" y1="41.64230587750626" y2="41.64230587750626" stroke-width="3" stroke="#d2cfb8" stroke-linecap="round"></line><line x1="620.0997812675574" x2="620.0997812675574" y1="41.64230587750626" y2="41.64230587750626" stroke-width="3" stroke="#d2cfb8" stroke-linecap="round"></line><line x1="24.612352959161797" x2="24.612352959161797" y1="59.07884619170051" y2="59.07884619170051" stroke-width="3" stroke="#d2cfb8" stroke-linecap="round"></line><line x1="24.612352959161797" x2="24.612352959161797" y1="-452.9211538082995" y2="-452.9211538082995" stroke-width="3" stroke="#d2cfb8" stroke-linecap="round"></line><line x1="280.6123529591618" x2="280.6123529591618" y1="-452.9211538082995" y2="-452.9211538082995" stroke-width="3" stroke="#d2cfb8" stroke-linecap="round"></line><line x1="536.6123529591619" x2="536.6123529591619" y1="-452.9211538082995" y2="-452.9211538082995" stroke-width="3" stroke="#d2cfb8" stroke-linecap="round"></line><line x1="24.612352959161797" x2="24.612352959161797" y1="-196.9211538082995" y2="-196.9211538082995" stroke-width="3" stroke="#d2cfb8" stroke-linecap="round"></line><line x1="280.6123529591618" x2="280.6123529591618" y1="-196.9211538082995" y2="-196.9211538082995" stroke-width="3" stroke="#d2cfb8" stroke-linecap="round"></line><line x1="536.6123529591619" x2="536.6123529591619" y1="-196.9211538082995" y2="-196.9211538082995" stroke-width="3" stroke="#d2cfb8" stroke-linecap="round"></line><line x1="24.612352959161797" x2="24.612352959161797" y1="59.07884619170051" y2="59.07884619170051" stroke-width="3" stroke="#d2cfb8" stroke-linecap="round"></line><line x1="280.6123529591618" x2="280.6123529591618" y1="59.07884619170051" y2="59.07884619170051" stroke-width="3" stroke="#d2cfb8" stroke-linecap="round"></line><line x1="536.6123529591619" x2="536.6123529591619" y1="59.07884619170051" y2="59.07884619170051" stroke-width="3" stroke="#d2cfb8" stroke-linecap="round"></line><line x1="0.3391535503211003" x2="0.3391535503211003" y1="173.80855323077003" y2="173.80855323077003" stroke-width="3" stroke="#d2cfb8" stroke-linecap="round"></line><line x1="0.3391535503211003" x2="0.3391535503211003" y1="-338.19144676922997" y2="-338.19144676922997" stroke-width="3" stroke="#d2cfb8" stroke-linecap="round"></line><line x1="256.3391535503211" x2="256.3391535503211" y1="-338.19144676922997" y2="-338.19144676922997" stroke-width="3" stroke="#d2cfb8" stroke-linecap="round"></line><line x1="512.339153550321" x2="512.339153550321" y1="-338.19144676922997" y2="-338.19144676922997" stroke-width="3" stroke="#d2cfb8" stroke-linecap="round"></line><line x1="0.3391535503211003" x2="0.3391535503211003" y1="-82.19144676922997" y2="-82.19144676922997" stroke-width="3" stroke="#d2cfb8" stroke-linecap="round"></line><line x1="256.3391535503211" x2="256.3391535503211" y1="-82.19144676922997" y2="-82.19144676922997" stroke-width="3" stroke="#d2cfb8" stroke-linecap="round"></line><line x1="512.339153550321" x2="512.339153550321" y1="-82.19144676922997" y2="-82.19144676922997" stroke-width="3" stroke="#d2cfb8" stroke-linecap="round"></line><line x1="0.3391535503211003" x2="0.3391535503211003" y1="173.80855323077003" y2="173.80855323077003" stroke-width="3" stroke="#d2cfb8" stroke-linecap="round"></line><line x1="256.3391535503211" x2="256.3391535503211" y1="173.80855323077003" y2="173.80855323077003" stroke-width="3" stroke="#d2cfb8" stroke-linecap="round"></line><line x1="512.339153550321" x2="512.339153550321" y1="173.80855323077003" y2="173.80855323077003" stroke-width="3" stroke="#d2cfb8" stroke-linecap="round"></line><line x1="169.0505617177834" x2="169.0505617177834" y1="133.2650734334744" y2="133.2650734334744" stroke-width="3" stroke="#d2cfb8" stroke-linecap="round"></line><line x1="169.0505617177834" x2="169.0505617177834" y1="-378.7349265665256" y2="-378.7349265665256" stroke-width="3" stroke="#d2cfb8" stroke-linecap="round"></line><line x1="425.0505617177834" x2="425.0505617177834" y1="-378.7349265665256" y2="-378.7349265665256" stroke-width="3" stroke="#d2cfb8" stroke-linecap="round"></line><line x1="681.0505617177835" x2="681.0505617177835" y1="-378.7349265665256" y2="-378.7349265665256" stroke-width="3" stroke="#d2cfb8" stroke-linecap="round"></line><line x1="169.0505617177834" x2="169.0505617177834" y1="-122.73492656652559" y2="-122.73492656652559" stroke-width="3" stroke="#d2cfb8" stroke-linecap="round"></line><line x1="425.0505617177834" x2="425.0505617177834" y1="-122.73492656652559" y2="-122.73492656652559" stroke-width="3" stroke="#d2cfb8" stroke-linecap="round"></line><line x1="681.0505617177835" x2="681.0505617177835" y1="-122.73492656652559" y2="-122.73492656652559" stroke-width="3" stroke="#d2cfb8" stroke-linecap="round"></line><line x1="169.0505617177834" x2="169.0505617177834" y1="133.2650734334744" y2="133.2650734334744" stroke-width="3" stroke="#d2cfb8" stroke-linecap="round"></line><line x1="425.0505617177834" x2="425.0505617177834" y1="133.2650734334744" y2="133.2650734334744" stroke-width="3" stroke="#d2cfb8" stroke-linecap="round"></line><line x1="681.0505617177835" x2="681.0505617177835" y1="133.2650734334744" y2="133.2650734334744" stroke-width="3" stroke="#d2cfb8" stroke-linecap="round"></line><line x1="161.33476607848024" x2="161.33476607848024" y1="68.11734881133526" y2="68.11734881133526" stroke-width="3" stroke="#ffffff" stroke-linecap="round"></line><line x1="161.33476607848024" x2="161.33476607848024" y1="-443.88265118866474" y2="-443.88265118866474" stroke-width="3" stroke="#ffffff" stroke-linecap="round"></line><line x1="417.33476607848024" x2="417.33476607848024" y1="-443.88265118866474" y2="-443.88265118866474" stroke-width="3" stroke="#ffffff" stroke-linecap="round"></line><line x1="673.3347660784802" x2="673.3347660784802" y1="-443.88265118866474" y2="-443.88265118866474" stroke-width="3" stroke="#ffffff" stroke-linecap="round"></line><line x1="161.33476607848024" x2="161.33476607848024" y1="-187.88265118866474" y2="-187.88265118866474" stroke-width="3" stroke="#ffffff" stroke-linecap="round"></line><line x1="417.33476607848024" x2="417.33476607848024" y1="-187.88265118866474" y2="-187.88265118866474" stroke-width="3" stroke="#ffffff" stroke-linecap="round"></line><line x1="673.3347660784802" x2="673.3347660784802" y1="-187.88265118866474" y2="-187.88265118866474" stroke-width="3" stroke="#ffffff" stroke-linecap="round"></line><line x1="161.33476607848024" x2="161.33476607848024" y1="68.11734881133526" y2="68.11734881133526" stroke-width="3" stroke="#ffffff" stroke-linecap="round"></line><line x1="417.33476607848024" x2="417.33476607848024" y1="68.11734881133526" y2="68.11734881133526" stroke-width="3" stroke="#ffffff" stroke-linecap="round"></line><line x1="673.3347660784802" x2="673.3347660784802" y1="68.11734881133526" y2="68.11734881133526" stroke-width="3" stroke="#ffffff" stroke-linecap="round"></line><line x1="54.88110156259603" x2="54.88110156259603" y1="2.7608852379568134" y2="2.7608852379568134" stroke-width="3" stroke="#d2cfb8" stroke-linecap="round"></line><line x1="54.88110156259603" x2="54.88110156259603" y1="-509.2391147620432" y2="-509.2391147620432" stroke-width="3" stroke="#d2cfb8" stroke-linecap="round"></line><line x1="310.88110156259603" x2="310.88110156259603" y1="-509.2391147620432" y2="-509.2391147620432" stroke-width="3" stroke="#d2cfb8" stroke-linecap="round"></line><line x1="566.8811015625961" x2="566.8811015625961" y1="-509.2391147620432" y2="-509.2391147620432" stroke-width="3" stroke="#d2cfb8" stroke-linecap="round"></line><line x1="54.88110156259603" x2="54.88110156259603" y1="-253.2391147620432" y2="-253.2391147620432" stroke-width="3" stroke="#d2cfb8" stroke-linecap="round"></line><line x1="310.88110156259603" x2="310.88110156259603" y1="-253.2391147620432" y2="-253.2391147620432" stroke-width="3" stroke="#d2cfb8" stroke-linecap="round"></line><line x1="566.8811015625961" x2="566.8811015625961" y1="-253.2391147620432" y2="-253.2391147620432" stroke-width="3" stroke="#d2cfb8" stroke-linecap="round"></line><line x1="54.88110156259603" x2="54.88110156259603" y1="2.7608852379568134" y2="2.7608852379568134" stroke-width="3" stroke="#d2cfb8" stroke-linecap="round"></line><line x1="310.88110156259603" x2="310.88110156259603" y1="2.7608852379568134" y2="2.7608852379568134" stroke-width="3" stroke="#d2cfb8" stroke-linecap="round"></line><line x1="566.8811015625961" x2="566.8811015625961" y1="2.7608852379568134" y2="2.7608852379568134" stroke-width="3" stroke="#d2cfb8" stroke-linecap="round"></line><line x1="81.9116745895941" x2="81.9116745895941" y1="228.6101878803143" y2="228.6101878803143" stroke-width="3" stroke="#bfbfbf" stroke-linecap="round"></line><line x1="81.9116745895941" x2="81.9116745895941" y1="-283.3898121196857" y2="-283.3898121196857" stroke-width="3" stroke="#bfbfbf" stroke-linecap="round"></line><line x1="337.9116745895941" x2="337.9116745895941" y1="-283.3898121196857" y2="-283.3898121196857" stroke-width="3" stroke="#bfbfbf" stroke-linecap="round"></line><line x1="593.9116745895941" x2="593.9116745895941" y1="-283.3898121196857" y2="-283.3898121196857" stroke-width="3" stroke="#bfbfbf" stroke-linecap="round"></line><line x1="81.9116745895941" x2="81.9116745895941" y1="-27.3898121196857" y2="-27.3898121196857" stroke-width="3" stroke="#bfbfbf" stroke-linecap="round"></line><line x1="337.9116745895941" x2="337.9116745895941" y1="-27.3898121196857" y2="-27.3898121196857" stroke-width="3" stroke="#bfbfbf" stroke-linecap="round"></line><line x1="593.9116745895941" x2="593.9116745895941" y1="-27.3898121196857" y2="-27.3898121196857" stroke-width="3" stroke="#bfbfbf" stroke-linecap="round"></line><line x1="81.9116745895941" x2="81.9116745895941" y1="228.6101878803143" y2="228.6101878803143" stroke-width="3" stroke="#bfbfbf" stroke-linecap="round"></line><line x1="337.9116745895941" x2="337.9116745895941" y1="228.6101878803143" y2="228.6101878803143" stroke-width="3" stroke="#bfbfbf" stroke-linecap="round"></line><line x1="593.9116745895941" x2="593.9116745895941" y1="228.6101878803143" y2="228.6101878803143" stroke-width="3" stroke="#bfbfbf" stroke-linecap="round"></line><line x1="213.76200201617087" x2="213.76200201617087" y1="0.49762558474839125" y2="0.49762558474839125" stroke-width="3" stroke="#d2cfb8" stroke-linecap="round"></line><line x1="213.76200201617087" x2="213.76200201617087" y1="-511.5023744152516" y2="-511.5023744152516" stroke-width="3" stroke="#d2cfb8" stroke-linecap="round"></line><line x1="469.76200201617087" x2="469.76200201617087" y1="-511.5023744152516" y2="-511.5023744152516" stroke-width="3" stroke="#d2cfb8" stroke-linecap="round"></line><line x1="725.7620020161709" x2="725.7620020161709" y1="-511.5023744152516" y2="-511.5023744152516" stroke-width="3" stroke="#d2cfb8" stroke-linecap="round"></line><line x1="213.76200201617087" x2="213.76200201617087" y1="-255.5023744152516" y2="-255.5023744152516" stroke-width="3" stroke="#d2cfb8" stroke-linecap="round"></line><line x1="469.76200201617087" x2="469.76200201617087" y1="-255.5023744152516" y2="-255.5023744152516" stroke-width="3" stroke="#d2cfb8" stroke-linecap="round"></line><line x1="725.7620020161709" x2="725.7620020161709" y1="-255.5023744152516" y2="-255.5023744152516" stroke-width="3" stroke="#d2cfb8" stroke-linecap="round"></line><line x1="213.76200201617087" x2="213.76200201617087" y1="0.49762558474839125" y2="0.49762558474839125" stroke-width="3" stroke="#d2cfb8" stroke-linecap="round"></line><line x1="469.76200201617087" x2="469.76200201617087" y1="0.49762558474839125" y2="0.49762558474839125" stroke-width="3" stroke="#d2cfb8" stroke-linecap="round"></line><line x1="725.7620020161709" x2="725.7620020161709" y1="0.49762558474839125" y2="0.49762558474839125" stroke-width="3" stroke="#d2cfb8" stroke-linecap="round"></line><line x1="1.3733794709382892" x2="1.3733794709382892" y1="140.34381434343953" y2="140.34381434343953" stroke-width="3" stroke="#d2cfb8" stroke-linecap="round"></line><line x1="1.3733794709382892" x2="1.3733794709382892" y1="-371.65618565656047" y2="-371.65618565656047" stroke-width="3" stroke="#d2cfb8" stroke-linecap="round"></line><line x1="257.3733794709383" x2="257.3733794709383" y1="-371.65618565656047" y2="-371.65618565656047" stroke-width="3" stroke="#d2cfb8" stroke-linecap="round"></line><line x1="513.3733794709383" x2="513.3733794709383" y1="-371.65618565656047" y2="-371.65618565656047" stroke-width="3" stroke="#d2cfb8" stroke-linecap="round"></line><line x1="1.3733794709382892" x2="1.3733794709382892" y1="-115.65618565656047" y2="-115.65618565656047" stroke-width="3" stroke="#d2cfb8" stroke-linecap="round"></line><line x1="257.3733794709383" x2="257.3733794709383" y1="-115.65618565656047" y2="-115.65618565656047" stroke-width="3" stroke="#d2cfb8" stroke-linecap="round"></line><line x1="513.3733794709383" x2="513.3733794709383" y1="-115.65618565656047" y2="-115.65618565656047" stroke-width="3" stroke="#d2cfb8" stroke-linecap="round"></line><line x1="1.3733794709382892" x2="1.3733794709382892" y1="140.34381434343953" y2="140.34381434343953" stroke-width="3" stroke="#d2cfb8" stroke-linecap="round"></line><line x1="257.3733794709383" x2="257.3733794709383" y1="140.34381434343953" y2="140.34381434343953" stroke-width="3" stroke="#d2cfb8" stroke-linecap="round"></line><line x1="513.3733794709383" x2="513.3733794709383" y1="140.34381434343953" y2="140.34381434343953" stroke-width="3" stroke="#d2cfb8" stroke-linecap="round"></line>
  <animateTransform attributeName="transform" type="translate" values="0 0;-256 256" keyTimes="0;1" repeatCount="indefinite" dur="6.666666666666666s"></animateTransform>
</g></g></svg>