
        <svg
          className="saber-emitter"
          width={324 * multiplier}
          height={248 * multiplier}
          viewBox="1.5 -1 324 250"
          fill="none"
          xmlns="http://www.w3.org/2000/svg"
        >
          {getDefs()}

          <rect width="324" height="248" fill="transparent" />
 
<rect x="1" width="324" height="248" fill="url(#copper-vertical)"/>
<rect x="2" y="67" width="277" height="119" stroke="black" stroke-width="2"/>
<path d="M303.049 62C305.486 62 305.805 65.5307 303.408 65.9676L276.688 70.8378C258.801 74.098 247.826 92.304 253.294 109.643V109.643V109.643C265.903 114.588 267.17 131.933 255.412 138.657L253.294 139.869V139.869C248.726 156.089 258.803 172.796 275.281 176.322L306.691 183.044C309.037 183.546 308.672 187 306.272 187H243C240.239 187 238 184.761 238 182V67C238 64.2386 240.239 62 243 62H303.049Z" fill="url(#copper-vertical)" stroke="black"/>
<path d="M245.201 68.8444L243.846 79.9555L244.56 82.2967L249.113 89.9757L249.405 87.5143C250.516 78.1571 257.862 70.7623 267.212 69.5903L279.614 68.0357C279.637 68.0327 279.659 68.02 279.673 68.0007C280.846 66.3704 279.645 64.1019 277.638 64.1546L249.55 64.8909C247.321 64.9494 245.471 66.6311 245.201 68.8444Z" fill={bodyColor} stroke="black"/>
<path d="M244.523 166.265L244.552 166.218L244.571 166.166L246.826 159.746L248.038 164.899C249.957 173.06 256.652 179.229 264.942 180.477L287.39 183.856C287.634 183.893 287.815 184.103 287.815 184.35V184.976C287.815 185.257 287.584 185.483 287.304 185.476L249.437 184.598C247.179 184.545 245.309 182.826 245.067 180.58L243.674 167.624L244.523 166.265Z" fill={bodyColor} stroke="black"/>
<path d="M6 67H200C221.539 67 239 84.4609 239 106V147C239 168.539 221.539 186 200 186H6C3.79086 186 2 184.209 2 182V71C2 68.7909 3.79086 67 6 67Z" fill={bodyColor} stroke="black" stroke-width="2"/>
<path d="M192.583 181.413L205.472 178.468C204.083 168.895 212.581 160.722 222.167 162.6L223.722 162.904L228.226 150.974L230.685 144.461C235.046 132.909 234.932 120.145 230.366 108.672L228.229 103.305L223.734 92.0111L222.659 92.2523C212.932 94.4357 204.093 86.1963 205.478 76.418L192.561 72.8518L180.094 69.4098C177.287 68.6348 177.847 64.5 180.759 64.5H210.361C211.816 64.5 213.264 64.7049 214.662 65.1087L227.301 68.7592C233.934 70.675 238.5 76.7466 238.5 83.6506L238.5 168.294C238.5 174.838 234.391 180.676 228.231 182.885L215.107 187.591C213.429 188.192 211.659 188.5 209.876 188.5H183.732C180.754 188.5 180.272 184.226 183.175 183.563L192.583 181.413Z" fill="url(#copper-vertical)" stroke="black"/>
<path d="M91.423 64H74.9851C74.4143 64 73.8706 64.2439 73.4911 64.6704L69.7309 68.8956C69.5867 69.0576 69.4991 69.2621 69.4813 69.4783L69.1813 73.1188C69.1107 73.9757 70.083 74.5163 70.7737 74.0041L76.6316 69.6598L78.0469 74.3116C78.2934 75.1218 79.3724 75.2779 79.8385 74.5709L80.5817 73.4436C81.0419 72.7455 82.1046 72.8868 82.3663 73.6809L82.6866 74.6525C82.7199 74.7535 82.7368 74.8592 82.7368 74.9655V79.4197C82.7368 79.4723 82.723 79.524 82.6968 79.5696L81.9115 80.9345C81.1787 82.2082 79.7528 82.9174 78.2949 82.7331L77.4922 82.6316C76.946 82.5626 76.4572 82.2582 76.1541 81.7985C75.8156 81.285 75.7487 80.6387 75.9749 80.0668L76.5056 78.7253C76.566 78.5724 76.4534 78.4066 76.2889 78.4066H74.7786C73.7195 78.4066 72.7389 78.9651 72.1985 79.8759L72.1294 79.9923C71.7524 80.6278 71.6231 81.3801 71.7665 82.105L72.0104 83.3381C72.9895 88.2891 76.3928 92.4159 81.0668 94.3197L82.7368 95V110.5L80.193 120.083L74.0877 126L80.7018 131.917L83.2456 141.5V157L81.5756 157.68C76.9016 159.584 73.4983 163.711 72.5191 168.662L72.2753 169.895C72.1319 170.62 72.2611 171.372 72.6382 172.008L72.7072 172.124C73.2476 173.035 74.2283 173.593 75.2873 173.593H76.7977C76.9621 173.593 77.0748 173.428 77.0143 173.275L76.4837 171.933C76.2575 171.361 76.3244 170.715 76.6629 170.201C76.9659 169.742 77.4548 169.437 78.001 169.368L78.8037 169.267C80.2616 169.083 81.6875 169.792 82.4203 171.065L83.2056 172.43C83.2318 172.476 83.2456 172.528 83.2456 172.58V177.034C83.2456 177.141 83.2286 177.246 83.1954 177.348L82.8751 178.319C82.6134 179.113 81.5506 179.255 81.0905 178.556L80.3473 177.429C79.8812 176.722 78.8022 176.878 78.5557 177.688L77.1404 182.34L71.2824 177.996C70.5918 177.484 69.6195 178.024 69.6901 178.881L69.9901 182.522C70.0079 182.738 70.0955 182.942 70.2397 183.104L73.9999 187.33C74.3794 187.756 74.9231 188 75.4939 188H91.9318C92.5419 188 93.1187 187.721 93.4981 187.244L96.8211 183.058C96.9269 182.925 96.997 182.767 97.0246 182.599L97.5543 179.385C97.706 178.465 96.6262 177.856 95.9174 178.463L91.386 182.34L90.3806 177.935C90.1848 177.076 89.0554 176.872 88.5708 177.607L87.9446 178.556C87.4844 179.255 86.4217 179.113 86.16 178.319L85.8397 177.348C85.8064 177.246 85.7895 177.141 85.7895 177.034V172.55C85.7895 172.517 85.7962 172.484 85.8093 172.454L86.4467 170.977C86.9569 169.794 88.2089 169.113 89.479 169.327L89.5587 169.341C90.0852 169.429 90.5704 169.681 90.9458 170.061C91.5393 170.661 91.7967 171.517 91.6329 172.345L91.4384 173.328C91.4112 173.466 91.5162 173.593 91.656 173.593H93.0673C93.9299 173.593 94.7416 173.185 95.2555 172.492C95.7078 171.882 95.885 171.111 95.7445 170.365L95.3663 168.357C94.4654 163.574 91.2994 159.525 86.8744 157.497L85.7895 157V141.5L88.3333 131.917L94.4386 126L88.3333 119.951L85.2807 110.5V95L86.3656 94.5029C90.7906 92.4751 93.9566 88.4262 94.8576 83.6428L95.2357 81.6351C95.3762 80.889 95.199 80.118 94.7467 79.5081C94.2328 78.8152 93.4212 78.4066 92.5585 78.4066H91.1472C91.0074 78.4066 90.9025 78.5344 90.9296 78.6715L91.1241 79.6552C91.2879 80.4833 91.0305 81.3387 90.437 81.939C90.0616 82.3186 89.5764 82.5706 89.05 82.6593L88.9702 82.6727C87.7002 82.8868 86.4482 82.2057 85.9379 81.0231L85.3005 79.546C85.2875 79.5156 85.2807 79.483 85.2807 79.4499V74.9655C85.2807 74.8592 85.2977 74.7535 85.331 74.6525L85.6512 73.6809C85.9129 72.8868 86.9757 72.7455 87.4359 73.4435L88.062 74.3934C88.5466 75.1285 89.676 74.9238 89.8719 74.0655L90.8772 69.6598L95.4087 73.5374C96.1174 74.1439 97.1972 73.5354 97.0455 72.615L96.5159 69.4012C96.4882 69.2333 96.4182 69.0753 96.3124 68.942L92.9894 64.7564C92.61 64.2785 92.0332 64 91.423 64Z" fill="url(#copper-vertical)" stroke="black"/>
<path d="M168.423 64H151.985C151.414 64 150.871 64.2439 150.491 64.6704L146.731 68.8956C146.587 69.0576 146.499 69.2621 146.481 69.4783L146.181 73.1188C146.111 73.9757 147.083 74.5163 147.774 74.0041L153.632 69.6598L155.047 74.3116C155.293 75.1218 156.372 75.2779 156.839 74.5709L157.582 73.4436C158.042 72.7455 159.105 72.8868 159.366 73.6809L159.687 74.6525C159.72 74.7535 159.737 74.8592 159.737 74.9655V79.4197C159.737 79.4723 159.723 79.524 159.697 79.5696L158.912 80.9345C158.179 82.2082 156.753 82.9174 155.295 82.7331L154.492 82.6316C153.946 82.5626 153.457 82.2582 153.154 81.7985C152.816 81.285 152.749 80.6387 152.975 80.0668L153.506 78.7253C153.566 78.5724 153.453 78.4066 153.289 78.4066H151.779C150.719 78.4066 149.739 78.9651 149.198 79.8759L149.129 79.9923C148.752 80.6278 148.623 81.3801 148.767 82.105L149.01 83.3381C149.989 88.2891 153.393 92.4159 158.067 94.3197L159.737 95V110.5L157.193 120.083L151.088 126L157.702 131.917L160.246 141.5V157L158.576 157.68C153.902 159.584 150.498 163.711 149.519 168.662L149.275 169.895C149.132 170.62 149.261 171.372 149.638 172.008L149.707 172.124C150.248 173.035 151.228 173.593 152.287 173.593H153.798C153.962 173.593 154.075 173.428 154.014 173.275L153.484 171.933C153.258 171.361 153.324 170.715 153.663 170.201C153.966 169.742 154.455 169.437 155.001 169.368L155.804 169.267C157.262 169.083 158.688 169.792 159.42 171.065L160.206 172.43C160.232 172.476 160.246 172.528 160.246 172.58V177.034C160.246 177.141 160.229 177.246 160.195 177.348L159.875 178.319C159.613 179.113 158.551 179.255 158.09 178.556L157.347 177.429C156.881 176.722 155.802 176.878 155.556 177.688L154.14 182.34L148.282 177.996C147.592 177.484 146.62 178.024 146.69 178.881L146.99 182.522C147.008 182.738 147.096 182.942 147.24 183.104L151 187.33C151.379 187.756 151.923 188 152.494 188H168.932C169.542 188 170.119 187.721 170.498 187.244L173.821 183.058C173.927 182.925 173.997 182.767 174.025 182.599L174.554 179.385C174.706 178.465 173.626 177.856 172.917 178.463L168.386 182.34L167.381 177.935C167.185 177.076 166.055 176.872 165.571 177.607L164.945 178.556C164.484 179.255 163.422 179.113 163.16 178.319L162.84 177.348C162.806 177.246 162.789 177.141 162.789 177.034V172.55C162.789 172.517 162.796 172.484 162.809 172.454L163.447 170.977C163.957 169.794 165.209 169.113 166.479 169.327L166.559 169.341C167.085 169.429 167.57 169.681 167.946 170.061C168.539 170.661 168.797 171.517 168.633 172.345L168.438 173.328C168.411 173.466 168.516 173.593 168.656 173.593H170.067C170.93 173.593 171.742 173.185 172.255 172.492C172.708 171.882 172.885 171.111 172.744 170.365L172.366 168.357C171.465 163.574 168.299 159.525 163.874 157.497L162.789 157V141.5L165.333 131.917L171.439 126L165.333 119.951L162.281 110.5V95L163.366 94.5029C167.791 92.4751 170.957 88.4262 171.858 83.6428L172.236 81.6351C172.376 80.889 172.199 80.118 171.747 79.5081C171.233 78.8152 170.421 78.4066 169.559 78.4066H168.147C168.007 78.4066 167.902 78.5344 167.93 78.6715L168.124 79.6552C168.288 80.4833 168.031 81.3387 167.437 81.939C167.062 82.3186 166.576 82.5706 166.05 82.6593L165.97 82.6727C164.7 82.8868 163.448 82.2057 162.938 81.0231L162.301 79.546C162.287 79.5156 162.281 79.483 162.281 79.4499V74.9655C162.281 74.8592 162.298 74.7535 162.331 74.6525L162.651 73.6809C162.913 72.8868 163.976 72.7455 164.436 73.4435L165.062 74.3934C165.547 75.1285 166.676 74.9238 166.872 74.0655L167.877 69.6598L172.409 73.5374C173.117 74.1439 174.197 73.5354 174.046 72.615L173.516 69.4012C173.488 69.2333 173.418 69.0753 173.312 68.942L169.989 64.7564C169.61 64.2785 169.033 64 168.423 64Z" fill="url(#copper-vertical)" stroke="black"/>
<path d="M44.8167 64C46.9369 64 47.3473 67.0092 45.3045 67.5769L36.4124 70.0481C18.325 75.0747 7.22849 93.2597 11.0308 111.643V111.643V111.643C21.1777 117.71 22.4467 131.914 13.5361 139.684L11.0308 141.869V141.869C7.86444 159.011 17.8755 175.851 34.4481 181.258L46.4173 185.163C48.5452 185.858 48.0455 189 45.8072 189H6C3.23857 189 1 186.761 1 184V69C1 66.2386 3.23858 64 6 64H44.8167Z" fill="url(#copper-vertical)" stroke="black"/>
<path d="M5.87395 71.4526L5.0041 81.971L5.48008 84.3509L7.71886 89.5747L7.95565 87.5229C8.92231 79.1466 14.9194 72.2164 23.0701 70.0569L29.9876 68.2241C30.2068 68.166 30.3595 67.9676 30.3595 67.7407V67.0408C30.3595 66.7568 30.1233 66.5298 29.8395 66.5412L10.1789 67.3271C7.90801 67.4179 6.06125 69.1876 5.87395 71.4526Z" fill={bodyColor} stroke="black"/>
<path d="M5.46268 168.19L5.4781 168.152L5.48723 168.112L6.75376 162.616L7.37356 166.634C8.65361 174.932 14.8647 181.611 23.0484 183.489L33.1118 185.799C33.339 185.851 33.5 186.053 33.5 186.286V186.964C33.5 187.247 33.2652 187.474 32.9823 187.464L10.129 186.655C7.82911 186.574 5.96122 184.77 5.79925 182.475L4.88997 169.588L5.46268 168.19Z" fill={bodyColor} stroke="black"/>
<path d="M252.5 124.5C252.5 129.949 249.15 134.697 244 134.986V134.983V134.944V134.906V134.868V134.83V134.792V134.754V134.717V134.679V134.642V134.605V134.569V134.532V134.496V134.46V134.424V134.388V134.352V134.316V134.281V134.246V134.211V134.176V134.141V134.107V134.072V134.038V134.004V133.97V133.936V133.903V133.869V133.836V133.803V133.77V133.737V133.705V133.672V133.64V133.608V133.576V133.544V133.512V133.481V133.449V133.418V133.387V133.356V133.325V133.295V133.264V133.234V133.204V133.174V133.144V133.114V133.084V133.055V133.026V132.996V132.967V132.938V132.91V132.881V132.853V132.824V132.796V132.768V132.74V132.712V132.684V132.657V132.629V132.602V132.575V132.548V132.521V132.494V132.468V132.441V132.415V132.388V132.362V132.336V132.31V132.285V132.259V132.233V132.208V132.183V132.158V132.133V132.108V132.083V132.058V132.034V132.009V131.985V131.961V131.936V131.912V131.889V131.865V131.841V131.818V131.794V131.771V131.748V131.724V131.701V131.678V131.656V131.633V131.61V131.588V131.565V131.543V131.521V131.499V131.477V131.455V131.433V131.412V131.39V131.368V131.347V131.326V131.305V131.283V131.262V131.241V131.221V131.2V131.179V131.159V131.138V131.118V131.097V131.077V131.057V131.037V131.017V130.997V130.977V130.958V130.938V130.918V130.899V130.88V130.86V130.841V130.822V130.803V130.784V130.765V130.746V130.727V130.709V130.69V130.671V130.653V130.634V130.616V130.598V130.58V130.561V130.543V130.525V130.507V130.49V130.472V130.454V130.436V130.419V130.401V130.384V130.366V130.349V130.331V130.314V130.297V130.28V130.263V130.246V130.229V130.212V130.195V130.178V130.161V130.145V130.128V130.111V130.095V130.078V130.062V130.045V130.029V130.013V129.996V129.98V129.964V129.948V129.932V129.916V129.9V129.884V129.868V129.852V129.836V129.82V129.804V129.789V129.773V129.757V129.742V129.726V129.71V129.695V129.679V129.664V129.648V129.633V129.618V129.602V129.587V129.571V129.556V129.541V129.526V129.51V129.495V129.48V129.465V129.45V129.435V129.42V129.405V129.39V129.375V129.36V129.345V129.33V129.315V129.3V129.285V129.27V129.255V129.24V129.225V129.21V129.195V129.18V129.166V129.151V129.136V129.121V129.106V129.091V129.077V129.062V129.047V129.032V129.017V129.003V128.988V128.973V128.958V128.943V128.929V128.914V128.899V128.884V128.869V128.854V128.84V128.825V128.81V128.795V128.78V128.765V128.75V128.735V128.72V128.706V128.691V128.676V128.661V128.646V128.631V128.616V128.601V128.586V128.57V128.555V128.54V128.525V128.51V128.495V128.479V128.464V128.449V128.434V128.418V128.403V128.388V128.372V128.357V128.341V128.326V128.31V128.295V128.279V128.264V128.248V128.232V128.217V128.201V128.185V128.169V128.153V128.137V128.121V128.105V128.089V128.073V128.057V128.041V128.025V128.009V127.992V127.976V127.96V127.943V127.927V127.91V127.894V127.877V127.86V127.844V127.827V127.81V127.793V127.776V127.759V127.742V127.725V127.708V127.691V127.674V127.656V127.639V127.621V127.604V127.586V127.569V127.551V127.533V127.515V127.498V127.48V127.462V127.444V127.425V127.407V127.389V127.371V127.352V127.334V127.315V127.296V127.278V127.259V127.24V127.221V127.202V127.183V127.164V127.145V127.125V127.106V127.086V127.067V127.047V127.028V127.008V126.988V126.968V126.948V126.928V126.907V126.887V126.867V126.846V126.826V126.805V126.784V126.763V126.742V126.721V126.7V126.679V126.658V126.636V126.615V126.593V126.572V126.55V126.528V126.506V126.484V126.462V126.439V126.417V126.394V126.372V126.349V126.326V126.303V126.28V126.257V126.234V126.211V126.187V126.164V126.14V126.116V126.092V126.068V126.044V126.02V125.995V125.971V125.946V125.922V125.897V125.872V125.847V125.822V125.796V125.771V125.746V125.72V125.694V125.668V125.642V125.616V125.59V125.563V125.537V125.51V125.483V125.456V125.429V125.402V125.375V125.348V125.32V125.292V125.264V125.237V125.208V125.18V125.152V125.123V125.095V125.066V125.037V125.008V124.979V124.949V124.92V124.89V124.86V124.831V124.8V124.77V124.74V124.709V124.679V124.648V124.617V124.586V124.555V124.523V124.492V124.46V124.428V124.396V124.364V124.332V124.299V124.267V124.234V124.201V124.168V124.135V124.101V124.068V124.034V124C244 121.059 244 119.956 244.065 118.858C244.125 117.861 244.238 116.868 244.455 114.51C246.983 114.626 248.936 115.708 250.285 117.388C251.723 119.181 252.5 121.687 252.5 124.5Z" fill={bodyColor} stroke="black"/>
<path d="M12.9999 126.5C12.9999 131.949 9.6499 136.697 4.5 136.986V136.983V136.944V136.906V136.868V136.83V136.792V136.754V136.717V136.679V136.642V136.605V136.569V136.532V136.496V136.46V136.424V136.388V136.352V136.316V136.281V136.246V136.211V136.176V136.141V136.107V136.072V136.038V136.004V135.97V135.936V135.903V135.869V135.836V135.803V135.77V135.737V135.705V135.672V135.64V135.608V135.576V135.544V135.512V135.481V135.449V135.418V135.387V135.356V135.325V135.295V135.264V135.234V135.204V135.174V135.144V135.114V135.084V135.055V135.026V134.996V134.967V134.938V134.91V134.881V134.853V134.824V134.796V134.768V134.74V134.712V134.684V134.657V134.629V134.602V134.575V134.548V134.521V134.494V134.468V134.441V134.415V134.388V134.362V134.336V134.31V134.285V134.259V134.233V134.208V134.183V134.158V134.133V134.108V134.083V134.058V134.034V134.009V133.985V133.961V133.936V133.912V133.889V133.865V133.841V133.818V133.794V133.771V133.748V133.724V133.701V133.678V133.656V133.633V133.61V133.588V133.565V133.543V133.521V133.499V133.477V133.455V133.433V133.412V133.39V133.368V133.347V133.326V133.305V133.283V133.262V133.241V133.221V133.2V133.179V133.159V133.138V133.118V133.097V133.077V133.057V133.037V133.017V132.997V132.977V132.958V132.938V132.918V132.899V132.88V132.86V132.841V132.822V132.803V132.784V132.765V132.746V132.727V132.709V132.69V132.671V132.653V132.634V132.616V132.598V132.58V132.561V132.543V132.525V132.507V132.49V132.472V132.454V132.436V132.419V132.401V132.384V132.366V132.349V132.331V132.314V132.297V132.28V132.263V132.246V132.229V132.212V132.195V132.178V132.161V132.145V132.128V132.111V132.095V132.078V132.062V132.045V132.029V132.013V131.996V131.98V131.964V131.948V131.932V131.916V131.9V131.884V131.868V131.852V131.836V131.82V131.804V131.789V131.773V131.757V131.742V131.726V131.71V131.695V131.679V131.664V131.648V131.633V131.618V131.602V131.587V131.571V131.556V131.541V131.526V131.51V131.495V131.48V131.465V131.45V131.435V131.42V131.405V131.39V131.375V131.36V131.345V131.33V131.315V131.3V131.285V131.27V131.255V131.24V131.225V131.21V131.195V131.18V131.166V131.151V131.136V131.121V131.106V131.091V131.077V131.062V131.047V131.032V131.017V131.003V130.988V130.973V130.958V130.943V130.929V130.914V130.899V130.884V130.869V130.854V130.84V130.825V130.81V130.795V130.78V130.765V130.75V130.735V130.72V130.706V130.691V130.676V130.661V130.646V130.631V130.616V130.601V130.586V130.57V130.555V130.54V130.525V130.51V130.495V130.479V130.464V130.449V130.434V130.418V130.403V130.388V130.372V130.357V130.341V130.326V130.31V130.295V130.279V130.264V130.248V130.232V130.217V130.201V130.185V130.169V130.153V130.137V130.121V130.105V130.089V130.073V130.057V130.041V130.025V130.009V129.992V129.976V129.96V129.943V129.927V129.91V129.894V129.877V129.86V129.844V129.827V129.81V129.793V129.776V129.759V129.742V129.725V129.708V129.691V129.674V129.656V129.639V129.621V129.604V129.586V129.569V129.551V129.533V129.515V129.498V129.48V129.462V129.444V129.425V129.407V129.389V129.371V129.352V129.334V129.315V129.296V129.278V129.259V129.24V129.221V129.202V129.183V129.164V129.145V129.125V129.106V129.086V129.067V129.047V129.028V129.008V128.988V128.968V128.948V128.928V128.907V128.887V128.867V128.846V128.826V128.805V128.784V128.763V128.742V128.721V128.7V128.679V128.658V128.636V128.615V128.593V128.572V128.55V128.528V128.506V128.484V128.462V128.439V128.417V128.394V128.372V128.349V128.326V128.303V128.28V128.257V128.234V128.211V128.187V128.164V128.14V128.116V128.092V128.068V128.044V128.02V127.995V127.971V127.946V127.922V127.897V127.872V127.847V127.822V127.796V127.771V127.746V127.72V127.694V127.668V127.642V127.616V127.59V127.563V127.537V127.51V127.483V127.456V127.429V127.402V127.375V127.348V127.32V127.292V127.264V127.237V127.208V127.18V127.152V127.123V127.095V127.066V127.037V127.008V126.979V126.949V126.92V126.89V126.86V126.831V126.8V126.77V126.74V126.709V126.679V126.648V126.617V126.586V126.555V126.523V126.492V126.46V126.428V126.396V126.364V126.332V126.299V126.267V126.234V126.201V126.168V126.135V126.101V126.068V126.034V126C4.5 123.059 4.4996 121.956 4.56511 120.858C4.62451 119.861 4.7381 118.868 4.95533 116.51C7.4833 116.626 9.43558 117.708 10.7846 119.388C12.2231 121.181 12.9999 123.687 12.9999 126.5Z" fill={bodyColor} stroke="black"/>
</svg>
