 <svg
          className="saber-grip"
          width={281 * multiplier}
          height={248 * multiplier}
          viewBox="0 0 281 248"
          fill="none"
          xmlns="http://www.w3.org/2000/svg"
        >
          {getDefs()}
          <rect width="281" height="248" fill="transparent" />
          <rect
            x="0.5"
            y="66.5"
            width="280"
            height="119"
            fill={bodyColor}
            stroke="black"
            strokeWidth="2"
            filter="url(#shadow)"
          />
<rect x="47.0004" y="67" width="279" height="119" fill={bodyColor} stroke="black" stroke-width="2"/>
<path d="M113.827 64C116.155 64 116.605 67.3037 114.362 67.927L101.543 71.4897L88.0675 75.2345V75.2345C89.747 85.0115 80.9537 93.3582 71.2774 91.1719L69.8947 90.8595L66.7015 103.256V103.256C47.6333 113.323 46.6188 140.607 65.1969 151.552V151.552L69.8947 164.077L71.7622 163.709C81.308 161.827 89.7648 170.122 88.0675 179.702V179.702L101.543 182.802L111.322 185.051C113.643 185.585 113.255 189 110.874 189H48.7066C47.3354 189 45.9706 188.812 44.6504 188.441L20.6775 181.708C16.178 180.444 12.5247 177.155 10.7967 172.813L4.54327 157.098C2.2024 151.216 1 144.942 1 138.611V111.312C1 104.632 2.33854 98.0194 4.93657 91.8654L10.5426 78.586C12.4231 74.1316 16.3355 70.8568 21.0514 69.7898L45.0055 64.3698C46.0918 64.124 47.2021 64 48.3158 64H113.827Z" fill="url(#copper-vertical)"  filter="url(#shadow)"/>
<path d="M283.183 64C281.063 64 280.653 67.0092 282.696 67.5769L291.588 70.0481C309.675 75.0747 320.772 93.2597 316.969 111.643V111.643V111.643C306.822 117.71 305.553 131.914 314.464 139.684L316.969 141.869V141.869C320.136 159.011 310.124 175.851 293.552 181.258L281.583 185.163C279.455 185.858 279.955 189 282.193 189H322C324.761 189 327 186.761 327 184V69C327 66.2386 324.761 64 322 64H283.183Z" fill="url(#copper-vertical)"/>
<path d="M113.827 64C116.155 64 116.605 67.3037 114.362 67.927L101.543 71.4897L88.0675 75.2345V75.2345C89.747 85.0115 80.9537 93.3582 71.2774 91.1719L69.8947 90.8595L66.7015 103.256V103.256C47.6333 113.323 46.6188 140.607 65.1969 151.552V151.552L69.8947 164.077L71.7622 163.709C81.308 161.827 89.7648 170.122 88.0675 179.702V179.702L101.543 182.802L111.322 185.051C113.643 185.585 113.255 189 110.874 189H48.7066C47.3354 189 45.9706 188.812 44.6504 188.441L20.6775 181.708C16.178 180.444 12.5247 177.155 10.7967 172.813L4.54327 157.098C2.2024 151.216 1 144.942 1 138.611V111.312C1 104.632 2.33854 98.0194 4.93657 91.8654L10.5426 78.586C12.4231 74.1316 16.3355 70.8568 21.0514 69.7898L45.0055 64.3698C46.0918 64.124 47.2021 64 48.3158 64H113.827Z" stroke="black"/>
<path d="M283.183 64C281.063 64 280.653 67.0092 282.696 67.5769L291.588 70.0481C309.675 75.0747 320.772 93.2597 316.969 111.643V111.643V111.643C306.822 117.71 305.553 131.914 314.464 139.684L316.969 141.869V141.869C320.136 159.011 310.124 175.851 293.552 181.258L281.583 185.163C279.455 185.858 279.955 189 282.193 189H322C324.761 189 327 186.761 327 184V69C327 66.2386 324.761 64 322 64H283.183Z" stroke="black"/>
<path d="M322.126 71.4526L322.996 81.971L322.52 84.3509L320.281 89.5747L320.044 87.5229C319.078 79.1466 313.081 72.2164 304.93 70.0569L298.012 68.2241C297.793 68.166 297.64 67.9676 297.64 67.7407V67.0408C297.64 66.7568 297.877 66.5298 298.16 66.5412L317.821 67.3271C320.092 67.4179 321.939 69.1876 322.126 71.4526Z" fill={bodyColor} stroke="black"/>
<path d="M322.537 168.19L322.522 168.152L322.513 168.112L321.246 162.616L320.626 166.634C319.346 174.932 313.135 181.611 304.952 183.489L294.888 185.799C294.661 185.851 294.5 186.053 294.5 186.286V186.964C294.5 187.247 294.735 187.474 295.018 187.464L317.871 186.655C320.171 186.574 322.039 184.77 322.201 182.475L323.11 169.588L322.537 168.19Z" fill={bodyColor} stroke="black"/>
<path d="M149.014 65H132.903C132.329 65 131.782 65.2467 131.403 65.6773L127.72 69.8547C127.577 70.0164 127.491 70.2198 127.473 70.4347L127.181 74.0165C127.11 74.8753 128.087 75.4148 128.777 74.8984L134.5 70.6141L135.88 75.1922C136.125 76.006 137.21 76.1621 137.675 75.4504L138.36 74.4017C138.819 73.699 139.887 73.8402 140.147 74.6381L140.451 75.5666C140.483 75.6668 140.5 75.7716 140.5 75.877V80.2966C140.5 80.348 140.487 80.3985 140.461 80.4431L139.682 81.8109C138.967 83.0653 137.565 83.7646 136.133 83.5818L135.357 83.4828C134.813 83.4134 134.327 83.109 134.027 82.65C133.697 82.1432 133.631 81.5077 133.852 80.9442L134.376 79.6081C134.435 79.4555 134.323 79.2905 134.159 79.2905H132.716C131.653 79.2905 130.669 79.8534 130.13 80.7702L130.076 80.8616C129.705 81.4935 129.578 82.2394 129.719 82.9587L129.948 84.1296C130.917 89.0746 134.304 93.2026 138.965 95.1187L140.5 95.75V111.125L138 120.631L132 126.5L138.5 132.369L141 141.875V157.25L139.465 157.881C134.804 159.797 131.417 163.925 130.448 168.87L130.219 170.041C130.078 170.761 130.205 171.507 130.576 172.138L130.63 172.23C131.169 173.147 132.153 173.71 133.216 173.71H134.659C134.823 173.71 134.935 173.545 134.876 173.392L134.352 172.056C134.131 171.492 134.197 170.857 134.527 170.35C134.827 169.891 135.313 169.587 135.857 169.517L136.633 169.418C138.065 169.235 139.467 169.935 140.182 171.189L140.961 172.557C140.987 172.602 141 172.652 141 172.703V177.123C141 177.228 140.983 177.333 140.951 177.433L140.647 178.362C140.387 179.16 139.319 179.301 138.86 178.598L138.175 177.55C137.71 176.838 136.625 176.994 136.38 177.808L135 182.386L129.277 178.102C128.587 177.585 127.61 178.125 127.681 178.984L127.973 182.565C127.991 182.78 128.077 182.984 128.22 183.145L131.903 187.323C132.282 187.753 132.829 188 133.403 188H149.514C150.128 188 150.707 187.719 151.086 187.236L154.341 183.099C154.445 182.966 154.514 182.809 154.542 182.642L155.056 179.49C155.207 178.568 154.123 177.961 153.416 178.572L149 182.386L148.021 178.055C147.826 177.193 146.691 176.989 146.208 177.729L145.64 178.598C145.181 179.301 144.113 179.16 143.853 178.362L143.549 177.433C143.517 177.333 143.5 177.228 143.5 177.123V172.674C143.5 172.642 143.507 172.61 143.519 172.58L144.152 171.099C144.65 169.936 145.879 169.266 147.126 169.478L147.194 169.489C147.718 169.579 148.2 169.831 148.572 170.21C149.153 170.803 149.405 171.644 149.245 172.459L149.052 173.445C149.025 173.582 149.13 173.71 149.269 173.71H150.635C151.493 173.71 152.3 173.301 152.808 172.61C153.249 172.009 153.422 171.252 153.286 170.519L152.92 168.562C152.029 163.787 148.881 159.739 144.472 157.7L143.5 157.25V141.875L146 132.369L152 126.5L146 120.5L143 111.125V95.75L143.972 95.3005C148.381 93.2612 151.529 89.2131 152.42 84.4378L152.786 82.4809C152.922 81.7479 152.749 80.991 152.308 80.3901C151.8 79.6988 150.993 79.2905 150.135 79.2905H148.769C148.63 79.2905 148.525 79.4178 148.552 79.5546L148.745 80.541C148.905 81.3556 148.653 82.1966 148.072 82.7896C147.7 83.1691 147.218 83.4214 146.694 83.5105L146.626 83.5222C145.379 83.7343 144.15 83.0639 143.652 81.9011L143.019 80.42C143.007 80.3903 143 80.3584 143 80.3261V75.877C143 75.7716 143.017 75.6668 143.049 75.5666L143.353 74.6381C143.613 73.8402 144.681 73.699 145.14 74.4017L145.708 75.2712C146.191 76.0108 147.326 75.8066 147.521 74.9449L148.5 70.6141L152.916 74.4279C153.623 75.0387 154.707 74.4321 154.556 73.5099L154.042 70.3582C154.014 70.1913 153.945 70.034 153.841 69.9011L150.586 65.7635C150.207 65.2814 149.628 65 149.014 65Z" fill="url(#copper-vertical)" stroke="black"/>
<path d="M238.014 65H221.903C221.329 65 220.782 65.2467 220.403 65.6773L216.72 69.8547C216.577 70.0164 216.491 70.2198 216.473 70.4347L216.181 74.0165C216.11 74.8752 217.087 75.4147 217.777 74.8984L223.5 70.6141L224.88 75.1922C225.125 76.006 226.21 76.1621 226.675 75.4504L227.36 74.4017C227.819 73.699 228.887 73.8402 229.147 74.6381L229.451 75.5666C229.483 75.6668 229.5 75.7716 229.5 75.877V80.2966C229.5 80.348 229.487 80.3985 229.461 80.4431L228.682 81.8109C227.967 83.0653 226.565 83.7646 225.133 83.5818L224.357 83.4828C223.813 83.4134 223.327 83.109 223.027 82.65C222.697 82.1432 222.631 81.5077 222.852 80.9442L223.376 79.6081C223.435 79.4554 223.323 79.2905 223.159 79.2905H221.716C220.653 79.2905 219.669 79.8534 219.13 80.7702L219.076 80.8616C218.705 81.4935 218.578 82.2394 218.719 82.9587L218.948 84.1296C219.917 89.0746 223.304 93.2026 227.965 95.1187L229.5 95.75V111.125L227 120.631L221 126.5L227.5 132.369L230 141.875V157.25L228.465 157.881C223.804 159.797 220.417 163.925 219.448 168.87L219.219 170.041C219.078 170.761 219.205 171.507 219.576 172.138L219.63 172.23C220.169 173.147 221.153 173.71 222.216 173.71H223.659C223.823 173.71 223.935 173.545 223.876 173.392L223.352 172.056C223.131 171.492 223.197 170.857 223.527 170.35C223.827 169.891 224.313 169.587 224.857 169.517L225.633 169.418C227.065 169.235 228.467 169.935 229.182 171.189L229.961 172.557C229.987 172.602 230 172.652 230 172.703V177.123C230 177.228 229.983 177.333 229.951 177.433L229.647 178.362C229.387 179.16 228.319 179.301 227.86 178.598L227.175 177.55C226.71 176.838 225.625 176.994 225.38 177.808L224 182.386L218.277 178.102C217.587 177.585 216.61 178.125 216.681 178.984L216.973 182.565C216.991 182.78 217.077 182.984 217.22 183.145L220.903 187.323C221.282 187.753 221.829 188 222.403 188H238.514C239.128 188 239.707 187.719 240.086 187.236L243.341 183.099C243.445 182.966 243.514 182.809 243.542 182.642L244.056 179.49C244.207 178.568 243.123 177.961 242.416 178.572L238 182.386L237.021 178.055C236.826 177.193 235.691 176.989 235.208 177.729L234.64 178.598C234.181 179.301 233.113 179.16 232.853 178.362L232.549 177.433C232.517 177.333 232.5 177.228 232.5 177.123V172.674C232.5 172.642 232.507 172.61 232.519 172.58L233.152 171.099C233.65 169.936 234.879 169.266 236.126 169.478L236.194 169.489C236.718 169.579 237.2 169.831 237.572 170.21C238.153 170.803 238.405 171.644 238.245 172.459L238.052 173.445C238.025 173.582 238.13 173.71 238.269 173.71H239.635C240.493 173.71 241.3 173.301 241.808 172.61C242.249 172.009 242.422 171.252 242.286 170.519L241.92 168.562C241.029 163.787 237.881 159.739 233.472 157.7L232.5 157.25V141.875L235 132.369L241 126.5L235 120.5L232 111.125V95.75L232.972 95.3005C237.381 93.2612 240.529 89.2131 241.42 84.4378L241.786 82.4809C241.922 81.7479 241.749 80.991 241.308 80.3901C240.8 79.6988 239.993 79.2905 239.135 79.2905H237.769C237.63 79.2905 237.525 79.4178 237.552 79.5546L237.745 80.541C237.905 81.3556 237.653 82.1966 237.072 82.7896C236.7 83.1691 236.218 83.4214 235.694 83.5105L235.626 83.5222C234.379 83.7343 233.15 83.0639 232.652 81.9011L232.019 80.42C232.007 80.3903 232 80.3584 232 80.3261V75.877C232 75.7716 232.017 75.6668 232.049 75.5666L232.353 74.6381C232.613 73.8402 233.681 73.699 234.14 74.4017L234.708 75.2712C235.191 76.0108 236.326 75.8066 236.521 74.9449L237.5 70.6141L241.916 74.4279C242.623 75.0387 243.707 74.4321 243.556 73.5099L243.042 70.3582C243.014 70.1913 242.945 70.034 242.841 69.9011L239.586 65.7635C239.207 65.2814 238.628 65 238.014 65Z" fill="url(#copper-vertical)" stroke="black"/>
<path d="M315.5 126.5C315.5 131.949 318.85 136.697 324 136.986V136.983V136.944V136.906V136.868V136.83V136.792V136.754V136.717V136.679V136.642V136.605V136.569V136.532V136.496V136.46V136.424V136.388V136.352V136.316V136.281V136.246V136.211V136.176V136.141V136.107V136.072V136.038V136.004V135.97V135.936V135.903V135.869V135.836V135.803V135.77V135.737V135.705V135.672V135.64V135.608V135.576V135.544V135.512V135.481V135.449V135.418V135.387V135.356V135.325V135.295V135.264V135.234V135.204V135.174V135.144V135.114V135.084V135.055V135.026V134.996V134.967V134.938V134.91V134.881V134.853V134.824V134.796V134.768V134.74V134.712V134.684V134.657V134.629V134.602V134.575V134.548V134.521V134.494V134.468V134.441V134.415V134.388V134.362V134.336V134.31V134.285V134.259V134.233V134.208V134.183V134.158V134.133V134.108V134.083V134.058V134.034V134.009V133.985V133.961V133.936V133.912V133.889V133.865V133.841V133.818V133.794V133.771V133.748V133.724V133.701V133.678V133.656V133.633V133.61V133.588V133.565V133.543V133.521V133.499V133.477V133.455V133.433V133.412V133.39V133.368V133.347V133.326V133.305V133.283V133.262V133.241V133.221V133.2V133.179V133.159V133.138V133.118V133.097V133.077V133.057V133.037V133.017V132.997V132.977V132.958V132.938V132.918V132.899V132.88V132.86V132.841V132.822V132.803V132.784V132.765V132.746V132.727V132.709V132.69V132.671V132.653V132.634V132.616V132.598V132.58V132.561V132.543V132.525V132.507V132.49V132.472V132.454V132.436V132.419V132.401V132.384V132.366V132.349V132.331V132.314V132.297V132.28V132.263V132.246V132.229V132.212V132.195V132.178V132.161V132.145V132.128V132.111V132.095V132.078V132.062V132.045V132.029V132.013V131.996V131.98V131.964V131.948V131.932V131.916V131.9V131.884V131.868V131.852V131.836V131.82V131.804V131.789V131.773V131.757V131.742V131.726V131.71V131.695V131.679V131.664V131.648V131.633V131.618V131.602V131.587V131.571V131.556V131.541V131.526V131.51V131.495V131.48V131.465V131.45V131.435V131.42V131.405V131.39V131.375V131.36V131.345V131.33V131.315V131.3V131.285V131.27V131.255V131.24V131.225V131.21V131.195V131.18V131.166V131.151V131.136V131.121V131.106V131.091V131.077V131.062V131.047V131.032V131.017V131.003V130.988V130.973V130.958V130.943V130.929V130.914V130.899V130.884V130.869V130.854V130.84V130.825V130.81V130.795V130.78V130.765V130.75V130.735V130.72V130.706V130.691V130.676V130.661V130.646V130.631V130.616V130.601V130.586V130.57V130.555V130.54V130.525V130.51V130.495V130.479V130.464V130.449V130.434V130.418V130.403V130.388V130.372V130.357V130.341V130.326V130.31V130.295V130.279V130.264V130.248V130.232V130.217V130.201V130.185V130.169V130.153V130.137V130.121V130.105V130.089V130.073V130.057V130.041V130.025V130.009V129.992V129.976V129.96V129.943V129.927V129.91V129.894V129.877V129.86V129.844V129.827V129.81V129.793V129.776V129.759V129.742V129.725V129.708V129.691V129.674V129.656V129.639V129.621V129.604V129.586V129.569V129.551V129.533V129.515V129.498V129.48V129.462V129.444V129.425V129.407V129.389V129.371V129.352V129.334V129.315V129.296V129.278V129.259V129.24V129.221V129.202V129.183V129.164V129.145V129.125V129.106V129.086V129.067V129.047V129.028V129.008V128.988V128.968V128.948V128.928V128.907V128.887V128.867V128.846V128.826V128.805V128.784V128.763V128.742V128.721V128.7V128.679V128.658V128.636V128.615V128.593V128.572V128.55V128.528V128.506V128.484V128.462V128.439V128.417V128.394V128.372V128.349V128.326V128.303V128.28V128.257V128.234V128.211V128.187V128.164V128.14V128.116V128.092V128.068V128.044V128.02V127.995V127.971V127.946V127.922V127.897V127.872V127.847V127.822V127.796V127.771V127.746V127.72V127.694V127.668V127.642V127.616V127.59V127.563V127.537V127.51V127.483V127.456V127.429V127.402V127.375V127.348V127.32V127.292V127.264V127.237V127.208V127.18V127.152V127.123V127.095V127.066V127.037V127.008V126.979V126.949V126.92V126.89V126.86V126.831V126.8V126.77V126.74V126.709V126.679V126.648V126.617V126.586V126.555V126.523V126.492V126.46V126.428V126.396V126.364V126.332V126.299V126.267V126.234V126.201V126.168V126.135V126.101V126.068V126.034V126C324 123.059 324 121.956 323.935 120.858C323.875 119.861 323.762 118.868 323.545 116.51C321.017 116.626 319.064 117.708 317.715 119.388C316.277 121.181 315.5 123.687 315.5 126.5Z" fill={bodyColor} stroke="black"/>
<circle cx="38.5" cy="123.5" r="10" fill={bodyColor} stroke="black"/>
<path d="M39.6403 130.594C37.3222 132.832 34.2013 133.727 31.2416 133.295C32.0872 132.833 32.8856 132.251 33.6122 131.549C37.9824 127.329 38.1042 120.366 33.8842 115.995C32.8995 114.976 31.7655 114.187 30.5499 113.631C33.8264 112.916 37.3869 113.864 39.8875 116.454C43.7239 120.427 43.6132 126.757 39.6403 130.594ZM32.9176 130.83C31.9497 131.765 30.8419 132.465 29.6642 132.932C28.2779 132.493 26.9696 131.745 25.848 130.69C29.745 126.566 29.8574 120.133 26.107 115.876C26.9861 115.105 27.9666 114.515 29.0009 114.104C30.5331 114.59 31.9699 115.453 33.1648 116.69C37.0012 120.663 36.8905 126.994 32.9176 130.83ZM25.1286 131.386C26.0291 132.24 27.0402 132.914 28.1152 133.405C26.2918 133.804 24.3805 133.686 22.6129 133.058C23.5058 132.629 24.3534 132.071 25.1286 131.386ZM10.9006 115.947C13.725 113.22 17.741 112.487 21.2053 113.719C20.1723 114.216 19.1999 114.884 18.3302 115.723C13.96 119.943 13.8382 126.907 18.0583 131.277C18.6656 131.906 19.3297 132.447 20.0347 132.9C16.7462 133.634 13.1652 132.688 10.6534 130.087C6.817 126.114 6.92768 119.783 10.9006 115.947ZM19.0248 116.443C20.044 115.459 21.2182 114.734 22.4658 114.268C23.2608 114.682 24.0114 115.21 24.6929 115.851C20.7959 119.975 20.6834 126.407 24.4339 130.665C23.5018 131.482 22.4558 132.097 21.3524 132.509C20.4197 132.023 19.5483 131.381 18.7776 130.583C14.9412 126.61 15.0519 120.279 19.0248 116.443ZM25.4123 115.155C24.9021 114.671 24.3563 114.245 23.7834 113.877C24.9799 113.61 26.2152 113.565 27.4235 113.742C26.7152 114.129 26.04 114.6 25.4123 115.155ZM25.1533 129.969C21.7864 126.11 21.8878 120.311 25.3876 116.572C28.7545 120.431 28.6531 126.23 25.1533 129.969Z" fill={bodyColor} stroke="black"/>
<path d="M58.5 84.5C58.5 88.1 56.5978 91.2556 53.7436 93.0166C54.2319 91.7723 54.5 90.4175 54.5 89C54.5 82.9249 49.5751 78 43.5 78C42.4898 78 41.5114 78.1362 40.5822 78.3911C42.4111 76.0243 45.2775 74.5 48.5 74.5C54.0229 74.5 58.5 78.9772 58.5 84.5ZM53.5 89C53.5 90.7201 53.0657 92.3388 52.3007 93.7524C51.2715 94.1756 50.1562 94.4321 48.9883 94.4883C48.7288 88.8203 44.1797 84.2712 38.5118 84.0117C38.5857 82.4736 39.0072 81.0266 39.6993 79.7476C40.8711 79.2657 42.1545 79 43.5 79C49.0228 79 53.5 83.4772 53.5 89ZM48.9894 95.4893C49.8265 95.4527 50.6394 95.3224 51.4178 95.1089C50.6711 96.0752 49.7515 96.9011 48.7053 97.5401C48.8619 96.8777 48.9586 96.192 48.9894 95.4893ZM37.5117 85.0117C37.7713 90.6797 42.3203 95.2288 47.9883 95.4883C47.9434 96.423 47.7701 97.324 47.4858 98.1741C46.2646 98.7054 44.9167 99 43.5 99C37.9771 99 33.5 94.5228 33.5 89C33.5 87.8905 33.6807 86.8232 34.0142 85.8259C35.0943 85.356 36.2735 85.0713 37.5117 85.0117ZM47.9871 94.4871C42.8725 94.2287 38.7714 90.1275 38.513 85.0129C43.6276 85.2713 47.7287 89.3725 47.9871 94.4871ZM43.5 100C44.709 100 45.8724 99.805 46.9605 99.4446C45.3241 102.737 41.9263 105 38.0001 105C32.4772 105 28.0001 100.523 28.0001 95C28.0001 91.384 29.9193 88.2163 32.7947 86.4599C32.602 87.2753 32.5 88.1257 32.5 89C32.5 95.0751 37.4249 100 43.5 100ZM37.5107 84.0107C36.4769 84.0559 35.4801 84.2439 34.5395 84.5554C35.3745 82.8753 36.6681 81.4634 38.2564 80.4834C37.8246 81.5837 37.565 82.7706 37.5107 84.0107ZM48.5 181.5C45.2775 181.5 42.4111 179.976 40.5822 177.609C41.5114 177.864 42.4898 178 43.5 178C49.5751 178 54.5 173.075 54.5 167C54.5 165.583 54.2319 164.228 53.7436 162.983C56.5978 164.744 58.5 167.9 58.5 171.5C58.5 177.023 54.0229 181.5 48.5 181.5ZM43.5 177C42.1545 177 40.8711 176.734 39.6993 176.252C39.0072 174.973 38.5857 173.526 38.5118 171.988C44.1797 171.729 48.7288 167.18 48.9883 161.512C50.1562 161.568 51.2715 161.824 52.3007 162.248C53.0657 163.661 53.5 165.28 53.5 167C53.5 172.523 49.0228 177 43.5 177ZM37.5107 171.989C37.565 173.229 37.8246 174.416 38.2564 175.517C36.6681 174.537 35.3745 173.125 34.5395 171.445C35.4801 171.756 36.4769 171.944 37.5107 171.989ZM38.0001 151C41.9263 151 45.3241 153.263 46.9605 156.555C45.8724 156.195 44.709 156 43.5 156C37.4249 156 32.5 160.925 32.5 167C32.5 167.874 32.602 168.725 32.7947 169.54C29.9193 167.784 28.0001 164.616 28.0001 161C28.0001 155.477 32.4772 151 38.0001 151ZM43.5 157C44.9167 157 46.2646 157.295 47.4858 157.826C47.7701 158.676 47.9434 159.577 47.9883 160.512C42.3203 160.771 37.7713 165.32 37.5117 170.988C36.2735 170.929 35.0943 170.644 34.0142 170.174C33.6807 169.177 33.5 168.11 33.5 167C33.5 161.477 37.9771 157 43.5 157ZM48.9894 160.511C48.9586 159.808 48.8619 159.122 48.7053 158.46C49.7515 159.099 50.6711 159.925 51.4178 160.891C50.6394 160.678 49.8265 160.547 48.9894 160.511ZM38.513 170.987C38.7714 165.872 42.8725 161.771 47.9871 161.513C47.7287 166.628 43.6276 170.729 38.513 170.987Z" fill={bodyColor} stroke="black"/>
</svg>
