<svg width="283" height="248" viewBox="0 0 283 248" fill="none" xmlns="http://www.w3.org/2000/svg">
<rect x="1" width="281" height="248" fill="#C4C4C4"/>
<rect x="2" y="67" width="279" height="119" fill="#0000FF" stroke="black" stroke-width="2"/>
<path d="M82.0141 65H65.903C65.3289 65 64.7825 65.2467 64.4028 65.6773L60.7196 69.8547C60.577 70.0164 60.4905 70.2198 60.473 70.4347L60.1806 74.0165C60.1105 74.8752 61.0867 75.4147 61.7765 74.8984L67.5 70.6141L68.88 75.1922C69.1253 76.006 70.2099 76.1621 70.6747 75.4504L71.3596 74.4017C71.8186 73.699 72.8869 73.8402 73.1474 74.6381L73.4506 75.5666C73.4833 75.6668 73.5 75.7716 73.5 75.877V80.2966C73.5 80.348 73.4866 80.3985 73.4612 80.4431L72.6815 81.8109C71.9665 83.0653 70.5655 83.7646 69.1332 83.5818L68.3572 83.4828C67.8133 83.4134 67.3273 83.109 67.0275 82.65C66.6965 82.1432 66.6311 81.5077 66.8519 80.9442L67.3755 79.6081C67.4353 79.4554 67.3228 79.2905 67.1589 79.2905H65.7165C64.653 79.2905 63.6691 79.8534 63.1302 80.7702L63.0765 80.8616C62.7051 81.4935 62.5778 82.2394 62.7187 82.9587L62.9482 84.1296C63.9171 89.0746 67.3041 93.2026 71.9645 95.1187L73.5 95.75V111.125L71 120.631L65 126.5L71.5 132.369L74 141.875V157.25L72.4645 157.881C67.8041 159.797 64.417 163.925 63.4482 168.87L63.2187 170.041C63.0778 170.761 63.2051 171.507 63.5765 172.138L63.6302 172.23C64.1691 173.147 65.153 173.71 66.2165 173.71H67.6589C67.8228 173.71 67.9353 173.545 67.8755 173.392L67.3519 172.056C67.1311 171.492 67.1965 170.857 67.5275 170.35C67.8273 169.891 68.3133 169.587 68.8572 169.517L69.6332 169.418C71.0655 169.235 72.4665 169.935 73.1815 171.189L73.9612 172.557C73.9866 172.602 74 172.652 74 172.703V177.123C74 177.228 73.9833 177.333 73.9506 177.433L73.6474 178.362C73.3869 179.16 72.3186 179.301 71.8596 178.598L71.1747 177.55C70.7099 176.838 69.6253 176.994 69.38 177.808L68 182.386L62.2765 178.102C61.5867 177.585 60.6105 178.125 60.6806 178.984L60.973 182.565C60.9905 182.78 61.077 182.984 61.2196 183.145L64.9028 187.323C65.2825 187.753 65.8289 188 66.403 188H82.5141C83.1275 188 83.7069 187.719 84.0861 187.236L87.3406 183.099C87.4452 182.966 87.5143 182.809 87.5415 182.642L88.0562 179.49C88.2067 178.568 87.1227 177.961 86.4156 178.572L82 182.386L81.0209 178.055C80.8261 177.193 79.6914 176.989 79.2083 177.729L78.6404 178.598C78.1814 179.301 77.1131 179.16 76.8526 178.362L76.5494 177.433C76.5167 177.333 76.5 177.228 76.5 177.123V172.674C76.5 172.642 76.5065 172.61 76.5192 172.58L77.1524 171.099C77.6495 169.936 78.879 169.266 80.1257 169.478L80.1942 169.489C80.718 169.579 81.2002 169.831 81.572 170.21C82.1529 170.803 82.4046 171.644 82.245 172.459L82.0518 173.445C82.0249 173.582 82.1297 173.71 82.2692 173.71H83.6354C84.4933 173.71 85.3 173.301 85.808 172.61C86.2495 172.009 86.4224 171.252 86.2856 170.519L85.9204 168.562C85.0293 163.787 81.8809 159.739 77.4719 157.7L76.5 157.25V141.875L79 132.369L85 126.5L79 120.5L76 111.125V95.75L76.9719 95.3005C81.3809 93.2612 84.5293 89.2131 85.4204 84.4378L85.7856 82.4809C85.9224 81.7479 85.7495 80.991 85.308 80.3901C84.8 79.6988 83.9933 79.2905 83.1355 79.2905H81.7692C81.6297 79.2905 81.5249 79.4178 81.5518 79.5546L81.745 80.541C81.9046 81.3556 81.6529 82.1966 81.072 82.7896C80.7002 83.1691 80.218 83.4214 79.6942 83.5105L79.6257 83.5222C78.379 83.7343 77.1495 83.0639 76.6524 81.9011L76.0192 80.42C76.0065 80.3903 76 80.3584 76 80.3261V75.877C76 75.7716 76.0167 75.6668 76.0494 75.5666L76.3526 74.6381C76.6131 73.8402 77.6814 73.699 78.1404 74.4017L78.7083 75.2712C79.1914 76.0108 80.3261 75.8066 80.5209 74.9449L81.5 70.6141L85.9156 74.4279C86.6227 75.0387 87.7067 74.4321 87.5562 73.5099L87.0415 70.3582C87.0143 70.1913 86.9452 70.034 86.8406 69.9011L83.5861 65.7635C83.2069 65.2814 82.6275 65 82.0141 65Z" fill="#C4C4C4" stroke="black"/>
<path d="M214.014 66H197.903C197.329 66 196.782 66.2467 196.403 66.6773L192.72 70.8547C192.577 71.0164 192.491 71.2198 192.473 71.4347L192.181 75.0165C192.11 75.8752 193.087 76.4147 193.777 75.8984L199.5 71.6141L200.88 76.1922C201.125 77.006 202.21 77.1621 202.675 76.4504L203.36 75.4017C203.819 74.699 204.887 74.8402 205.147 75.6381L205.451 76.5666C205.483 76.6668 205.5 76.7716 205.5 76.877V81.2966C205.5 81.348 205.487 81.3985 205.461 81.4431L204.682 82.8109C203.967 84.0653 202.565 84.7646 201.133 84.5818L200.357 84.4828C199.813 84.4134 199.327 84.109 199.027 83.65C198.697 83.1432 198.631 82.5077 198.852 81.9442L199.376 80.6081C199.435 80.4554 199.323 80.2905 199.159 80.2905H197.716C196.653 80.2905 195.669 80.8534 195.13 81.7702L195.076 81.8616C194.705 82.4935 194.578 83.2394 194.719 83.9587L194.948 85.1296C195.917 90.0746 199.304 94.2026 203.965 96.1187L205.5 96.75V112.125L203 121.631L197 127.5L203.5 133.369L206 142.875V158.25L204.465 158.881C199.804 160.797 196.417 164.925 195.448 169.87L195.219 171.041C195.078 171.761 195.205 172.507 195.576 173.138L195.63 173.23C196.169 174.147 197.153 174.71 198.216 174.71H199.659C199.823 174.71 199.935 174.545 199.876 174.392L199.352 173.056C199.131 172.492 199.197 171.857 199.527 171.35C199.827 170.891 200.313 170.587 200.857 170.517L201.633 170.418C203.065 170.235 204.467 170.935 205.182 172.189L205.961 173.557C205.987 173.602 206 173.652 206 173.703V178.123C206 178.228 205.983 178.333 205.951 178.433L205.647 179.362C205.387 180.16 204.319 180.301 203.86 179.598L203.175 178.55C202.71 177.838 201.625 177.994 201.38 178.808L200 183.386L194.277 179.102C193.587 178.585 192.61 179.125 192.681 179.984L192.973 183.565C192.991 183.78 193.077 183.984 193.22 184.145L196.903 188.323C197.282 188.753 197.829 189 198.403 189H214.514C215.128 189 215.707 188.719 216.086 188.236L219.341 184.099C219.445 183.966 219.514 183.809 219.542 183.642L220.056 180.49C220.207 179.568 219.123 178.961 218.416 179.572L214 183.386L213.021 179.055C212.826 178.193 211.691 177.989 211.208 178.729L210.64 179.598C210.181 180.301 209.113 180.16 208.853 179.362L208.549 178.433C208.517 178.333 208.5 178.228 208.5 178.123V173.674C208.5 173.642 208.507 173.61 208.519 173.58L209.152 172.099C209.65 170.936 210.879 170.266 212.126 170.478L212.194 170.489C212.718 170.579 213.2 170.831 213.572 171.21C214.153 171.803 214.405 172.644 214.245 173.459L214.052 174.445C214.025 174.582 214.13 174.71 214.269 174.71H215.635C216.493 174.71 217.3 174.301 217.808 173.61C218.249 173.009 218.422 172.252 218.286 171.519L217.92 169.562C217.029 164.787 213.881 160.739 209.472 158.7L208.5 158.25V142.875L211 133.369L217 127.5L211 121.5L208 112.125V96.75L208.972 96.3005C213.381 94.2612 216.529 90.2131 217.42 85.4378L217.786 83.4809C217.922 82.7479 217.749 81.991 217.308 81.3901C216.8 80.6988 215.993 80.2905 215.135 80.2905H213.769C213.63 80.2905 213.525 80.4178 213.552 80.5546L213.745 81.541C213.905 82.3556 213.653 83.1966 213.072 83.7896C212.7 84.1691 212.218 84.4214 211.694 84.5105L211.626 84.5222C210.379 84.7343 209.15 84.0639 208.652 82.9011L208.019 81.42C208.007 81.3903 208 81.3584 208 81.3261V76.877C208 76.7716 208.017 76.6668 208.049 76.5666L208.353 75.6381C208.613 74.8402 209.681 74.699 210.14 75.4017L210.708 76.2712C211.191 77.0108 212.326 76.8066 212.521 75.9449L213.5 71.6141L217.916 75.4279C218.623 76.0387 219.707 75.4321 219.556 74.5099L219.042 71.3582C219.014 71.1913 218.945 71.034 218.841 70.9011L215.586 66.7635C215.207 66.2814 214.628 66 214.014 66Z" fill="#C4C4C4" stroke="black"/>
<path d="M148.014 65H131.903C131.329 65 130.782 65.2467 130.403 65.6773L126.72 69.8547C126.577 70.0164 126.491 70.2198 126.473 70.4347L126.181 74.0165C126.11 74.8752 127.087 75.4147 127.777 74.8984L133.5 70.6141L134.88 75.1922C135.125 76.006 136.21 76.1621 136.675 75.4504L137.36 74.4017C137.819 73.699 138.887 73.8402 139.147 74.6381L139.451 75.5666C139.483 75.6668 139.5 75.7716 139.5 75.877V80.2966C139.5 80.348 139.487 80.3985 139.461 80.4431L138.682 81.8109C137.967 83.0653 136.565 83.7646 135.133 83.5818L134.357 83.4828C133.813 83.4134 133.327 83.109 133.027 82.65C132.697 82.1432 132.631 81.5077 132.852 80.9442L133.376 79.6081C133.435 79.4554 133.323 79.2905 133.159 79.2905H131.716C130.653 79.2905 129.669 79.8534 129.13 80.7702L129.076 80.8616C128.705 81.4935 128.578 82.2394 128.719 82.9587L128.948 84.1296C129.917 89.0746 133.304 93.2026 137.965 95.1187L139.5 95.75L135.5 101L120.316 99.0533C117.472 98.6887 114.583 98.9398 111.844 99.7896L107.867 101.024C103.824 102.279 100.525 105.229 98.8279 109.108L98.1954 110.553C95.9999 115.572 97.3412 121.435 101.5 125C97.4428 127.898 96.0294 133.277 98.1378 137.795L99.4004 140.501C100.758 143.411 103.079 145.762 105.971 147.159L109.664 148.941C113.765 150.921 118.419 151.442 122.856 150.418L135.5 147.5L140 157.25L138.465 157.881C133.804 159.797 130.417 163.925 129.448 168.87L129.219 170.041C129.078 170.761 129.205 171.507 129.576 172.138L129.63 172.23C130.169 173.147 131.153 173.71 132.216 173.71H133.659C133.823 173.71 133.935 173.545 133.876 173.392L133.352 172.056C133.131 171.492 133.197 170.857 133.527 170.35C133.827 169.891 134.313 169.587 134.857 169.517L135.633 169.418C137.065 169.235 138.467 169.935 139.182 171.189L139.961 172.557C139.987 172.602 140 172.652 140 172.703V177.123C140 177.228 139.983 177.333 139.951 177.433L139.647 178.362C139.387 179.16 138.319 179.301 137.86 178.598L137.175 177.55C136.71 176.838 135.625 176.994 135.38 177.808L134 182.386L128.277 178.102C127.587 177.585 126.61 178.125 126.681 178.984L126.973 182.565C126.991 182.78 127.077 182.984 127.22 183.145L130.903 187.323C131.282 187.753 131.829 188 132.403 188H148.514C149.127 188 149.707 187.719 150.086 187.236L153.341 183.099C153.445 182.966 153.514 182.809 153.542 182.642L154.056 179.49C154.207 178.568 153.123 177.961 152.416 178.572L148 182.386L147.021 178.055C146.826 177.193 145.691 176.989 145.208 177.729L144.64 178.598C144.181 179.301 143.113 179.16 142.853 178.362L142.549 177.433C142.517 177.333 142.5 177.228 142.5 177.123V172.674C142.5 172.642 142.507 172.61 142.519 172.58L143.152 171.099C143.65 169.936 144.879 169.266 146.126 169.478L146.194 169.489C146.718 169.579 147.2 169.831 147.572 170.21C148.153 170.803 148.405 171.644 148.245 172.459L148.052 173.445C148.025 173.582 148.13 173.71 148.269 173.71H149.635C150.493 173.71 151.3 173.301 151.808 172.61C152.249 172.009 152.422 171.252 152.286 170.519L151.92 168.562C151.029 163.787 147.881 159.739 143.472 157.7L142.5 157.25L148 147.5L162.099 151.593C163.026 151.862 163.993 151.969 164.956 151.909L182.488 150.813C187.388 150.507 188.418 143.741 183.832 141.99C180.453 140.7 179.844 136.181 182.76 134.042L183.5 133.5L194 127L185 120L182.842 118.322C179.757 115.922 180.363 111.096 183.945 109.533C188.902 107.37 187.603 100.006 182.206 99.6691L164.466 98.5604C163.824 98.5202 163.179 98.5459 162.542 98.6369L146 101L142 95.75L142.972 95.3005C147.381 93.2612 150.529 89.2131 151.42 84.4378L151.786 82.4809C151.922 81.7479 151.749 80.991 151.308 80.3901C150.8 79.6988 149.993 79.2905 149.135 79.2905H147.769C147.63 79.2905 147.525 79.4178 147.552 79.5546L147.745 80.541C147.905 81.3556 147.653 82.1966 147.072 82.7896C146.7 83.1691 146.218 83.4214 145.694 83.5105L145.626 83.5222C144.379 83.7343 143.15 83.0639 142.652 81.9011L142.019 80.42C142.007 80.3903 142 80.3584 142 80.3261V75.877C142 75.7716 142.017 75.6668 142.049 75.5666L142.353 74.6381C142.613 73.8402 143.681 73.699 144.14 74.4017L144.708 75.2712C145.191 76.0108 146.326 75.8066 146.521 74.9449L147.5 70.6141L151.916 74.4279C152.623 75.0387 153.707 74.4321 153.556 73.5099L153.042 70.3582C153.014 70.1913 152.945 70.034 152.841 69.9011L149.586 65.7635C149.207 65.2814 148.627 65 148.014 65Z" fill="#C4C4C4" stroke="black"/>
<g filter="url(#filter0_d)">
<path d="M104 108.688C104 105.927 106.239 103.688 109 103.688H175C177.761 103.688 180 105.927 180 108.688V140.312C180 143.073 177.761 145.312 175 145.312H109C106.239 145.312 104 143.073 104 140.312V108.688Z" fill="#0000FF"/>
<path d="M109 104.688H175C177.209 104.688 179 106.479 179 108.688V140.312C179 142.521 177.209 144.312 175 144.312H109C106.791 144.312 105 142.521 105 140.312V108.688C105 106.479 106.791 104.688 109 104.688Z" stroke="black" stroke-width="2"/>
</g>
<path d="M122.102 103H119.399C118.744 103 118.129 103.322 117.756 103.861L117.253 104.586C117.176 104.697 117.131 104.827 117.122 104.962C117.079 105.639 117.888 106.017 118.379 105.55L119.028 104.931L119.362 106.337C119.433 106.638 119.84 106.687 119.981 106.412C120.121 106.14 120.522 106.185 120.599 106.482L120.639 106.639C120.647 106.671 120.651 106.704 120.651 106.737V108.271C120.651 108.283 120.649 108.295 120.644 108.306L120.381 108.893C120.221 109.248 119.842 109.453 119.458 109.39L119.352 109.373C119.149 109.34 118.973 109.212 118.879 109.029C118.801 108.878 118.786 108.703 118.836 108.541L118.99 108.041C119.009 107.979 118.963 107.916 118.897 107.916H118.637C118.298 107.916 117.991 108.113 117.849 108.42L117.806 108.512C117.721 108.696 117.693 108.9 117.723 109.1L117.799 109.59C118.062 111.297 119.121 112.778 120.651 113.578V118.867L119.975 122.137L118.352 124.156L120.11 126.175L120.786 129.445V134.734C119.256 135.534 118.197 137.015 117.934 138.722L117.859 139.212C117.828 139.412 117.857 139.616 117.941 139.8L117.984 139.892C118.126 140.199 118.434 140.396 118.772 140.396H119.033C119.098 140.396 119.144 140.333 119.125 140.271L118.971 139.771C118.921 139.609 118.937 139.434 119.014 139.283C119.108 139.1 119.284 138.972 119.487 138.939L119.593 138.922C119.978 138.859 120.357 139.064 120.516 139.419L120.779 140.006C120.784 140.017 120.786 140.029 120.786 140.041V141.575C120.786 141.608 120.782 141.641 120.774 141.673L120.734 141.83C120.658 142.127 120.256 142.172 120.116 141.9C119.975 141.625 119.568 141.674 119.497 141.975L119.164 143.381L118.514 142.762C118.023 142.295 117.214 142.673 117.257 143.35C117.266 143.485 117.311 143.615 117.388 143.726L117.891 144.451C118.265 144.99 118.879 145.312 119.535 145.312H122.237C122.93 145.312 123.574 144.953 123.938 144.364L124.366 143.672C124.413 143.596 124.444 143.51 124.455 143.422C124.533 142.814 123.782 142.467 123.37 142.92L122.95 143.381L122.709 142.025C122.656 141.726 122.253 141.665 122.115 141.935C121.981 142.195 121.598 142.152 121.525 141.869L121.475 141.673C121.467 141.641 121.463 141.608 121.463 141.575V140.035C121.463 140.027 121.464 140.019 121.466 140.012L121.681 139.374C121.787 139.056 122.116 138.87 122.444 138.941C122.596 138.973 122.732 139.059 122.827 139.182L122.867 139.234C123.006 139.416 123.066 139.646 123.031 139.873L122.966 140.291C122.958 140.346 123.001 140.396 123.057 140.396H123.277C123.577 140.396 123.854 140.236 124.004 139.976L124.015 139.958C124.114 139.787 124.152 139.587 124.123 139.392L123.991 138.491C123.76 136.92 122.831 135.539 121.463 134.734V129.445L122.139 126.175L123.762 124.156L122.139 122.092L121.327 118.867V113.578C122.695 112.773 123.625 111.392 123.856 109.821L123.988 108.92C124.016 108.725 123.978 108.525 123.879 108.354L123.869 108.336C123.719 108.076 123.442 107.916 123.141 107.916H122.921C122.865 107.916 122.823 107.966 122.831 108.021L122.896 108.439C122.93 108.666 122.871 108.896 122.731 109.078L122.692 109.13C122.597 109.253 122.461 109.339 122.309 109.371C121.981 109.442 121.652 109.256 121.545 108.938L121.331 108.3C121.329 108.293 121.327 108.285 121.327 108.277V106.737C121.327 106.704 121.332 106.671 121.34 106.639L121.39 106.443C121.463 106.16 121.846 106.117 121.979 106.377C122.118 106.647 122.521 106.586 122.574 106.287L122.815 104.931L123.234 105.392C123.647 105.845 124.398 105.498 124.32 104.89C124.308 104.802 124.278 104.716 124.231 104.64L123.803 103.948C123.439 103.359 122.795 103 122.102 103Z" fill="#C4C4C4" stroke="black"/>
<path d="M166.102 104H163.399C162.744 104 162.129 104.322 161.756 104.861L161.253 105.586C161.176 105.697 161.131 105.827 161.122 105.962C161.079 106.639 161.888 107.017 162.379 106.55L163.028 105.931L163.362 107.337C163.433 107.638 163.84 107.687 163.981 107.412C164.121 107.14 164.522 107.185 164.599 107.482L164.639 107.639C164.647 107.671 164.651 107.704 164.651 107.737V109.271C164.651 109.283 164.649 109.295 164.644 109.306L164.381 109.893C164.221 110.248 163.842 110.453 163.458 110.39L163.352 110.373C163.149 110.34 162.973 110.212 162.879 110.029C162.801 109.878 162.786 109.703 162.836 109.541L162.99 109.041C163.009 108.979 162.963 108.916 162.897 108.916H162.637C162.298 108.916 161.991 109.113 161.849 109.42L161.806 109.512C161.721 109.696 161.693 109.9 161.723 110.1L161.799 110.59C162.062 112.297 163.121 113.778 164.651 114.578V119.867L163.975 123.137L162.352 125.156L164.11 127.175L164.786 130.445V135.734C163.256 136.534 162.197 138.015 161.934 139.722L161.859 140.212C161.828 140.412 161.857 140.616 161.941 140.8L161.984 140.892C162.126 141.199 162.434 141.396 162.772 141.396H163.033C163.098 141.396 163.144 141.333 163.125 141.271L162.971 140.771C162.921 140.609 162.937 140.434 163.014 140.283C163.108 140.1 163.284 139.972 163.487 139.939L163.593 139.922C163.978 139.859 164.357 140.064 164.516 140.419L164.779 141.006C164.784 141.017 164.786 141.029 164.786 141.041V142.575C164.786 142.608 164.782 142.641 164.774 142.673L164.734 142.83C164.658 143.127 164.256 143.172 164.116 142.9C163.975 142.625 163.568 142.674 163.497 142.975L163.164 144.381L162.514 143.762C162.023 143.295 161.214 143.673 161.257 144.35C161.266 144.485 161.311 144.615 161.388 144.726L161.891 145.451C162.265 145.99 162.879 146.312 163.535 146.312H166.237C166.93 146.312 167.574 145.953 167.938 145.364L168.366 144.672C168.413 144.596 168.444 144.51 168.455 144.422C168.533 143.814 167.782 143.467 167.37 143.92L166.95 144.381L166.709 143.025C166.656 142.726 166.253 142.665 166.115 142.935C165.981 143.195 165.598 143.152 165.525 142.869L165.475 142.673C165.467 142.641 165.463 142.608 165.463 142.575V141.035C165.463 141.027 165.464 141.019 165.466 141.012L165.681 140.374C165.787 140.056 166.116 139.87 166.444 139.941C166.596 139.973 166.732 140.059 166.827 140.182L166.867 140.234C167.006 140.416 167.066 140.646 167.031 140.873L166.966 141.291C166.958 141.346 167.001 141.396 167.057 141.396H167.277C167.577 141.396 167.854 141.236 168.004 140.976L168.015 140.958C168.114 140.787 168.152 140.587 168.123 140.392L167.991 139.491C167.76 137.92 166.831 136.539 165.463 135.734V130.445L166.139 127.175L167.762 125.156L166.139 123.092L165.327 119.867V114.578C166.695 113.773 167.625 112.392 167.856 110.821L167.988 109.92C168.016 109.725 167.978 109.525 167.879 109.354L167.869 109.336C167.719 109.076 167.442 108.916 167.141 108.916H166.921C166.865 108.916 166.823 108.966 166.831 109.021L166.896 109.439C166.93 109.666 166.871 109.896 166.731 110.078L166.692 110.13C166.597 110.253 166.461 110.339 166.309 110.371C165.981 110.442 165.652 110.256 165.545 109.938L165.331 109.3C165.329 109.293 165.327 109.285 165.327 109.277V107.737C165.327 107.704 165.332 107.671 165.34 107.639L165.39 107.443C165.463 107.16 165.846 107.117 165.979 107.377C166.118 107.647 166.521 107.586 166.574 107.287L166.815 105.931L167.234 106.392C167.647 106.845 168.398 106.498 168.32 105.89C168.308 105.802 168.278 105.716 168.231 105.64L167.803 104.948C167.439 104.359 166.795 104 166.102 104Z" fill="#C4C4C4" stroke="black"/>
<path d="M238.359 64C236.238 64 235.828 67.0092 237.871 67.5769L246.763 70.0481C264.85 75.0747 275.947 93.2597 272.145 111.643V111.643V111.643C261.998 117.71 260.729 131.914 269.639 139.684L272.145 141.869V141.869C275.311 159.011 265.3 175.851 248.727 181.258L236.758 185.163C234.63 185.858 235.13 189 237.368 189H277.175C279.937 189 282.175 186.761 282.175 184V69C282.175 66.2386 279.937 64 277.175 64H238.359Z" fill="#C4C4C4" stroke="black"/>
<path d="M277.301 71.4526L278.171 81.971L277.695 84.3509L275.457 89.5747L275.22 87.5229C274.253 79.1466 268.256 72.2164 260.105 70.0569L253.188 68.2241C252.969 68.166 252.816 67.9676 252.816 67.7407V67.0408C252.816 66.7568 253.052 66.5298 253.336 66.5412L272.996 67.3271C275.267 67.4179 277.114 69.1876 277.301 71.4526Z" fill="#0000FF" stroke="black"/>
<path d="M277.713 168.19L277.697 168.152L277.688 168.112L276.422 162.616L275.802 166.634C274.522 174.932 268.311 181.611 260.127 183.489L250.064 185.799C249.836 185.851 249.675 186.053 249.675 186.286V186.964C249.675 187.247 249.91 187.474 250.193 187.464L273.046 186.655C275.346 186.574 277.214 184.77 277.376 182.475L278.285 169.588L277.713 168.19Z" fill="#0000FF" stroke="black"/>
<path d="M44.8167 64C46.9369 64 47.3473 67.0092 45.3045 67.5769L36.4124 70.0481C18.325 75.0747 7.22849 93.2597 11.0308 111.643V111.643V111.643C21.1777 117.71 22.4467 131.914 13.5361 139.684L11.0308 141.869V141.869C7.86444 159.011 17.8755 175.851 34.4481 181.258L46.4173 185.163C48.5452 185.858 48.0455 189 45.8072 189H6C3.23857 189 1 186.761 1 184V69C1 66.2386 3.23858 64 6 64H44.8167Z" fill="#C4C4C4" stroke="black"/>
<path d="M5.87395 71.4526L5.0041 81.971L5.48008 84.3509L7.71886 89.5747L7.95565 87.5229C8.92231 79.1466 14.9194 72.2164 23.0701 70.0569L29.9876 68.2241C30.2068 68.166 30.3595 67.9676 30.3595 67.7407V67.0408C30.3595 66.7568 30.1233 66.5298 29.8395 66.5412L10.1789 67.3271C7.90801 67.4179 6.06125 69.1876 5.87395 71.4526Z" fill="#0000FF" stroke="black"/>
<path d="M5.46269 168.19L5.47811 168.152L5.48724 168.112L6.75377 162.616L7.37356 166.634C8.65362 174.932 14.8647 181.611 23.0484 183.489L33.1118 185.799C33.339 185.851 33.5 186.053 33.5 186.286V186.964C33.5 187.247 33.2652 187.474 32.9823 187.464L10.129 186.655C7.82911 186.574 5.96123 184.77 5.79926 182.475L4.88997 169.588L5.46269 168.19Z" fill="#0000FF" stroke="black"/>
<path d="M12.9999 126.5C12.9999 131.949 9.6499 136.697 4.5 136.986V136.983V136.944V136.906V136.868V136.83V136.792V136.754V136.717V136.679V136.642V136.605V136.569V136.532V136.496V136.46V136.424V136.388V136.352V136.316V136.281V136.246V136.211V136.176V136.141V136.107V136.072V136.038V136.004V135.97V135.936V135.903V135.869V135.836V135.803V135.77V135.737V135.705V135.672V135.64V135.608V135.576V135.544V135.512V135.481V135.449V135.418V135.387V135.356V135.325V135.295V135.264V135.234V135.204V135.174V135.144V135.114V135.084V135.055V135.026V134.996V134.967V134.938V134.91V134.881V134.853V134.824V134.796V134.768V134.74V134.712V134.684V134.657V134.629V134.602V134.575V134.548V134.521V134.494V134.468V134.441V134.415V134.388V134.362V134.336V134.31V134.285V134.259V134.233V134.208V134.183V134.158V134.133V134.108V134.083V134.058V134.034V134.009V133.985V133.961V133.936V133.912V133.889V133.865V133.841V133.818V133.794V133.771V133.748V133.724V133.701V133.678V133.656V133.633V133.61V133.588V133.565V133.543V133.521V133.499V133.477V133.455V133.433V133.412V133.39V133.368V133.347V133.326V133.305V133.283V133.262V133.241V133.221V133.2V133.179V133.159V133.138V133.118V133.097V133.077V133.057V133.037V133.017V132.997V132.977V132.958V132.938V132.918V132.899V132.88V132.86V132.841V132.822V132.803V132.784V132.765V132.746V132.727V132.709V132.69V132.671V132.653V132.634V132.616V132.598V132.58V132.561V132.543V132.525V132.507V132.49V132.472V132.454V132.436V132.419V132.401V132.384V132.366V132.349V132.331V132.314V132.297V132.28V132.263V132.246V132.229V132.212V132.195V132.178V132.161V132.145V132.128V132.111V132.095V132.078V132.062V132.045V132.029V132.013V131.996V131.98V131.964V131.948V131.932V131.916V131.9V131.884V131.868V131.852V131.836V131.82V131.804V131.789V131.773V131.757V131.742V131.726V131.71V131.695V131.679V131.664V131.648V131.633V131.618V131.602V131.587V131.571V131.556V131.541V131.526V131.51V131.495V131.48V131.465V131.45V131.435V131.42V131.405V131.39V131.375V131.36V131.345V131.33V131.315V131.3V131.285V131.27V131.255V131.24V131.225V131.21V131.195V131.18V131.166V131.151V131.136V131.121V131.106V131.091V131.077V131.062V131.047V131.032V131.017V131.003V130.988V130.973V130.958V130.943V130.929V130.914V130.899V130.884V130.869V130.854V130.84V130.825V130.81V130.795V130.78V130.765V130.75V130.735V130.72V130.706V130.691V130.676V130.661V130.646V130.631V130.616V130.601V130.586V130.57V130.555V130.54V130.525V130.51V130.495V130.479V130.464V130.449V130.434V130.418V130.403V130.388V130.372V130.357V130.341V130.326V130.31V130.295V130.279V130.264V130.248V130.232V130.217V130.201V130.185V130.169V130.153V130.137V130.121V130.105V130.089V130.073V130.057V130.041V130.025V130.009V129.992V129.976V129.96V129.943V129.927V129.91V129.894V129.877V129.86V129.844V129.827V129.81V129.793V129.776V129.759V129.742V129.725V129.708V129.691V129.674V129.656V129.639V129.621V129.604V129.586V129.569V129.551V129.533V129.515V129.498V129.48V129.462V129.444V129.425V129.407V129.389V129.371V129.352V129.334V129.315V129.296V129.278V129.259V129.24V129.221V129.202V129.183V129.164V129.145V129.125V129.106V129.086V129.067V129.047V129.028V129.008V128.988V128.968V128.948V128.928V128.907V128.887V128.867V128.846V128.826V128.805V128.784V128.763V128.742V128.721V128.7V128.679V128.658V128.636V128.615V128.593V128.572V128.55V128.528V128.506V128.484V128.462V128.439V128.417V128.394V128.372V128.349V128.326V128.303V128.28V128.257V128.234V128.211V128.187V128.164V128.14V128.116V128.092V128.068V128.044V128.02V127.995V127.971V127.946V127.922V127.897V127.872V127.847V127.822V127.796V127.771V127.746V127.72V127.694V127.668V127.642V127.616V127.59V127.563V127.537V127.51V127.483V127.456V127.429V127.402V127.375V127.348V127.32V127.292V127.264V127.237V127.208V127.18V127.152V127.123V127.095V127.066V127.037V127.008V126.979V126.949V126.92V126.89V126.86V126.831V126.8V126.77V126.74V126.709V126.679V126.648V126.617V126.586V126.555V126.523V126.492V126.46V126.428V126.396V126.364V126.332V126.299V126.267V126.234V126.201V126.168V126.135V126.101V126.068V126.034V126C4.5 123.059 4.4996 121.956 4.56511 120.858C4.62451 119.861 4.7381 118.868 4.95533 116.51C7.4833 116.626 9.43558 117.708 10.7846 119.388C12.2231 121.181 12.9999 123.687 12.9999 126.5Z" fill="#0000FF" stroke="black"/>
<path d="M270.5 126.5C270.5 131.949 273.85 136.697 279 136.986V136.983V136.944V136.906V136.868V136.83V136.792V136.754V136.717V136.679V136.642V136.605V136.569V136.532V136.496V136.46V136.424V136.388V136.352V136.316V136.281V136.246V136.211V136.176V136.141V136.107V136.072V136.038V136.004V135.97V135.936V135.903V135.869V135.836V135.803V135.77V135.737V135.705V135.672V135.64V135.608V135.576V135.544V135.512V135.481V135.449V135.418V135.387V135.356V135.325V135.295V135.264V135.234V135.204V135.174V135.144V135.114V135.084V135.055V135.026V134.996V134.967V134.938V134.91V134.881V134.853V134.824V134.796V134.768V134.74V134.712V134.684V134.657V134.629V134.602V134.575V134.548V134.521V134.494V134.468V134.441V134.415V134.388V134.362V134.336V134.31V134.285V134.259V134.233V134.208V134.183V134.158V134.133V134.108V134.083V134.058V134.034V134.009V133.985V133.961V133.936V133.912V133.889V133.865V133.841V133.818V133.794V133.771V133.748V133.724V133.701V133.678V133.656V133.633V133.61V133.588V133.565V133.543V133.521V133.499V133.477V133.455V133.433V133.412V133.39V133.368V133.347V133.326V133.305V133.283V133.262V133.241V133.221V133.2V133.179V133.159V133.138V133.118V133.097V133.077V133.057V133.037V133.017V132.997V132.977V132.958V132.938V132.918V132.899V132.88V132.86V132.841V132.822V132.803V132.784V132.765V132.746V132.727V132.709V132.69V132.671V132.653V132.634V132.616V132.598V132.58V132.561V132.543V132.525V132.507V132.49V132.472V132.454V132.436V132.419V132.401V132.384V132.366V132.349V132.331V132.314V132.297V132.28V132.263V132.246V132.229V132.212V132.195V132.178V132.161V132.145V132.128V132.111V132.095V132.078V132.062V132.045V132.029V132.013V131.996V131.98V131.964V131.948V131.932V131.916V131.9V131.884V131.868V131.852V131.836V131.82V131.804V131.789V131.773V131.757V131.742V131.726V131.71V131.695V131.679V131.664V131.648V131.633V131.618V131.602V131.587V131.571V131.556V131.541V131.526V131.51V131.495V131.48V131.465V131.45V131.435V131.42V131.405V131.39V131.375V131.36V131.345V131.33V131.315V131.3V131.285V131.27V131.255V131.24V131.225V131.21V131.195V131.18V131.166V131.151V131.136V131.121V131.106V131.091V131.077V131.062V131.047V131.032V131.017V131.003V130.988V130.973V130.958V130.943V130.929V130.914V130.899V130.884V130.869V130.854V130.84V130.825V130.81V130.795V130.78V130.765V130.75V130.735V130.72V130.706V130.691V130.676V130.661V130.646V130.631V130.616V130.601V130.586V130.57V130.555V130.54V130.525V130.51V130.495V130.479V130.464V130.449V130.434V130.418V130.403V130.388V130.372V130.357V130.341V130.326V130.31V130.295V130.279V130.264V130.248V130.232V130.217V130.201V130.185V130.169V130.153V130.137V130.121V130.105V130.089V130.073V130.057V130.041V130.025V130.009V129.992V129.976V129.96V129.943V129.927V129.91V129.894V129.877V129.86V129.844V129.827V129.81V129.793V129.776V129.759V129.742V129.725V129.708V129.691V129.674V129.656V129.639V129.621V129.604V129.586V129.569V129.551V129.533V129.515V129.498V129.48V129.462V129.444V129.425V129.407V129.389V129.371V129.352V129.334V129.315V129.296V129.278V129.259V129.24V129.221V129.202V129.183V129.164V129.145V129.125V129.106V129.086V129.067V129.047V129.028V129.008V128.988V128.968V128.948V128.928V128.907V128.887V128.867V128.846V128.826V128.805V128.784V128.763V128.742V128.721V128.7V128.679V128.658V128.636V128.615V128.593V128.572V128.55V128.528V128.506V128.484V128.462V128.439V128.417V128.394V128.372V128.349V128.326V128.303V128.28V128.257V128.234V128.211V128.187V128.164V128.14V128.116V128.092V128.068V128.044V128.02V127.995V127.971V127.946V127.922V127.897V127.872V127.847V127.822V127.796V127.771V127.746V127.72V127.694V127.668V127.642V127.616V127.59V127.563V127.537V127.51V127.483V127.456V127.429V127.402V127.375V127.348V127.32V127.292V127.264V127.237V127.208V127.18V127.152V127.123V127.095V127.066V127.037V127.008V126.979V126.949V126.92V126.89V126.86V126.831V126.8V126.77V126.74V126.709V126.679V126.648V126.617V126.586V126.555V126.523V126.492V126.46V126.428V126.396V126.364V126.332V126.299V126.267V126.234V126.201V126.168V126.135V126.101V126.068V126.034V126C279 123.059 279 121.956 278.935 120.858C278.875 119.861 278.762 118.868 278.545 116.51C276.017 116.626 274.064 117.708 272.715 119.388C271.277 121.181 270.5 123.687 270.5 126.5Z" fill="#0000FF" stroke="black"/>
<defs>
<filter id="filter0_d" x="96" y="103.688" width="84" height="49.624" filterUnits="userSpaceOnUse" color-interpolation-filters="sRGB">
<feFlood flood-opacity="0" result="BackgroundImageFix"/>
<feColorMatrix in="SourceAlpha" type="matrix" values="0 0 0 0 0 0 0 0 0 0 0 0 0 0 0 0 0 0 127 0" result="hardAlpha"/>
<feOffset dx="-4" dy="4"/>
<feGaussianBlur stdDeviation="2"/>
<feComposite in2="hardAlpha" operator="out"/>
<feColorMatrix type="matrix" values="0 0 0 0 0 0 0 0 0 0 0 0 0 0 0 0 0 0 0.25 0"/>
<feBlend mode="normal" in2="BackgroundImageFix" result="effect1_dropShadow"/>
<feBlend mode="normal" in="SourceGraphic" in2="effect1_dropShadow" result="shape"/>
</filter>
</defs>
</svg>
