<svg width="281" height="248" viewBox="0 0 281 248" fill="none" xmlns="http://www.w3.org/2000/svg">
<rect width="281" height="248" fill="#C4C4C4"/>
<path d="M1 67H280V186H1V67Z" fill="#706F6F" stroke="black" stroke-width="2"/>
<g filter="url(#filter0_i)">
<path d="M160.165 117.423C163.05 115.477 165.774 113.302 168.309 110.918L190.952 89.627C195.608 85.2496 201.059 81.8051 207.011 79.4801L222.788 73.3172C227.567 71.4502 232.606 70.33 237.726 69.9961L276 67.5L270 184.118H230L224.564 183.416C209.911 181.522 195.038 184.394 182.143 191.606L181.204 192.132C175.438 195.357 169.195 197.641 162.71 198.9V198.9C147.249 201.899 131.246 200.262 116.713 194.193L112.193 192.305C105.423 189.479 98.333 187.49 91.0806 186.384L76.5345 184.165C61.3608 181.851 45.9651 186.635 34.7745 197.14L28 203.5L0 248L14.3658 186.756C17.3376 174.087 25.1314 163.076 36.0918 156.061L44 151L50.4827 138.685C60.2826 120.068 84.7377 115.201 100.919 128.646V128.646C112.228 138.042 128.379 138.851 140.57 130.633L160.165 117.423Z" fill="#C4C4C4"/>
</g>
<path d="M44.8849 151.466L44.7617 151.7L44.5391 151.842L36.6309 156.903C25.8897 163.778 18.2517 174.569 15.3394 186.985L2.3399 242.404L27.1536 202.967L27.222 202.859L27.3156 202.771L34.09 196.411C45.5045 185.696 61.2081 180.816 76.6852 183.177L91.2314 185.395C98.5644 186.514 105.733 188.524 112.578 191.383L117.099 193.27C131.45 199.263 147.252 200.88 162.519 197.918C168.9 196.68 175.043 194.432 180.716 191.259L181.655 190.734C194.737 183.417 209.827 180.503 224.693 182.424L230.064 183.118H269.05L274.944 68.571L237.792 70.994C232.773 71.3212 227.836 72.419 223.152 74.2487L207.375 80.4115C201.542 82.6901 196.199 86.0657 191.637 90.3555L168.994 111.647C166.42 114.068 163.654 116.276 160.724 118.252L141.129 131.462C128.57 139.929 111.93 139.095 100.28 129.415C84.5875 116.376 60.8714 121.097 51.3676 139.151L44.8849 151.466Z" stroke="black" stroke-width="2"/>
<path d="M270 67H276C278.209 67 280 68.7909 280 71V182C280 184.209 278.209 186 276 186H270C267.791 186 266 184.209 266 182V71C266 68.7909 267.791 67 270 67Z" fill="#413838" stroke="black" stroke-width="2"/>
<g filter="url(#filter1_i)">
<path d="M52 140.5L52.2396 140.544C57.706 141.544 63.3316 140.022 67.5481 136.402L70.5452 133.829C75.2164 129.819 82.0216 129.515 87.0313 133.094V133.094C90.4721 135.552 94.8725 136.237 98.8981 134.943L104.5 133.143L113.5 137L103.294 142.103C98.7022 144.399 93.2978 144.399 88.7064 142.103V142.103C82.5777 139.039 75.1872 140.132 70.2082 144.84L68.3246 146.621C64.1983 150.522 58.6091 152.487 52.9494 152.025L46.5 151.5L52 140.5Z" fill="#670025" fill-opacity="0.96"/>
</g>
<path d="M52.09 140.008L51.7207 139.941L51.5528 140.276L46.0528 151.276L45.7219 151.938L46.4594 151.998L52.9087 152.524C58.7099 152.996 64.4388 150.983 68.6681 146.984L70.5517 145.203C75.3781 140.64 82.542 139.58 88.4828 142.55C93.215 144.917 98.785 144.917 103.517 142.55L113.724 137.447L114.688 136.965L113.697 136.54L104.697 132.683L104.525 132.61L104.347 132.667L98.7451 134.467C94.87 135.713 90.6341 135.053 87.3219 132.687C82.1249 128.975 75.0653 129.29 70.2195 133.45L67.2224 136.023C63.1204 139.544 57.6475 141.025 52.3296 140.052L52.09 140.008Z" stroke="black"/>
<g filter="url(#filter2_i)">
<path d="M231.5 73L228.504 91.3309C225.03 112.582 231.53 134.25 246.129 150.079L264.5 170V181.5H259.5L236.862 154.997C225.083 141.207 219.116 123.383 220.218 105.28L222 76L231.5 73Z" fill="#670025" fill-opacity="0.96"/>
</g>
<path d="M231.993 73.0807L232.125 72.2784L231.349 72.5232L221.849 75.5232L221.522 75.6267L221.501 75.9696L219.719 105.25C218.609 123.482 224.619 141.433 236.482 155.322L259.12 181.825L259.27 182H259.5H264.5H265V181.5V170V169.805L264.868 169.661L246.496 149.74C232.002 134.024 225.548 112.511 228.997 91.4116L231.993 73.0807Z" stroke="black"/>
<path d="M186.993 97.0843L187.215 95.788L186.188 96.6096L178.688 102.61L179 103L178.513 102.885C173.454 124.389 179.05 147.013 193.55 163.679L208.472 180.828L208.621 181H208.849H212H218H219.069L218.384 180.179L201.105 159.49C188.052 143.861 182.51 123.293 185.943 103.222L186.993 97.0843ZM209.348 81.0342L209.407 80.1616L208.625 80.5528L200.625 84.5528L200.376 84.6772L200.351 84.9543L198.502 105.086C196.792 123.702 202.547 142.236 214.5 156.61L235.464 181.82L235.614 182H235.849H240.849H245.849H246.904L246.236 181.183L223.293 153.142C212.095 139.456 206.535 122.016 207.746 104.374L209.348 81.0342Z" fill="#670025" fill-opacity="0.96" stroke="black"/>
<path d="M20.4999 176C26.8814 175.42 32.7739 179.459 34.5343 185.62L36.4999 192.5L31.4999 197.5L29.7107 191.139C28.1249 185.5 22.8501 181.707 16.9999 182V182L20.4999 176V176Z" fill="#670025" fill-opacity="0.96"/>
<path d="M15.4999 190.5C19.702 189.94 23.6057 192.771 24.3777 196.94L25.4999 203L20.9999 210L20.3981 200.672C20.1908 197.459 17.1233 195.219 13.9999 196V196L15.4999 190.5V190.5Z" fill="#670025" fill-opacity="0.96"/>
<path d="M12 203C13.1723 202.844 14.0585 202.884 14.7438 203.113C18.7983 204.47 17.5 210.72 17.5 214.996V216.569L13.9999 223.5L14.4644 218.656C14.8209 214.937 15.3534 209.23 11.6563 209.765C11.3046 209.816 10.92 209.895 10.5 210L12 203Z" fill="#670025" fill-opacity="0.96"/>
<path d="M20.4999 176C26.8814 175.42 32.7739 179.459 34.5343 185.62L36.4999 192.5L31.4999 197.5L29.7107 191.139C28.1249 185.5 22.8501 181.707 16.9999 182V182L20.4999 176V176Z" stroke="black"/>
<path d="M15.4999 190.5C19.702 189.94 23.6057 192.771 24.3777 196.94L25.4999 203L20.9999 210L20.3981 200.672C20.1908 197.459 17.1233 195.219 13.9999 196V196L15.4999 190.5V190.5Z" stroke="black"/>
<path d="M12 203C13.1723 202.844 14.0585 202.884 14.7438 203.113C18.7983 204.47 17.5 210.72 17.5 214.996V216.569L13.9999 223.5L14.4644 218.656C14.8209 214.937 15.3534 209.23 11.6563 209.765C11.3046 209.816 10.92 209.895 10.5 210L12 203Z" stroke="black"/>
<defs>
<filter id="filter0_i" x="0" y="63.5" width="276" height="184.5" filterUnits="userSpaceOnUse" color-interpolation-filters="sRGB">
<feFlood flood-opacity="0" result="BackgroundImageFix"/>
<feBlend mode="normal" in="SourceGraphic" in2="BackgroundImageFix" result="shape"/>
<feColorMatrix in="SourceAlpha" type="matrix" values="0 0 0 0 0 0 0 0 0 0 0 0 0 0 0 0 0 0 127 0" result="hardAlpha"/>
<feOffset dy="-4"/>
<feGaussianBlur stdDeviation="2"/>
<feComposite in2="hardAlpha" operator="arithmetic" k2="-1" k3="1"/>
<feColorMatrix type="matrix" values="0 0 0 0 0 0 0 0 0 0 0 0 0 0 0 0 0 0 0.25 0"/>
<feBlend mode="normal" in2="shape" result="effect1_innerShadow"/>
</filter>
<filter id="filter1_i" x="44.9437" y="129.602" width="70.932" height="27.4892" filterUnits="userSpaceOnUse" color-interpolation-filters="sRGB">
<feFlood flood-opacity="0" result="BackgroundImageFix"/>
<feBlend mode="normal" in="SourceGraphic" in2="BackgroundImageFix" result="shape"/>
<feColorMatrix in="SourceAlpha" type="matrix" values="0 0 0 0 0 0 0 0 0 0 0 0 0 0 0 0 0 0 127 0" result="hardAlpha"/>
<feOffset dy="4"/>
<feGaussianBlur stdDeviation="2"/>
<feComposite in2="hardAlpha" operator="arithmetic" k2="-1" k3="1"/>
<feColorMatrix type="matrix" values="0 0 0 0 0 0 0 0 0 0 0 0 0 0 0 0 0 0 0.25 0"/>
<feBlend mode="normal" in2="shape" result="effect1_innerShadow"/>
</filter>
<filter id="filter2_i" x="219.088" y="71.5568" width="46.4117" height="114.943" filterUnits="userSpaceOnUse" color-interpolation-filters="sRGB">
<feFlood flood-opacity="0" result="BackgroundImageFix"/>
<feBlend mode="normal" in="SourceGraphic" in2="BackgroundImageFix" result="shape"/>
<feColorMatrix in="SourceAlpha" type="matrix" values="0 0 0 0 0 0 0 0 0 0 0 0 0 0 0 0 0 0 127 0" result="hardAlpha"/>
<feOffset dy="4"/>
<feGaussianBlur stdDeviation="2"/>
<feComposite in2="hardAlpha" operator="arithmetic" k2="-1" k3="1"/>
<feColorMatrix type="matrix" values="0 0 0 0 0 0 0 0 0 0 0 0 0 0 0 0 0 0 0.25 0"/>
<feBlend mode="normal" in2="shape" result="effect1_innerShadow"/>
</filter>
</defs>
</svg>
