<svg width="281" height="248" viewBox="0 0 281 248" fill="none" xmlns="http://www.w3.org/2000/svg">
<rect width="281" height="248" fill="#C4C4C4"/>
<path d="M1.00009 68H280V187H1.00009V68Z" fill="#706F6F" stroke="black" stroke-width="2"/>
<g filter="url(#filter0_i)">
<path d="M0 185.608H6.5H20.275C27.3446 185.608 34.3338 184.109 40.7815 181.209L41.0359 181.095C46.3248 178.717 51.2977 175.69 55.8402 172.085L59.6344 169.074C71.7143 159.488 85.8477 152.826 100.93 149.608L115.5 146.499L133.814 143.476C139.582 142.525 145.446 142.299 151.27 142.805L171 144.519L183.874 147.164C192.913 149.021 201.643 152.147 209.806 156.449L218.362 160.958C225.044 164.479 230.897 169.386 235.531 175.351V175.351C240.559 181.822 248.294 185.608 256.489 185.608L265 185.608L274.963 187.72C278.073 188.379 281 186.008 281 182.829V75.7939C281 73.1871 278.997 71.0177 276.399 70.8098L245.548 68.3415C236.229 67.5959 227.06 65.5471 218.31 62.2549L185.541 49.9261C166.65 42.8187 146.015 41.7683 126.5 46.9208V46.9208L97.5 56.8218L71.7198 65.0681C67.2512 66.4974 62.6503 67.4739 57.9865 67.9828L39.5 70H15L1.5 67.2175L0 185.608Z" fill="#C4C4C4"/>
</g>
<path d="M14.7981 70.9794L2.48457 68.4415L1.01275 184.608H6.5H20.275C27.2032 184.608 34.0526 183.139 40.3713 180.297L40.6258 180.183C45.8391 177.838 50.7409 174.855 55.2186 171.302L59.0128 168.291C71.2135 158.609 85.4883 151.88 100.721 148.63L115.291 145.521L115.314 145.516L115.337 145.512L133.652 142.49C139.502 141.524 145.45 141.296 151.357 141.809L171.087 143.522L171.144 143.527L171.201 143.539L184.076 146.185C193.206 148.061 202.026 151.219 210.272 155.565L218.828 160.073C225.636 163.661 231.599 168.66 236.321 174.737C241.159 180.965 248.603 184.608 256.489 184.608L265 184.608H265.105L265.207 184.63L275.17 186.742C277.658 187.269 280 185.372 280 182.829V75.7939C280 73.7084 278.398 71.9729 276.319 71.8066L245.468 69.3383C236.056 68.5852 226.795 66.5159 217.958 63.1909L185.189 50.862C166.503 43.8319 146.093 42.7895 126.789 47.8787L97.8231 57.7682L97.8139 57.7713L97.8047 57.7743L72.0244 66.0206C67.4921 67.4703 62.8254 68.4608 58.0949 68.9769L39.6085 70.9941L39.5544 71H39.5H15H14.898L14.7981 70.9794Z" stroke="black" stroke-width="2"/>
<g filter="url(#filter1_i)">
<path d="M148.775 115.843C151.206 102.565 149.747 88.8667 144.571 76.3991L141.5 69L140.907 66.7959C139.034 59.8415 139.779 52.4417 143 46V46L170 44L192 54.5L187.5 66L185.927 71.7666C184.359 77.5187 178.173 80.6659 172.6 78.5481V78.5481C165.751 75.9452 158.497 81.2764 158.935 88.5907L159.404 96.3987C159.468 97.4633 159.419 98.5316 159.259 99.5859L158.207 106.498C156.751 116.062 157.294 125.824 159.801 135.168L161.5 141.5H160.795C158.935 141.5 157.08 141.333 155.25 141V141C153.42 140.667 151.565 140.5 149.705 140.5H146V137.356C146 133.127 146.383 128.908 147.145 124.748L148.775 115.843Z" fill="#670025"/>
</g>
<path d="M148.775 115.843C151.206 102.565 149.747 88.8667 144.571 76.3991L141.5 69L140.907 66.7959C139.034 59.8415 139.779 52.4417 143 46V46L170 44L192 54.5L187.5 66L185.927 71.7666C184.359 77.5187 178.173 80.6659 172.6 78.5481V78.5481C165.751 75.9452 158.497 81.2764 158.935 88.5907L159.404 96.3987C159.468 97.4633 159.419 98.5316 159.259 99.5859L158.207 106.498C156.751 116.062 157.294 125.824 159.801 135.168L161.5 141.5H160.795C158.935 141.5 157.08 141.333 155.25 141V141C153.42 140.667 151.565 140.5 149.705 140.5H146V137.356C146 133.127 146.383 128.908 147.145 124.748L148.775 115.843Z" stroke="black"/>
<g filter="url(#filter2_i)">
<path d="M49 70.5C62.8715 79.452 73.0725 93.082 77.7504 108.915L90 150.375L81 153.375L60.617 104.541C58.2164 98.7893 55.0585 93.3843 51.2271 88.469L38 71.5H40L45 71L49 70.5V70.5Z" fill="#670025"/>
<path d="M74.5 66.5C87.2072 74.6982 99.2659 89.5041 102.628 103.482C104.041 109.353 104.091 115.499 105.258 121.423L110 145.5L102.5 147L92.8284 105.236C91.9444 101.419 90.8142 97.6179 88.5618 94.4114C86.3376 91.245 83.4732 87.9829 80.9327 85.0592C78.6109 82.3871 76.1938 79.7943 73.5927 77.3932L64.5 69L69.5 68L74.5 66.5Z" fill="#670025"/>
<path d="M101.5 58C106.415 66.9229 115.02 71.9633 121.819 81.1891C124.973 85.4683 126.513 90.7001 125.687 95.9514C124.573 103.036 122.2 111.937 123 116L124.036 122.736C124.677 126.903 125.694 131.005 127.073 134.989L129.5 142L124 143L121.982 137.497C119.673 131.198 118.281 124.601 117.849 117.906L117.5 112.5L118.5 100.5V100.5C119.816 94.9085 119.414 89.1535 115.322 85.1224C114.462 84.2757 113.645 83.4178 113 82.5C110.776 79.3336 110.473 79.4829 107.933 76.5592C105.611 73.8871 103.194 71.2943 100.593 68.8932L91.5 60.5L96.5 59.5L101.5 58Z" fill="#670025"/>
</g>
<path d="M49 70.5C62.8715 79.452 73.0725 93.082 77.7504 108.915L90 150.375L81 153.375L60.617 104.541C58.2164 98.7893 55.0585 93.3843 51.2271 88.469L38 71.5H40L45 71L49 70.5V70.5Z" stroke="black"/>
<path d="M74.5 66.5C87.2072 74.6982 99.2659 89.5041 102.628 103.482C104.041 109.353 104.091 115.499 105.258 121.423L110 145.5L102.5 147L92.8284 105.236C91.9444 101.419 90.8142 97.6179 88.5618 94.4114C86.3376 91.245 83.4732 87.9829 80.9327 85.0592C78.6109 82.3871 76.1938 79.7943 73.5927 77.3932L64.5 69L69.5 68L74.5 66.5Z" stroke="black"/>
<path d="M101.5 58C106.415 66.9229 115.02 71.9633 121.819 81.1891C124.973 85.4683 126.513 90.7001 125.687 95.9514C124.573 103.036 122.2 111.937 123 116L124.036 122.736C124.677 126.903 125.694 131.005 127.073 134.989L129.5 142L124 143L121.982 137.497C119.673 131.198 118.281 124.601 117.849 117.906L117.5 112.5L118.5 100.5V100.5C119.816 94.9085 119.414 89.1535 115.322 85.1224C114.462 84.2757 113.645 83.4178 113 82.5C110.776 79.3336 110.473 79.4829 107.933 76.5592C105.611 73.8871 103.194 71.2943 100.593 68.8932L91.5 60.5L96.5 59.5L101.5 58Z" stroke="black"/>
<g filter="url(#filter3_i)">
<path d="M241.275 89.3738C236.514 93.0553 232.844 97.9613 230.657 103.567L229.237 107.206C227.098 112.687 226 118.519 226 124.403V129.574C226 138.119 224.435 146.592 221.384 154.574L219.5 159.5V159.5C222.483 160.826 225.249 162.593 227.706 164.743L228 165L232.402 155.965C235.723 149.148 236.902 141.486 235.785 133.986L235.57 132.54C234.549 125.687 235.75 118.609 238.928 112.452V112.452C240.938 108.557 243.745 105.063 247.128 102.277V102.277C249.366 100.434 251.346 98.2984 253.014 95.9276L256.523 90.9409C258.837 87.6531 261.429 84.5707 264.272 81.7279L265.5 80.5L266.618 74.6307C267.02 72.5214 265.042 70.7375 262.985 71.3545V71.3545C262.664 71.4508 262.329 71.4899 261.995 71.4703L254 71L250.902 77.4626C248.665 82.129 245.368 86.208 241.275 89.3738V89.3738Z" fill="#670025"/>
<path d="M232.5 68.5C217 78.5 202.465 98.3312 203.5 114.5L202.5 133L203.5 151V151C205.484 151.661 207.336 152.669 208.969 153.975L209 154L208.109 145.094C207.704 141.039 207.653 136.957 207.958 132.893L208.575 124.666C208.858 120.895 209.446 117.153 210.333 113.477L211.318 109.396C212.105 106.136 213.065 102.898 214.758 100.003C216.967 96.2222 219.986 92.1595 222.791 88.5927C226.529 83.8408 230.958 79.6761 235.814 76.0738L244 70H242.72C239.259 70 235.816 69.4947 232.5 68.5V68.5Z" fill="#670025"/>
<path d="M206.5 60.5C201.585 69.4229 192.98 74.4633 186.181 83.6891C183.027 87.9683 181.487 93.2001 182.313 98.4514C183.427 105.536 185.8 114.437 185 118.5L184.03 124.806C183.345 129.258 182.232 133.634 180.706 137.872L178.5 144L184 145L185.772 140.329C188.243 133.813 189.728 126.964 190.177 120.01L190.5 115L189.5 103V103C188.184 97.4085 188.586 91.6535 192.678 87.6224C193.538 86.7757 194.355 85.9178 195 85C197.224 81.8336 197.527 81.9829 200.067 79.0592C202.389 76.3871 204.806 73.7943 207.407 71.3932L216.5 63.5L211.5 62L206.5 60.5Z" fill="#670025"/>
</g>
<path d="M241.275 89.3738C236.514 93.0553 232.844 97.9613 230.657 103.567L229.237 107.206C227.098 112.687 226 118.519 226 124.403V129.574C226 138.119 224.435 146.592 221.384 154.574L219.5 159.5V159.5C222.483 160.826 225.249 162.593 227.706 164.743L228 165L232.402 155.965C235.723 149.148 236.902 141.486 235.785 133.986L235.57 132.54C234.549 125.687 235.75 118.609 238.928 112.452V112.452C240.938 108.557 243.745 105.063 247.128 102.277V102.277C249.366 100.434 251.346 98.2984 253.014 95.9276L256.523 90.9409C258.837 87.6531 261.429 84.5707 264.272 81.7279L265.5 80.5L266.618 74.6307C267.02 72.5214 265.042 70.7375 262.985 71.3545V71.3545C262.664 71.4508 262.329 71.4899 261.995 71.4703L254 71L250.902 77.4626C248.665 82.129 245.368 86.208 241.275 89.3738V89.3738Z" stroke="black"/>
<path d="M232.5 68.5C217 78.5 202.465 98.3312 203.5 114.5L202.5 133L203.5 151V151C205.484 151.661 207.336 152.669 208.969 153.975L209 154L208.109 145.094C207.704 141.039 207.653 136.957 207.958 132.893L208.575 124.666C208.858 120.895 209.446 117.153 210.333 113.477L211.318 109.396C212.105 106.136 213.065 102.898 214.758 100.003C216.967 96.2222 219.986 92.1595 222.791 88.5927C226.529 83.8408 230.958 79.6761 235.814 76.0738L244 70H242.72C239.259 70 235.816 69.4947 232.5 68.5V68.5Z" stroke="black"/>
<path d="M206.5 60.5C201.585 69.4229 192.98 74.4633 186.181 83.6891C183.027 87.9683 181.487 93.2001 182.313 98.4514C183.427 105.536 185.8 114.437 185 118.5L184.03 124.806C183.345 129.258 182.232 133.634 180.706 137.872L178.5 144L184 145L185.772 140.329C188.243 133.813 189.728 126.964 190.177 120.01L190.5 115L189.5 103V103C188.184 97.4085 188.586 91.6535 192.678 87.6224C193.538 86.7757 194.355 85.9178 195 85C197.224 81.8336 197.527 81.9829 200.067 79.0592C202.389 76.3871 204.806 73.7943 207.407 71.3932L216.5 63.5L211.5 62L206.5 60.5Z" stroke="black"/>
<path d="M14.7981 70.9794L2.48457 68.4415L1.01275 184.608H6.5H20.275C27.2032 184.608 34.0526 183.139 40.3713 180.297L40.6258 180.183C45.8391 177.838 50.7409 174.855 55.2186 171.302L59.0128 168.291C71.2135 158.609 85.4883 151.88 100.721 148.63L115.291 145.521L115.314 145.516L115.337 145.512L133.652 142.49C139.502 141.524 145.45 141.296 151.357 141.809L171.087 143.522L171.144 143.527L171.201 143.539L184.076 146.185C193.206 148.061 202.026 151.219 210.272 155.565L218.828 160.073C225.636 163.661 231.599 168.66 236.321 174.737C241.159 180.965 248.603 184.608 256.489 184.608L265 184.608H265.105L265.207 184.63L275.17 186.742C277.658 187.269 280 185.372 280 182.829V75.7939C280 73.7084 278.398 71.9729 276.319 71.8066L245.468 69.3383C236.056 68.5852 226.795 66.5159 217.958 63.1909L185.189 50.862C166.503 43.8319 146.093 42.7895 126.789 47.8787L97.8231 57.7682L97.8139 57.7713L97.8047 57.7743L72.0244 66.0206C67.4921 67.4703 62.8254 68.4608 58.0949 68.9769L39.6085 70.9941L39.5544 71H39.5H15H14.898L14.7981 70.9794Z" stroke="black" stroke-width="2"/>
<path d="M271 68H276C278.209 68 280 69.7909 280 72V183C280 185.209 278.209 187 276 187H271C268.791 187 267 185.209 267 183V72C267 69.7909 268.791 68 271 68Z" fill="#413838" stroke="black" stroke-width="2"/>
<path d="M5 67.5H10C12.4853 67.5 14.5 69.5147 14.5 72V183C14.5 185.485 12.4853 187.5 10 187.5H5C2.51472 187.5 0.5 185.485 0.5 183V72C0.5 69.5147 2.51472 67.5 5 67.5Z" fill="#413838" stroke="black"/>
<g filter="url(#filter4_d)">
<rect x="0.311745" y="0.638365" width="38.5221" height="26.7564" rx="9.5" transform="matrix(0.944144 0.329534 -0.320653 0.947197 150.721 37.6903)" fill="#327138" stroke="black"/>
<path d="M161.041 39.3863L179.473 45.8195C184.426 47.5484 187.078 52.9788 185.396 57.9484L182.909 65.2953C181.226 70.2649 175.847 72.892 170.893 71.1631L152.462 64.7299C147.508 63.0009 144.856 57.5706 146.538 52.6009L149.026 45.2541C150.708 40.2844 156.087 37.6573 161.041 39.3863Z" fill="#327138" stroke="black"/>
<path d="M175.377 50.3537C177.091 54.2998 175.313 58.8717 171.417 60.5707C167.521 62.2696 162.969 60.4586 161.254 56.5125C159.54 52.5664 161.319 47.9945 165.214 46.2955C169.11 44.5966 173.662 46.4076 175.377 50.3537Z" fill="#327138" stroke="black"/>
<path d="M175.948 48.3448C177.662 52.2909 175.883 56.8628 171.988 58.5618C168.092 60.2607 163.54 58.4497 161.825 54.5036C160.111 50.5575 161.889 45.9856 165.785 44.2866C169.681 42.5877 174.233 44.3987 175.948 48.3448Z" fill="#327138" stroke="black"/>
</g>
<defs>
<filter id="filter0_i" x="-4" y="39.7003" width="285" height="148.13" filterUnits="userSpaceOnUse" color-interpolation-filters="sRGB">
<feFlood flood-opacity="0" result="BackgroundImageFix"/>
<feBlend mode="normal" in="SourceGraphic" in2="BackgroundImageFix" result="shape"/>
<feColorMatrix in="SourceAlpha" type="matrix" values="0 0 0 0 0 0 0 0 0 0 0 0 0 0 0 0 0 0 127 0" result="hardAlpha"/>
<feOffset dx="-5" dy="-4"/>
<feGaussianBlur stdDeviation="2"/>
<feComposite in2="hardAlpha" operator="arithmetic" k2="-1" k3="1"/>
<feColorMatrix type="matrix" values="0 0 0 0 0 0 0 0 0 0 0 0 0 0 0 0 0 0 0.25 0"/>
<feBlend mode="normal" in2="shape" result="effect1_innerShadow"/>
</filter>
<filter id="filter1_i" x="139.395" y="43.4916" width="53.2397" height="102.508" filterUnits="userSpaceOnUse" color-interpolation-filters="sRGB">
<feFlood flood-opacity="0" result="BackgroundImageFix"/>
<feBlend mode="normal" in="SourceGraphic" in2="BackgroundImageFix" result="shape"/>
<feColorMatrix in="SourceAlpha" type="matrix" values="0 0 0 0 0 0 0 0 0 0 0 0 0 0 0 0 0 0 127 0" result="hardAlpha"/>
<feOffset dy="4"/>
<feGaussianBlur stdDeviation="2"/>
<feComposite in2="hardAlpha" operator="arithmetic" k2="-1" k3="1"/>
<feColorMatrix type="matrix" values="0 0 0 0 0 0 0 0 0 0 0 0 0 0 0 0 0 0 0.25 0"/>
<feBlend mode="normal" in2="shape" result="effect1_innerShadow"/>
</filter>
<filter id="filter2_i" x="36.9763" y="57.405" width="93.187" height="100.591" filterUnits="userSpaceOnUse" color-interpolation-filters="sRGB">
<feFlood flood-opacity="0" result="BackgroundImageFix"/>
<feBlend mode="normal" in="SourceGraphic" in2="BackgroundImageFix" result="shape"/>
<feColorMatrix in="SourceAlpha" type="matrix" values="0 0 0 0 0 0 0 0 0 0 0 0 0 0 0 0 0 0 127 0" result="hardAlpha"/>
<feOffset dy="4"/>
<feGaussianBlur stdDeviation="2"/>
<feComposite in2="hardAlpha" operator="arithmetic" k2="-1" k3="1"/>
<feColorMatrix type="matrix" values="0 0 0 0 0 0 0 0 0 0 0 0 0 0 0 0 0 0 0.25 0"/>
<feBlend mode="normal" in2="shape" result="effect1_innerShadow"/>
</filter>
<filter id="filter3_i" x="177.83" y="59.905" width="89.3411" height="109.902" filterUnits="userSpaceOnUse" color-interpolation-filters="sRGB">
<feFlood flood-opacity="0" result="BackgroundImageFix"/>
<feBlend mode="normal" in="SourceGraphic" in2="BackgroundImageFix" result="shape"/>
<feColorMatrix in="SourceAlpha" type="matrix" values="0 0 0 0 0 0 0 0 0 0 0 0 0 0 0 0 0 0 127 0" result="hardAlpha"/>
<feOffset dy="4"/>
<feGaussianBlur stdDeviation="2"/>
<feComposite in2="hardAlpha" operator="arithmetic" k2="-1" k3="1"/>
<feColorMatrix type="matrix" values="0 0 0 0 0 0 0 0 0 0 0 0 0 0 0 0 0 0 0.25 0"/>
<feBlend mode="normal" in2="shape" result="effect1_innerShadow"/>
</filter>
<filter id="filter4_d" x="136.273" y="38.3531" width="50.1273" height="43.9851" filterUnits="userSpaceOnUse" color-interpolation-filters="sRGB">
<feFlood flood-opacity="0" result="BackgroundImageFix"/>
<feColorMatrix in="SourceAlpha" type="matrix" values="0 0 0 0 0 0 0 0 0 0 0 0 0 0 0 0 0 0 127 0" result="hardAlpha"/>
<feOffset dx="-4" dy="4"/>
<feGaussianBlur stdDeviation="2"/>
<feComposite in2="hardAlpha" operator="out"/>
<feColorMatrix type="matrix" values="0 0 0 0 0 0 0 0 0 0 0 0 0 0 0 0 0 0 0.25 0"/>
<feBlend mode="normal" in2="BackgroundImageFix" result="effect1_dropShadow"/>
<feBlend mode="normal" in="SourceGraphic" in2="effect1_dropShadow" result="shape"/>
</filter>
</defs>
</svg>
