<svg width="324" height="248" viewBox="0 0 324 248" fill="none" xmlns="http://www.w3.org/2000/svg">
<rect width="324" height="248" fill="#C4C4C4"/>
<rect x="1" y="67" width="277" height="119" stroke="black" strokeWidth="2"/>
<path d="M106.843 66.5L278.909 186.5H0.5V66.5H106.843Z" fill="#B10000" stroke="black"/>
<g filter="url(#filter0_d)">
<ellipse cx="94" cy="89.5" rx="13" ry="11.5" fill="url(#paint0_radial)"/>
<path d="M106.5 89.5C106.5 95.5193 100.963 100.5 94 100.5C87.0371 100.5 81.5 95.5193 81.5 89.5C81.5 83.4807 87.0371 78.5 94 78.5C100.963 78.5 106.5 83.4807 106.5 89.5Z" stroke="black"/>
</g>
<g filter="url(#filter1_d)">
<ellipse cx="140" cy="126.5" rx="13" ry="11.5" fill="url(#paint1_radial)"/>
<path d="M152.5 126.5C152.5 132.519 146.963 137.5 140 137.5C133.037 137.5 127.5 132.519 127.5 126.5C127.5 120.481 133.037 115.5 140 115.5C146.963 115.5 152.5 120.481 152.5 126.5Z" stroke="black"/>
</g>
<g filter="url(#filter2_d)">
<ellipse cx="187" cy="159.5" rx="13" ry="11.5" fill="url(#paint2_radial)"/>
<path d="M199.5 159.5C199.5 165.519 193.963 170.5 187 170.5C180.037 170.5 174.5 165.519 174.5 159.5C174.5 153.481 180.037 148.5 187 148.5C193.963 148.5 199.5 153.481 199.5 159.5Z" stroke="black"/>
</g>
<defs>
<filter id="filter0_d" x="71" y="72" width="42" height="39" filterUnits="userSpaceOnUse" color-interpolation-filters="sRGB">
<feFlood flood-opacity="0" result="BackgroundImageFix"/>
<feColorMatrix in="SourceAlpha" type="matrix" values="0 0 0 0 0 0 0 0 0 0 0 0 0 0 0 0 0 0 127 0" result="hardAlpha"/>
<feMorphology radius="3" operator="dilate" in="SourceAlpha" result="effect1_dropShadow"/>
<feOffset dx="-2" dy="2"/>
<feGaussianBlur stdDeviation="2.5"/>
<feComposite in2="hardAlpha" operator="out"/>
<feColorMatrix type="matrix" values="0 0 0 0 0 0 0 0 0 0 0 0 0 0 0 0 0 0 0.2 0"/>
<feBlend mode="normal" in2="BackgroundImageFix" result="effect1_dropShadow"/>
<feBlend mode="normal" in="SourceGraphic" in2="effect1_dropShadow" result="shape"/>
</filter>
<filter id="filter1_d" x="117" y="109" width="42" height="39" filterUnits="userSpaceOnUse" color-interpolation-filters="sRGB">
<feFlood flood-opacity="0" result="BackgroundImageFix"/>
<feColorMatrix in="SourceAlpha" type="matrix" values="0 0 0 0 0 0 0 0 0 0 0 0 0 0 0 0 0 0 127 0" result="hardAlpha"/>
<feMorphology radius="3" operator="dilate" in="SourceAlpha" result="effect1_dropShadow"/>
<feOffset dx="-2" dy="2"/>
<feGaussianBlur stdDeviation="2.5"/>
<feComposite in2="hardAlpha" operator="out"/>
<feColorMatrix type="matrix" values="0 0 0 0 0 0 0 0 0 0 0 0 0 0 0 0 0 0 0.2 0"/>
<feBlend mode="normal" in2="BackgroundImageFix" result="effect1_dropShadow"/>
<feBlend mode="normal" in="SourceGraphic" in2="effect1_dropShadow" result="shape"/>
</filter>
<filter id="filter2_d" x="164" y="142" width="42" height="39" filterUnits="userSpaceOnUse" color-interpolation-filters="sRGB">
<feFlood flood-opacity="0" result="BackgroundImageFix"/>
<feColorMatrix in="SourceAlpha" type="matrix" values="0 0 0 0 0 0 0 0 0 0 0 0 0 0 0 0 0 0 127 0" result="hardAlpha"/>
<feMorphology radius="3" operator="dilate" in="SourceAlpha" result="effect1_dropShadow"/>
<feOffset dx="-2" dy="2"/>
<feGaussianBlur stdDeviation="2.5"/>
<feComposite in2="hardAlpha" operator="out"/>
<feColorMatrix type="matrix" values="0 0 0 0 0 0 0 0 0 0 0 0 0 0 0 0 0 0 0.2 0"/>
<feBlend mode="normal" in2="BackgroundImageFix" result="effect1_dropShadow"/>
<feBlend mode="normal" in="SourceGraphic" in2="effect1_dropShadow" result="shape"/>
</filter>
<radialGradient id="paint0_radial" cx="0" cy="0" r="1" gradientUnits="userSpaceOnUse" gradientTransform="translate(94 89.5) rotate(90) scale(11.5 13)">
<stop stop-color="#927201"/>
<stop offset="0.473958" stop-color="#FC9F14"/>
<stop offset="0.65625" stop-color="#BBA681"/>
<stop offset="0.838542" stop-color="#402800"/>
<stop offset="0.9999" stop-color="#000700"/>
</radialGradient>
<radialGradient id="paint1_radial" cx="0" cy="0" r="1" gradientUnits="userSpaceOnUse" gradientTransform="translate(140 126.5) rotate(90) scale(11.5 13)">
<stop stop-color="#927201"/>
<stop offset="0.473958" stop-color="#FC9F14"/>
<stop offset="0.65625" stop-color="#BBA681"/>
<stop offset="0.838542" stop-color="#402800"/>
<stop offset="0.9999" stop-color="#000700"/>
</radialGradient>
<radialGradient id="paint2_radial" cx="0" cy="0" r="1" gradientUnits="userSpaceOnUse" gradientTransform="translate(187 159.5) rotate(90) scale(11.5 13)">
<stop stop-color="#927201"/>
<stop offset="0.473958" stop-color="#FC9F14"/>
<stop offset="0.65625" stop-color="#BBA681"/>
<stop offset="0.838542" stop-color="#402800"/>
<stop offset="0.9999" stop-color="#000700"/>
</radialGradient>
</defs>
</svg>
