<svg width="324" height="248" viewBox="0 0 324 248" fill="none" xmlns="http://www.w3.org/2000/svg">
<rect x="1.52588e-05" width="324" height="248" fill="#C4C4C4"/>
<rect x="1.00002" y="67" width="250.79" height="119" fill="#706F6F" stroke="black" stroke-width="2"/>
<path d="M0.500015 66.5H148.508L150.299 186.5H0.500015V66.5Z" fill="#C4C4C4" stroke="black"/>
<path d="M140.525 141.512C137.055 145.103 131.355 145.047 127.629 141.385L86.0049 100.482C82.2003 96.7434 81.8592 90.6361 85.2413 86.8074L102.666 67.082L131.308 67.053L161.94 67.0219L167.54 73.232L168.179 93.9386L168.746 112.306L140.525 141.512Z" fill="#FFFF00" stroke="black"/>
<path d="M157.122 93.0712C157.065 90.3116 159.219 88.1099 161.96 88.1816C163.336 88.2176 164.362 88.7468 165.056 89.575C165.757 90.4125 166.164 91.6089 166.193 93.0453C166.223 94.4841 165.866 95.8065 165.182 96.7481C164.508 97.677 163.504 98.2544 162.165 98.2194C159.425 98.1477 157.178 95.8309 157.122 93.0712Z" fill="#008000" stroke="black"/>
<path d="M94.0744 95.9098C92.0225 94.0151 91.8015 90.8004 93.5501 88.7313C95.2987 86.6622 98.3778 86.4949 100.43 88.3896C102.482 90.2842 102.703 93.4989 100.954 95.568C99.2054 97.6371 96.1263 97.8044 94.0744 95.9098Z" fill="#008000" stroke="black"/>
<path d="M126.01 131.743C123.958 129.848 123.737 126.633 125.486 124.564C127.234 122.495 130.313 122.328 132.365 124.222C134.417 126.117 134.638 129.332 132.889 131.401C131.141 133.47 128.062 133.637 126.01 131.743Z" fill="#008000" stroke="black"/>
<path d="M47.2368 135.079C50.8102 131.291 56.7352 131.361 60.4294 135.233L84.9807 160.969C88.5199 164.679 88.7327 170.557 85.4646 174.339L74.6385 186.869L54.723 186.87L33.4235 186.871L29.6785 182.43L29.5109 167.373L29.3623 154.025L47.2368 135.079Z" fill="#FFFF00" stroke="black"/>
<path d="M34.6575 168.185C34.6755 170.119 33.1512 171.678 31.2288 171.642C30.7452 171.633 30.4344 171.527 30.2273 171.387C30.0255 171.251 29.8778 171.051 29.7684 170.764C29.6555 170.468 29.589 170.092 29.5524 169.631C29.5158 169.172 29.511 168.662 29.5058 168.1C29.4951 166.949 29.4937 166.051 29.7193 165.432C29.824 165.144 29.9688 164.948 30.1683 164.817C30.3727 164.683 30.6809 164.588 31.1633 164.598C33.0857 164.634 34.6395 166.25 34.6575 168.185Z" fill="#008000" stroke="black"/>
<path d="M80.6122 165.875C82.0294 167.19 82.1652 169.445 80.9192 170.913C79.6732 172.381 77.5144 172.508 76.0973 171.193C74.6801 169.879 74.5442 167.623 75.7903 166.156C77.0363 164.688 79.1951 164.561 80.6122 165.875Z" fill="#008000" stroke="black"/>
<path d="M57.661 139.911C59.0781 141.225 59.214 143.481 57.968 144.949C56.722 146.416 54.5632 146.544 53.146 145.229C51.7289 143.914 51.593 141.659 52.839 140.191C54.0851 138.723 56.2438 138.596 57.661 139.911Z" fill="#008000" stroke="black"/>
<rect x="-0.00556529" y="0.72257" width="91.1101" height="12.7234" rx="6.36171" transform="matrix(0.685685 0.728409 -0.696816 0.716731 51.4244 90.1975)" fill="#FFFF00" stroke="black"/>
<rect x="-0.00556529" y="0.72257" width="91.1101" height="12.7234" rx="6.36171" transform="matrix(0.685685 0.728409 -0.696816 0.716731 51.4244 90.1975)" fill="#FFFF00" stroke="black"/>
<path d="M108.626 155.974C108.406 156.201 108.153 156.322 107.938 156.352C107.724 156.382 107.58 156.321 107.499 156.235C107.417 156.148 107.361 155.997 107.393 155.773C107.426 155.55 107.545 155.287 107.766 155.06C107.987 154.833 108.24 154.712 108.454 154.682C108.668 154.652 108.812 154.713 108.894 154.8C108.975 154.886 109.031 155.037 108.999 155.261C108.967 155.485 108.847 155.747 108.626 155.974Z" fill="#008000" stroke="black"/>
<path d="M103.247 161.507C103.027 161.734 102.774 161.855 102.559 161.885C102.345 161.915 102.201 161.854 102.12 161.767C102.038 161.681 101.982 161.53 102.014 161.306C102.047 161.082 102.166 160.82 102.387 160.593C102.608 160.366 102.861 160.245 103.075 160.215C103.289 160.185 103.433 160.246 103.515 160.332C103.596 160.419 103.652 160.57 103.62 160.794C103.588 161.018 103.468 161.28 103.247 161.507Z" fill="#008000" stroke="black"/>
<path d="M52.5344 96.3872C52.3138 96.6141 52.061 96.7351 51.8464 96.7652C51.6321 96.7952 51.4884 96.7344 51.4069 96.6478C51.3253 96.5612 51.2694 96.41 51.3016 96.1865C51.3338 95.9627 51.4537 95.7004 51.6743 95.4734C51.8949 95.2465 52.1478 95.1255 52.3623 95.0954C52.5767 95.0654 52.7204 95.1263 52.8019 95.2129C52.8834 95.2995 52.9393 95.4506 52.9071 95.6742C52.8749 95.8979 52.7551 96.1603 52.5344 96.3872Z" fill="#008000" stroke="black"/>
<path d="M47.1554 101.92C46.9348 102.147 46.6819 102.268 46.4674 102.298C46.253 102.328 46.1093 102.267 46.0278 102.181C45.9463 102.094 45.8904 101.943 45.9226 101.719C45.9548 101.495 46.0746 101.233 46.2952 101.006C46.5159 100.779 46.7687 100.658 46.9833 100.628C47.1976 100.598 47.3413 100.659 47.4228 100.746C47.5044 100.832 47.5602 100.983 47.5281 101.207C47.4959 101.431 47.376 101.693 47.1554 101.92Z" fill="#008000" stroke="black"/>
<rect x="0.691274" y="-0.000150174" width="138.943" height="14.6563" rx="7.32813" transform="matrix(0.691109 -0.722743 0.691438 0.722443 35.8311 167.628)" fill="#FFFF00" stroke="black"/>
<path d="M130.129 73.5953C130.592 74.079 130.592 74.8635 130.129 75.3476C129.666 75.8316 128.916 75.8318 128.453 75.3481C127.99 74.8644 127.989 74.0799 128.452 73.5958C128.915 73.1118 129.666 73.1116 130.129 73.5953Z" fill="#008000" stroke="black"/>
<path d="M136.218 79.9576C136.681 80.4413 136.681 81.2258 136.218 81.7099C135.755 82.1939 135.005 82.1941 134.542 81.7104C134.079 81.2267 134.079 80.4421 134.542 79.9581C135.004 79.474 135.755 79.4739 136.218 79.9576Z" fill="#008000" stroke="black"/>
<path d="M44.2342 163.421C44.6972 163.905 44.6974 164.69 44.2345 165.174C43.7717 165.658 43.0211 165.658 42.5582 165.174C42.0952 164.69 42.095 163.906 42.5579 163.422C43.0208 162.938 43.7713 162.938 44.2342 163.421Z" fill="#008000" stroke="black"/>
<path d="M50.3235 169.784C50.7864 170.267 50.7866 171.052 50.3238 171.536C49.8609 172.02 49.1104 172.02 48.6474 171.536C48.1845 171.053 48.1843 170.268 48.6472 169.784C49.11 169.3 49.8605 169.3 50.3235 169.784Z" fill="#008000" stroke="black"/>
<rect x="0.691274" y="-0.000150204" width="138.943" height="14.6563" rx="7.32813" transform="matrix(0.691109 -0.722743 0.691438 0.722443 46.3539 177.627)" fill="#FFFF00" stroke="black"/>
<rect x="0.691274" y="-0.000150204" width="138.943" height="14.6563" rx="7.32813" transform="matrix(0.691109 -0.722743 0.691438 0.722443 46.3539 177.627)" fill="#FFFF00" stroke="black"/>
<path d="M140.651 83.5949C141.114 84.0786 141.115 84.8631 140.652 85.3472C140.189 85.8312 139.438 85.8314 138.975 85.3477C138.512 84.864 138.512 84.0794 138.975 83.5954C139.438 83.1113 140.189 83.1112 140.651 83.5949Z" fill="#008000" stroke="black"/>
<path d="M146.741 89.9572C147.204 90.4409 147.204 91.2254 146.741 91.7095C146.278 92.1935 145.528 92.1937 145.065 91.71C144.602 91.2263 144.602 90.4417 145.064 89.9577C145.527 89.4736 146.278 89.4735 146.741 89.9572Z" fill="#008000" stroke="black"/>
<path d="M54.7571 173.421C55.22 173.905 55.2202 174.689 54.7574 175.173C54.2945 175.657 53.544 175.657 53.081 175.174C52.6181 174.69 52.6179 173.905 53.0808 173.421C53.5436 172.937 54.2941 172.937 54.7571 173.421Z" fill="#008000" stroke="black"/>
<path d="M60.8464 179.783C61.3093 180.267 61.3095 181.051 60.8466 181.536C60.3838 182.02 59.6332 182.02 59.1703 181.536C58.7073 181.052 58.7072 180.268 59.17 179.784C59.6329 179.3 60.3834 179.3 60.8464 179.783Z" fill="#008000" stroke="black"/>
<path d="M162.819 174.567C160.704 174.566 158.957 172.775 158.958 170.525C158.96 168.275 160.708 166.486 162.823 166.487C164.938 166.488 166.685 168.279 166.684 170.529C166.683 172.779 164.934 174.568 162.819 174.567Z" fill="#008000" stroke="black"/>
<path d="M47.9262 77.5444C45.8959 77.5435 44.1926 75.7673 44.1937 73.5027C44.1949 71.2381 45.9 69.4635 47.9303 69.4644C49.9606 69.4654 51.6639 71.2416 51.6628 73.5062C51.6616 75.7708 49.9565 77.5454 47.9262 77.5444Z" fill="#008000" stroke="black"/>
<g filter="url(#filter0_d23)">
<path d="M125.505 56.2177C131.056 56.8121 135.265 61.4965 135.265 67.0792C135.265 69.0007 134.556 70.8545 133.274 72.2856L124.192 82.4223C106.326 102.363 110.605 133.566 133.179 147.961L164.579 167.984L164.716 168.293C166.081 171.369 162.336 174.166 159.773 171.984L132.16 155.141C103.732 137.8 99.8786 98.0396 124.447 75.5636L130.459 70.0633C131.383 66.1476 128.737 62.2862 124.752 61.7347L119.341 60.9858C116.018 60.526 112.657 61.5022 110.098 63.6703L108.019 65.4318C100.868 71.4906 89.888 69.1331 85.7523 60.722C82.714 54.5428 75.663 51.3759 69.0431 53.2702C67.3896 53.7434 65.8356 54.5124 64.4564 55.5399L63.1649 56.5021C60.3285 58.4722 57.9908 61.0768 56.3379 64.109L50.6723 74.5023L50.3485 74.7781C48.394 76.4422 45.3871 75.0531 45.3872 72.4862L49.7044 64.4517C52.2424 59.7283 55.8719 55.6795 60.2908 52.6422L62.0062 51.4632C63.4207 50.491 64.9625 49.7186 66.5882 49.1679L71.586 47.4749C78.1868 45.2389 85.3827 48.5635 87.9587 55.0393C91.0369 62.7777 100.461 65.716 107.391 61.0983L108.735 60.2032C109.44 59.7334 110.185 59.3268 110.962 58.988L116.305 56.6566C118.022 55.9072 119.905 55.6181 121.769 55.8176L125.505 56.2177Z" fill="url(#paint0_diamond23)"/>
<path d="M160.098 171.604L160.068 171.578L160.034 171.558L132.42 154.714C104.277 137.547 100.462 98.1837 124.785 75.9325L130.797 70.4322L130.911 70.3281L130.946 70.1781C131.938 65.9755 129.098 61.8313 124.821 61.2394L119.409 60.4905C115.946 60.0112 112.443 61.0288 109.775 63.2889L107.696 65.0503C100.796 70.8959 90.195 68.6243 86.201 60.5013C83.057 54.1072 75.7603 50.8279 68.9055 52.7895C67.1939 53.2793 65.5853 54.0753 64.1577 55.139L62.8728 56.0963C59.9756 58.1101 57.5877 60.7717 55.8989 63.8697L50.2777 74.1817L50.0243 74.3974C48.4255 75.7587 45.982 74.6698 45.8898 72.607L50.1448 64.6883C52.6452 60.0352 56.2208 56.0465 60.574 53.0543L62.2894 51.8753C63.666 50.9291 65.1665 50.1774 66.7486 49.6415L71.7464 47.9485C78.0953 45.7979 85.0165 48.9955 87.4941 55.2241C90.6898 63.258 100.473 66.3084 107.669 61.5144L109.012 60.6193C109.693 60.1658 110.412 59.7733 111.161 59.4463L116.505 57.1148C118.143 56.4002 119.939 56.1245 121.715 56.3147L125.452 56.7149C130.749 57.2821 134.765 61.752 134.765 67.0792C134.765 68.8775 134.102 70.6126 132.902 71.952L123.819 82.0887C105.748 102.259 110.076 133.822 132.911 148.383L164.183 168.325L164.259 168.495C165.408 171.085 162.255 173.44 160.098 171.604Z" stroke="black"/>
</g>
<path d="M147.207 174.565C144.857 174.564 142.988 172.736 142.989 170.523C142.99 168.31 144.861 166.484 147.211 166.485C149.56 166.486 151.43 168.314 151.428 170.527C151.427 172.74 149.556 174.566 147.207 174.565Z" fill="#008000" stroke="black"/>
<path d="M68.101 76.566C65.9884 76.5649 64.2424 74.7746 64.2435 72.5241C64.2446 70.2735 65.9923 68.485 68.1049 68.486C70.2175 68.4871 71.9635 70.2774 71.9624 72.5279C71.9613 74.7784 70.2136 76.567 68.101 76.566Z" fill="#008000" stroke="black"/>
<g filter="url(#filter1_d23)">
<path d="M109.47 55.1582C116.705 55.9109 122.201 62.0089 122.201 69.283L121.068 105.634C120.772 115.152 123.199 124.557 128.066 132.742L149.908 169.483C149.908 171.677 147.509 173.028 145.632 171.89L144.96 171.483L122.374 133.041C117.454 124.666 115.079 115.041 115.54 105.339L117.254 69.283C118.201 65.3808 115.561 61.5168 111.581 60.9817L100.432 59.4827L88.5575 59.4827L80.1465 61.9827L70.7692 73.7159C70.1442 74.4978 69.1446 74.8796 68.1575 74.7133C65.6385 74.2891 65.001 70.9633 67.1846 69.6377L67.769 69.283L74.7042 59.4827C81.7438 54.9555 90.1313 52.9991 98.4475 53.9446L105.379 54.7327L109.47 55.1582Z" fill="url(#paint1_diamond23)"/>
<path d="M100.498 58.9872L100.465 58.9827L100.432 58.9827L88.5575 58.9827L88.4847 58.9827L88.415 59.0034L80.0041 61.5034L79.8538 61.5481L79.756 61.6705L70.3786 73.4037C69.867 74.0438 69.0486 74.3564 68.2405 74.2203C66.1784 73.873 65.6565 71.1503 67.4441 70.0651L68.0284 69.7104L68.1171 69.6565L68.1771 69.5718L75.0561 59.851C81.982 55.4233 90.2213 53.5126 98.391 54.4414L105.323 55.2295L105.328 55.23L109.418 55.6555C116.396 56.3814 121.697 62.2607 121.701 69.2752L120.568 105.618C120.269 115.231 122.721 124.731 127.636 132.998L149.404 169.614C149.311 171.341 147.397 172.376 145.892 171.463L145.327 171.121L122.805 132.787C117.934 124.497 115.583 114.967 116.04 105.363L117.751 69.3537C118.736 65.1792 115.906 61.0586 111.648 60.4861L100.498 58.9872Z" stroke="black"/>
</g>
<path d="M133.352 174.077C131.003 174.076 129.133 172.248 129.134 170.035C129.135 167.822 131.007 165.996 133.356 165.997C135.705 165.998 137.575 167.826 137.574 170.039C137.573 172.252 135.701 174.078 133.352 174.077Z" fill="#008000" stroke="black"/>
<path d="M54.2464 78.078C52.1338 78.0769 50.3878 76.2866 50.3889 74.0361C50.39 71.7855 52.1377 69.997 54.2503 69.998C56.3629 69.9991 58.1089 71.7894 58.1078 74.0399C58.1067 76.2904 56.359 78.079 54.2464 78.078Z" fill="#008000" stroke="black"/>
<g filter="url(#filter2_d23)">
<path d="M115.797 59.1702C123.032 59.9229 128.529 66.0209 128.529 73.295L126.654 77.9827L117.761 97.5338C110.882 112.657 111.964 130.209 120.649 144.372L136.053 169.495C136.053 171.689 133.654 173.04 131.778 171.902L131.106 171.495L114.804 144.561C106.165 130.287 105.215 112.644 112.272 97.5245L123.581 73.295C124.529 69.3928 121.889 65.5287 117.909 64.9937L106.759 63.4947L99.8721 62.709C95.6408 62.2263 91.3687 62.2182 87.1355 62.6849L73.1335 64.2286C68.7174 64.7155 64.6177 66.7546 61.565 69.9825L56.9195 74.8947C56.2789 75.572 55.3104 75.8291 54.4182 75.5586C52.7488 75.0525 52.1218 73.0178 53.2169 71.6598L53.9144 70.795C59.9967 64.1375 68.2115 59.8111 77.1421 58.5617L84.4736 57.536C89.4158 56.8446 94.4256 56.7799 99.3839 57.3437L111.707 58.7447L115.797 59.1702Z" fill="url(#paint2_diamond23)"/>
<path d="M124.034 73.5065L124.055 73.4614L124.067 73.413C125.085 69.2224 122.25 65.0728 117.976 64.4981L106.826 62.9992L106.826 62.9991L106.816 62.9979L99.9288 62.2122C95.6604 61.7253 91.3509 61.7172 87.0807 62.1879L73.0787 63.7316C68.5449 64.2314 64.3358 66.3249 61.2017 69.639L56.5562 74.5511C56.0458 75.0908 55.2742 75.2956 54.5633 75.0801C53.2331 74.6768 52.7336 73.0557 53.6061 71.9737L54.2939 71.1209C60.2967 64.5558 68.4011 60.2894 77.2114 59.0568L84.5429 58.0311C89.4434 57.3456 94.4109 57.2815 99.3275 57.8405L111.651 59.2415L111.651 59.2415L111.655 59.242L115.746 59.6675C122.694 60.3904 127.981 66.2237 128.029 73.1995L126.194 77.7863L117.306 97.3268C110.358 112.601 111.451 130.329 120.223 144.634L135.55 169.63C135.454 171.354 133.541 172.387 132.037 171.475L131.47 171.131L115.232 144.303C106.679 130.171 105.739 112.704 112.725 97.736L124.034 73.5065Z" stroke="black"/>
</g>
<rect x="245.896" y="67.4825" width="33.6332" height="120" fill="url(#paint3_diamond23)" stroke="black"/>
<g filter="url(#filter3_ddiif23)">
<rect x="259.22" y="65.9827" width="20.7799" height="122" fill="#433D47"/>
</g>
<path d="M177.13 89.9825C177.13 68.4434 194.591 50.9825 216.13 50.9825H252.312V202.982H216.13C194.591 202.982 177.13 185.522 177.13 163.982V89.9825Z" fill="#C4C4C4" stroke="black" stroke-width="2"/>
<g filter="url(#filter4_ii23)">
<rect y="66.1774" width="19.7904" height="121" rx="5" fill="#0000FF"/>
</g>
<rect x="0.5" y="66.6774" width="18.7904" height="120" rx="4.5" stroke="black"/>
<path d="M12.3638 89.6774C12.3638 91.3392 11.0321 92.6774 9.40044 92.6774C7.76879 92.6774 6.43712 91.3392 6.43712 89.6774C6.43712 88.0156 7.76879 86.6774 9.40044 86.6774C11.0321 86.6774 12.3638 88.0156 12.3638 89.6774Z" fill="#008000" stroke="black"/>
<path d="M12.2959 67.5414C12.2959 69.2033 10.9642 70.5414 9.33258 70.5414C7.70094 70.5414 6.36926 69.2033 6.36926 67.5414C6.36926 67.1181 6.45507 66.9055 6.53991 66.7936C6.61907 66.6892 6.74689 66.6069 6.98772 66.5556C7.23862 66.5022 7.56025 66.4935 7.97197 66.5038C8.10473 66.5072 8.24913 66.5126 8.40098 66.5183C8.69373 66.5294 9.01421 66.5415 9.33258 66.5415C9.65095 66.5415 9.97143 66.5294 10.2642 66.5183C10.416 66.5126 10.5604 66.5072 10.6932 66.5038C11.1049 66.4935 11.4265 66.5022 11.6774 66.5556C11.9183 66.6069 12.0461 66.6892 12.1253 66.7936C12.2101 66.9055 12.2959 67.1181 12.2959 67.5414ZM9.8952 182.677C11.5268 182.677 12.8585 184.016 12.8585 185.677C12.8585 186.101 12.7727 186.313 12.6879 186.425C12.6087 186.53 12.4809 186.612 12.2401 186.663C11.9892 186.717 11.6675 186.725 11.2558 186.715C11.1231 186.712 10.9787 186.706 10.8268 186.701C10.5341 186.689 10.2136 186.677 9.8952 186.677C9.57681 186.677 9.25631 186.689 8.96355 186.701C8.81171 186.706 8.66733 186.712 8.53458 186.715C8.12287 186.725 7.80124 186.717 7.55033 186.663C7.3095 186.612 7.18168 186.53 7.10252 186.425C7.01768 186.313 6.93188 186.101 6.93188 185.677C6.93188 184.016 8.26355 182.677 9.8952 182.677Z" fill="#008000" stroke="black"/>
<path d="M12.3638 137.677C12.3638 139.339 11.0321 140.677 9.40044 140.677C7.76879 140.677 6.43712 139.339 6.43712 137.677C6.43712 136.016 7.76879 134.677 9.40044 134.677C11.0321 134.677 12.3638 136.016 12.3638 137.677Z" fill="#008000" stroke="black"/>
<path d="M12.3638 112.677C12.3638 114.339 11.0321 115.677 9.40044 115.677C7.76879 115.677 6.43712 114.339 6.43712 112.677C6.43712 111.016 7.76879 109.677 9.40044 109.677C11.0321 109.677 12.3638 111.016 12.3638 112.677Z" fill="#008000" stroke="black"/>
<path d="M12.3638 160.677C12.3638 162.339 11.0321 163.677 9.40044 163.677C7.76879 163.677 6.43712 162.339 6.43712 160.677C6.43712 159.016 7.76879 157.677 9.40044 157.677C11.0321 157.677 12.3638 159.016 12.3638 160.677Z" fill="#008000" stroke="black"/>
<g filter="url(#filter5_ii23)">
<rect x="164.256" y="66.1599" width="19.7904" height="121" rx="5" fill="#0000FF"/>
</g>
<rect x="164.756" y="66.6599" width="18.7904" height="120" rx="4.5" stroke="black"/>
<path d="M176.619 89.6599C176.619 91.3217 175.288 92.6599 173.656 92.6599C172.024 92.6599 170.693 91.3217 170.693 89.6599C170.693 87.9981 172.024 86.6599 173.656 86.6599C175.288 86.6599 176.619 87.9981 176.619 89.6599Z" fill="#008000" stroke="black"/>
<path d="M176.552 67.5239C176.552 69.1858 175.22 70.5239 173.588 70.5239C171.957 70.5239 170.625 69.1858 170.625 67.5239C170.625 67.1006 170.711 66.888 170.796 66.7761C170.875 66.6717 171.003 66.5894 171.243 66.5381C171.494 66.4847 171.816 66.476 172.228 66.4863C172.36 66.4897 172.505 66.4951 172.657 66.5008C172.949 66.5119 173.27 66.5239 173.588 66.5239C173.907 66.5239 174.227 66.5119 174.52 66.5008C174.672 66.4951 174.816 66.4897 174.949 66.4863C175.361 66.476 175.682 66.4847 175.933 66.5381C176.174 66.5894 176.302 66.6717 176.381 66.7761C176.466 66.888 176.552 67.1006 176.552 67.5239ZM174.151 182.66C175.783 182.66 177.114 183.998 177.114 185.66C177.114 186.083 177.028 186.296 176.944 186.408C176.864 186.512 176.737 186.594 176.496 186.646C176.245 186.699 175.923 186.708 175.512 186.698C175.379 186.694 175.234 186.689 175.083 186.683C174.79 186.672 174.469 186.66 174.151 186.66C173.833 186.66 173.512 186.672 173.219 186.683C173.067 186.689 172.923 186.694 172.79 186.698C172.379 186.708 172.057 186.699 171.806 186.646C171.565 186.594 171.437 186.512 171.358 186.408C171.273 186.296 171.188 186.083 171.188 185.66C171.188 183.998 172.519 182.66 174.151 182.66Z" fill="#008000" stroke="black"/>
<path d="M176.619 137.66C176.619 139.322 175.288 140.66 173.656 140.66C172.024 140.66 170.693 139.322 170.693 137.66C170.693 135.998 172.024 134.66 173.656 134.66C175.288 134.66 176.619 135.998 176.619 137.66Z" fill="#008000" stroke="black"/>
<path d="M176.619 112.66C176.619 114.322 175.288 115.66 173.656 115.66C172.024 115.66 170.693 114.322 170.693 112.66C170.693 110.998 172.024 109.66 173.656 109.66C175.288 109.66 176.619 110.998 176.619 112.66Z" fill="#008000" stroke="black"/>
<path d="M176.619 160.66C176.619 162.322 175.288 163.66 173.656 163.66C172.024 163.66 170.693 162.322 170.693 160.66C170.693 158.998 172.024 157.66 173.656 157.66C175.288 157.66 176.619 158.998 176.619 160.66Z" fill="#008000" stroke="black"/>
<path d="M217.205 196.078C214.724 196.077 212.834 194.337 212.835 192.331C212.836 190.325 214.728 188.587 217.209 188.588C219.691 188.59 221.58 190.33 221.579 192.335C221.578 194.341 219.687 196.079 217.205 196.078Z" fill="#008000" stroke="black"/>
<path d="M198.412 87.1639C196.175 87.1628 194.413 85.4582 194.414 83.4171C194.415 81.376 196.179 79.6732 198.416 79.6743C200.653 79.6754 202.415 81.38 202.414 83.4211C202.413 85.4622 200.649 87.165 198.412 87.1639Z" fill="#008000" stroke="black"/>
<g filter="url(#filter6_d23)">
<path d="M222.321 57.3718C223.769 59.6484 224.253 62.4077 223.664 65.0411L220.691 78.3484C220.237 80.3826 219.082 82.1923 217.428 83.4609C213.722 86.3033 212.85 91.5296 215.431 95.4217L217.786 98.9717C218.933 100.7 219.664 102.67 219.922 104.728L222.487 125.132C222.865 128.137 222.969 131.17 222.797 134.194L219.534 191.825L219.534 192.234C219.534 194.153 217.477 195.37 215.794 194.446C214.956 193.986 214.45 193.091 214.487 192.136L216.714 135.09C216.855 131.473 216.603 127.852 215.962 124.29L213.891 112.769C213.673 111.558 213.563 110.329 213.563 109.098C213.563 104.252 211.866 99.5592 208.768 95.8331L207.732 94.5864C204.878 91.191 205.214 86.1488 208.491 83.1612L211.34 80.5647C213.338 78.7439 214.679 76.3148 215.155 73.6541L215.927 69.3422L217.366 60.8569C217.401 60.6493 217.241 60.4599 217.031 60.4599C216.96 60.4599 216.892 60.4381 216.834 60.3975L215.811 59.6736C214.043 58.423 211.619 58.6888 210.164 60.2931L208.322 62.3232C207.629 63.0877 207.104 63.9891 206.78 64.9693L205.46 68.9715C205.019 70.3103 204.682 71.6813 204.452 73.0722L203.476 78.993C203.367 79.6499 203.172 80.2895 202.896 80.8951L201.299 84.3918C200.743 85.6088 199.407 86.2668 198.104 85.9662C195.586 85.3859 195.112 82.0044 197.374 80.7563C197.702 80.5757 197.99 80.3317 198.222 80.0385L198.61 79.5475C199.414 78.5323 199.863 77.2818 199.889 75.9873L200.004 70.2867C200.081 66.4946 201.227 62.8014 203.311 59.6324L203.987 58.6052C204.807 57.3573 205.836 56.2598 207.029 55.3607L207.949 54.6669C209.82 53.2567 212.13 52.5562 214.468 52.6903C217.644 52.8723 220.539 54.5709 222.246 57.2547L222.321 57.3718Z" fill="url(#paint4_diamond23)"/>
<path d="M219.034 191.797L219.034 191.811L219.034 191.825L219.034 192.234C219.034 193.773 217.384 194.749 216.035 194.008C215.363 193.639 214.957 192.921 214.987 192.155L217.213 135.109C217.356 131.456 217.102 127.799 216.454 124.201L214.383 112.681C214.17 111.498 214.063 110.299 214.063 109.098C214.063 104.135 212.325 99.3293 209.153 95.5134L208.116 94.2668L208.114 94.2648C205.434 91.0748 205.749 86.3376 208.828 83.5308L211.677 80.9342C213.756 79.0393 215.152 76.5113 215.647 73.7422L216.419 69.4303L216.419 69.4303L216.42 69.4258L217.859 60.9405C217.943 60.4453 217.577 59.9921 217.084 59.9616L216.1 59.2654C214.125 57.8688 211.418 58.1657 209.793 59.9571L207.952 61.9873C207.212 62.8036 206.651 63.7661 206.305 64.8127L204.985 68.8149C204.536 70.1782 204.192 71.5744 203.959 72.9908L202.982 78.9116C202.881 79.5249 202.699 80.122 202.441 80.6874L200.844 84.1841C200.387 85.1849 199.288 85.7262 198.216 85.479C196.145 85.0016 195.756 82.2202 197.616 81.1941C198.001 80.9814 198.341 80.6941 198.614 80.3489L199.003 79.8579C199.874 78.757 200.361 77.4011 200.389 75.9973L200.504 70.2967C200.579 66.5989 201.697 62.9974 203.729 59.9072L204.404 58.88C205.194 57.68 206.183 56.6246 207.33 55.7599L208.25 55.0661C210.026 53.7273 212.219 53.0622 214.44 53.1895C217.455 53.3623 220.203 54.975 221.824 57.5231L221.899 57.6402C223.276 59.8047 223.736 62.4283 223.176 64.9321L220.203 78.2394C219.775 80.1591 218.684 81.867 217.124 83.0641C213.209 86.0665 212.288 91.587 215.015 95.698L217.369 99.248C218.473 100.912 219.177 102.809 219.426 104.79L221.991 125.194C222.365 128.169 222.468 131.172 222.298 134.166L219.034 191.797Z" stroke="black"/>
</g>
<path d="M200.305 91.4865C202.822 91.4878 204.676 93.1265 204.675 94.9396C204.674 96.7527 202.819 98.3896 200.301 98.3884C197.784 98.3871 195.93 96.7484 195.931 94.9353C195.932 93.1222 197.787 91.4853 200.305 91.4865Z" fill="#008000" stroke="black"/>
<path d="M244.381 178.439C246.545 178.44 248.174 179.95 248.173 181.669C248.173 183.387 246.542 184.896 244.378 184.895C242.214 184.894 240.585 183.384 240.585 181.665C240.586 179.946 242.217 178.437 244.381 178.439Z" fill="#008000" stroke="black"/>
<g filter="url(#filter7_d23)">
<path d="M222.113 200.244L220.051 200.244C218.789 200.244 217.536 200.033 216.344 199.619L213.241 198.541C210.555 197.608 208.755 195.077 208.755 192.234C208.755 189.046 206.501 186.303 203.374 185.685L202.52 185.516C199.223 184.864 196.724 182.158 196.336 178.82L193.849 157.415C193.595 155.235 193.535 153.037 193.668 150.847L196.987 96.2673L196.987 96.0363C196.987 94.1525 198.978 92.9341 200.655 93.7917C201.532 94.2399 202.068 95.1578 202.026 96.1417L199.841 148.299C199.679 152.179 199.969 156.066 200.706 159.879L202.807 170.75C202.909 171.279 202.96 171.817 202.96 172.355L202.961 175.856C202.961 178.329 204.875 180.381 207.342 180.552C209.81 180.724 211.723 182.776 211.723 185.249L211.723 188.663C211.723 191.493 213.29 194.09 215.794 195.409L216.859 195.971C217.256 196.18 217.697 196.289 218.145 196.289L224.092 196.289L226.566 196.289L227.919 196.289C229.6 196.289 231.226 196.89 232.503 197.983C233.962 199.1 236.086 198.47 236.7 196.738L237.79 193.66C237.884 193.396 237.956 193.125 238.004 192.85L239.235 185.904C239.354 185.229 239.568 184.575 239.87 183.96L241.459 180.722C242.002 179.614 243.23 179.019 244.436 179.277L244.674 179.329C247.064 179.841 247.491 183.069 245.316 184.186C245.013 184.342 244.744 184.555 244.523 184.815L244.042 185.38C243.281 186.275 242.784 187.363 242.605 188.524L241.707 194.352C241.51 195.635 241.111 196.879 240.527 198.039L239.924 199.234C239.588 199.901 239.123 200.495 238.557 200.982L238.028 201.436C236.04 203.145 233.063 203 231.25 201.106C230.171 199.979 228.622 199.428 227.073 199.623L222.113 200.244Z" fill="url(#paint5_diamond23)"/>
<path d="M197.486 96.2977L197.487 96.2825L197.487 96.2673L197.487 96.0363C197.487 94.5261 199.083 93.5494 200.428 94.2368C201.131 94.5962 201.56 95.332 201.527 96.1207L199.342 148.278C199.178 152.197 199.471 156.122 200.215 159.974L202.316 170.845C202.412 171.343 202.46 171.848 202.46 172.355L202.461 175.856C202.461 178.592 204.578 180.861 207.307 181.051C209.513 181.205 211.223 183.039 211.223 185.249L211.223 188.663C211.223 191.678 212.893 194.445 215.56 195.851L216.626 196.413C217.094 196.66 217.616 196.789 218.145 196.789L224.092 196.789L226.566 196.789L227.919 196.789C229.481 196.789 230.992 197.347 232.178 198.363L232.189 198.372L232.199 198.38C233.928 199.703 236.444 198.956 237.171 196.905L238.262 193.827L237.79 193.66L238.262 193.827C238.364 193.537 238.443 193.24 238.497 192.937L239.727 185.991C239.838 185.363 240.038 184.753 240.319 184.18L241.907 180.942C242.35 180.04 243.349 179.556 244.331 179.766L244.569 179.817C246.5 180.232 246.845 182.839 245.088 183.741C244.727 183.927 244.405 184.181 244.142 184.491L243.661 185.056C242.84 186.021 242.304 187.196 242.111 188.448L241.213 194.276C241.024 195.507 240.641 196.701 240.08 197.814L240.527 198.039L240.08 197.814L239.478 199.009C239.171 199.617 238.748 200.159 238.231 200.603L237.702 201.057L238.028 201.436L237.702 201.057C235.915 202.592 233.24 202.462 231.611 200.76C230.423 199.519 228.717 198.913 227.011 199.126L222.082 199.744L220.051 199.744C218.845 199.744 217.648 199.542 216.508 199.147L213.405 198.069C210.92 197.206 209.255 194.864 209.255 192.234C209.255 188.807 206.832 185.859 203.47 185.194L202.617 185.025C199.533 184.415 197.196 181.884 196.833 178.762L194.345 157.357C194.096 155.207 194.036 153.038 194.167 150.877L197.486 96.2977Z" stroke="black"/>
</g>
<path d="M229.337 191.565C226.987 191.564 225.118 189.736 225.119 187.523C225.12 185.31 226.991 183.484 229.34 183.485C231.69 183.486 233.56 185.314 233.558 187.527C233.557 189.74 231.686 191.566 229.337 191.565Z" fill="#008000" stroke="black"/>
<path d="M211.136 75.078C209.023 75.077 207.277 73.2867 207.278 71.0362C207.279 68.7856 209.027 66.997 211.14 66.9981C213.252 66.9991 214.998 68.7894 214.997 71.04C214.996 73.2905 213.248 75.0791 211.136 75.078Z" fill="#008000" stroke="black"/>
<g filter="url(#filter8_d23)">
<path d="M234.897 44.2169C235.924 45.9991 236.265 48.0949 235.857 50.1111L232.705 65.6837C232.273 67.8203 231.133 69.7488 229.469 71.1575C225.844 74.2278 224.978 79.4733 227.425 83.5458L229.881 87.6339C231.009 89.5111 231.72 91.6085 231.968 93.7843L234.54 116.384C234.85 119.112 234.936 121.86 234.795 124.602L231.592 186.982L231.592 187.633C231.592 189.542 229.505 190.717 227.873 189.727C227.115 189.267 226.664 188.433 226.695 187.547L228.895 125.416C229.011 122.135 228.803 118.851 228.276 115.61L226.125 102.404C225.917 101.125 225.812 99.8305 225.812 98.5343C225.812 93.3087 224.112 88.2249 220.968 84.0507L220.164 82.9825C217.327 79.2565 217.673 74.0098 220.974 70.6885L223.565 68.081C225.568 66.066 226.889 63.4746 227.344 60.6704L228.104 55.9825L229.499 46.9051C229.533 46.6829 229.361 46.4825 229.136 46.4825C229.092 46.4825 229.048 46.4744 229.006 46.4587L228.503 46.268C226.683 45.5783 224.664 46.6032 224.147 48.4796L223.393 51.2143C223.252 51.7241 223.181 52.2505 223.181 52.7793L223.181 54.3535C223.181 58.3291 221.829 62.1865 219.347 65.2921L213.804 72.228C213.179 73.0099 212.179 73.3917 211.192 73.2254C208.673 72.8012 208.036 69.4754 210.219 68.1498L210.308 68.0962C210.635 67.8976 210.918 67.6338 211.139 67.3214L215.076 61.7579C216.808 59.3096 217.739 56.3841 217.739 53.3847L217.739 49.5451C217.739 45.3622 220.506 41.6837 224.524 40.5233L225.234 40.3185C228.968 39.2402 232.956 40.8492 234.897 44.2169Z" fill="url(#paint6_diamond23)"/>
<path d="M231.093 186.957L231.092 186.97L231.092 186.982L231.092 187.633C231.092 189.152 229.431 190.088 228.132 189.3C227.529 188.934 227.17 188.27 227.195 187.564L229.394 125.433C229.512 122.12 229.302 118.803 228.769 115.53L226.619 102.324C226.415 101.071 226.312 99.8036 226.312 98.5343C226.312 93.2002 224.576 88.0108 221.367 83.7499L220.563 82.6817L220.561 82.6797C217.876 79.1523 218.204 74.1852 221.329 71.0409L223.92 68.4334C225.996 66.3444 227.366 63.6577 227.838 60.7505L228.598 56.0625L228.598 56.0625L228.599 56.0584L229.993 46.981C230.073 46.4643 229.68 45.9976 229.162 45.9828L228.681 45.8005C226.585 45.0064 224.261 46.1864 223.665 48.3467L222.911 51.0814C222.758 51.6345 222.681 52.2056 222.681 52.7793L222.681 54.3535C222.681 58.2157 221.368 61.963 218.957 64.9799L213.413 71.9158C212.902 72.5559 212.083 72.8685 211.275 72.7324C209.213 72.385 208.691 69.6624 210.479 68.5772L210.567 68.5236C210.953 68.2894 211.286 67.9785 211.547 67.6102L215.484 62.0468C217.276 59.514 218.239 56.4875 218.239 53.3847L218.239 49.5451C218.239 45.5849 220.858 42.1023 224.663 41.0037L225.372 40.7989C228.886 39.7844 232.638 41.2981 234.464 44.4665C235.43 46.1433 235.751 48.115 235.367 50.0119L232.215 65.5845C231.805 67.6109 230.724 69.4399 229.146 70.776C225.334 74.0046 224.423 79.5207 226.996 83.8033L229.452 87.8914C230.543 89.7073 231.232 91.7361 231.471 93.8409L234.043 116.441C234.35 119.141 234.435 121.862 234.296 124.576L231.093 186.957Z" stroke="black"/>
</g>
<path d="M190.76 173.803C193.035 173.897 194.768 175.726 194.683 177.84C194.597 179.955 192.723 181.634 190.447 181.54C188.172 181.446 186.439 179.618 186.525 177.503C186.61 175.389 188.485 173.709 190.76 173.803Z" fill="#008000" stroke="black"/>
<path d="M240.679 59.8033C242.954 59.8973 244.687 61.7256 244.602 63.8401C244.516 65.9546 242.642 67.6339 240.366 67.54C238.091 67.446 236.358 65.6177 236.444 63.5032C236.529 61.3887 238.404 59.7093 240.679 59.8033Z" fill="#008000" stroke="black"/>
<g filter="url(#filter9_d23)">
<path d="M239.928 180.412C242.651 180.412 244.857 178.206 244.857 175.483L244.857 137.483L245.847 114.483L247.331 72.4826L247.331 68.9029L247.331 63.973C247.331 63.6009 247.224 63.2366 247.022 62.924C246.565 62.2182 245.806 61.7645 244.969 61.6966L241.515 61.4164C241.25 61.3949 240.982 61.4048 240.719 61.4459L239.939 61.5678C239.027 61.7103 238.297 62.3995 238.102 63.302C237.992 63.8162 238.066 64.3532 238.312 64.8184L238.443 65.0663C239.028 66.1714 240.236 66.7992 241.475 66.6426L241.986 66.5781C242.699 66.4881 243.312 67.08 243.248 67.7951L242.384 77.4029L239.562 170.638C239.48 173.338 237.269 175.483 234.568 175.483L210.268 175.483L190.478 175.483L189.464 175.969C187.224 177.045 187.992 180.412 190.478 180.412L239.928 180.412Z" fill="url(#paint7_diamond23)"/>
<path d="M244.357 137.482L244.357 137.471L244.358 137.461L245.347 114.463L245.347 114.461L246.831 72.4733L246.831 68.9025L246.831 63.9726C246.831 63.6968 246.752 63.4269 246.602 63.1953C246.23 62.62 245.611 62.2503 244.929 62.195L241.475 61.9148C241.249 61.8964 241.021 61.9049 240.797 61.9399L240.017 62.0618C239.309 62.1725 238.742 62.7074 238.591 63.4078C238.505 63.8069 238.563 64.2237 238.754 64.5848L238.885 64.8327C239.372 65.7538 240.379 66.2771 241.412 66.1465L241.923 66.082C242.952 65.952 243.839 66.8071 243.746 67.8403L242.883 77.4333L240.061 170.654C239.972 173.623 237.54 175.983 234.569 175.983L210.269 175.983L190.592 175.983L189.68 176.42C187.92 177.265 188.524 179.912 190.478 179.912L239.928 179.912C242.375 179.912 244.357 177.929 244.357 175.482L244.357 137.482Z" stroke="black"/>
</g>
<path d="M237.308 59.7263C235.965 59.7668 234.693 58.4709 234.639 56.6335C234.584 54.7962 235.778 53.4259 237.121 53.3854C238.465 53.3449 239.736 54.6408 239.791 56.4782C239.845 58.3155 238.652 59.6858 237.308 59.7263Z" fill="#008000" stroke="black"/>
<path d="M207.584 159.807C206.24 159.847 204.968 158.551 204.914 156.714C204.86 154.877 206.053 153.506 207.396 153.466C208.74 153.425 210.012 154.721 210.066 156.559C210.12 158.396 208.927 159.766 207.584 159.807Z" fill="#008000" stroke="black"/>
<g filter="url(#filter10_d23)">
<path d="M206.706 54.3228C203.474 54.374 200.99 57.2029 201.356 60.4146L201.831 94.9771L202.03 114.334L202.375 130.663L202.757 152.953L203.02 157.201C203.034 157.438 203.106 157.668 203.229 157.872C203.595 158.478 204.246 158.853 204.954 158.867L206.978 158.906C207.197 158.911 207.416 158.883 207.628 158.823L207.774 158.782C208.568 158.559 209.147 157.876 209.236 157.056C209.278 156.669 209.208 156.279 209.033 155.931L208.977 155.819C208.499 154.868 207.429 154.372 206.393 154.623C205.959 154.728 205.541 154.397 205.545 153.949L205.629 145.558L204.963 63.8498C204.94 61.089 207.16 58.8311 209.92 58.806L221.211 58.7036L237.499 58.5559L237.689 58.4381C239.476 57.3319 239.286 54.6749 237.36 53.837L206.706 54.3228Z" fill="url(#paint8_diamond23)"/>
<path d="M201.853 60.3577L201.856 60.3825L201.856 60.4075L202.331 94.9699L202.331 94.9716L202.53 114.323L202.53 114.328L202.875 130.652L202.875 130.654L203.256 152.933L203.519 157.17C203.528 157.326 203.576 157.478 203.657 157.613C203.934 158.072 204.428 158.357 204.964 158.367L206.988 158.407C207.158 158.41 207.329 158.388 207.493 158.342L207.639 158.301C208.236 158.133 208.672 157.619 208.739 157.002C208.771 156.711 208.718 156.417 208.587 156.156L208.53 156.044L208.977 155.819L208.53 156.044C208.157 155.3 207.32 154.913 206.511 155.109C205.76 155.291 205.038 154.718 205.045 153.945L205.129 145.562L205.129 145.553L204.463 63.8542C204.438 60.8173 206.879 58.3336 209.916 58.306L221.206 58.2036L237.355 58.0572L237.426 58.013C238.841 57.1375 238.722 55.0596 237.254 54.3388L206.714 54.8228C203.777 54.8693 201.52 57.4395 201.853 60.3577Z" stroke="black"/>
</g>
<path d="M221.206 93.6109C219.141 93.5486 217.393 95.2217 217.329 97.3777C217.266 99.5336 218.912 101.309 220.977 101.371C223.042 101.434 224.79 99.7605 224.854 97.6045C224.917 95.4486 223.271 93.6731 221.206 93.6109Z" fill="#008000" stroke="black"/>
<path d="M195.752 64.6217C194.409 64.5812 193.137 65.8771 193.083 67.7145C193.028 69.5518 194.222 70.9221 195.565 70.9626C196.909 71.0031 198.18 69.7072 198.235 67.8698C198.289 66.0325 197.096 64.6622 195.752 64.6217Z" fill="#008000" stroke="black"/>
<g filter="url(#filter11_d23)">
<path d="M194.867 170.18C191.622 170.088 189.149 167.239 189.515 164.014L189.994 129.451L190.196 110.095L190.542 93.7655L190.925 71.4759L191.188 67.2245C191.202 66.9893 191.273 66.7611 191.394 66.5591C191.758 65.952 192.409 65.5749 193.117 65.5609L195.114 65.5213C195.334 65.5169 195.553 65.5451 195.764 65.6049L195.895 65.642C196.69 65.8668 197.269 66.5524 197.358 67.374C197.399 67.759 197.33 68.1477 197.157 68.4941L197.096 68.6156C196.625 69.5616 195.561 70.055 194.534 69.8043C194.103 69.6993 193.689 70.0276 193.694 70.4706L193.774 78.87L193.096 160.531C193.073 163.31 195.32 165.576 198.099 165.576L214.721 165.576C216.908 165.576 218.679 163.804 218.679 161.618L218.679 97.4826C219.787 94.9089 223.627 95.7022 223.627 98.5047L223.627 164.192C223.627 167.722 220.766 170.583 217.236 170.583L209.222 170.583L194.867 170.18Z" fill="url(#paint9_diamond23)"/>
<path d="M190.012 164.07L190.014 164.046L190.015 164.021L190.494 129.459L190.494 129.457L190.696 110.106L190.696 110.1L191.042 93.7764L191.042 93.7744L191.425 71.4959L191.687 67.2556C191.696 67.1004 191.743 66.9498 191.823 66.8165L191.394 66.5592L191.823 66.8165C192.099 66.3569 192.591 66.0714 193.127 66.0608L195.124 66.0212C195.295 66.0178 195.464 66.0397 195.628 66.086L195.759 66.1231C196.358 66.2924 196.794 66.8087 196.861 67.4273C196.892 67.7172 196.84 68.0099 196.71 68.2708L196.649 68.3923C196.281 69.1294 195.453 69.5139 194.652 69.3186C193.905 69.1363 193.186 69.7061 193.194 70.4751L193.274 78.8656L193.274 78.8745L192.596 160.527C192.571 163.584 195.042 166.076 198.099 166.076L214.722 166.076C217.184 166.076 219.179 164.081 219.179 161.618L219.179 97.5909C220.121 95.6249 223.127 96.2784 223.127 98.5044L223.127 164.191C223.127 167.446 220.49 170.083 217.235 170.083L209.228 170.083L194.881 169.68C191.929 169.597 189.679 167.005 190.012 164.07Z" stroke="black"/>
</g>
<defs>
<filter id="filter0_d23" x="41.3872" y="46.7796" width="127.619" height="133.981" filterUnits="userSpaceOnUse" color-interpolation-filters="sRGB">
<feFlood flood-opacity="0" result="BackgroundImageFix"/>
<feColorMatrix in="SourceAlpha" type="matrix" values="0 0 0 0 0 0 0 0 0 0 0 0 0 0 0 0 0 0 127 0" result="hardAlpha"/>
<feOffset dy="4"/>
<feGaussianBlur stdDeviation="2"/>
<feComposite in2="hardAlpha" operator="out"/>
<feColorMatrix type="matrix" values="0 0 0 0 0 0 0 0 0 0 0 0 0 0 0 0 0 0 0.25 0"/>
<feBlend mode="normal" in2="BackgroundImageFix" result="effect1_dropShadow"/>
<feBlend mode="normal" in="SourceGraphic" in2="effect1_dropShadow" result="shape"/>
</filter>
<filter id="filter1_d23" x="61.8565" y="53.7121" width="92.0513" height="126.591" filterUnits="userSpaceOnUse" color-interpolation-filters="sRGB">
<feFlood flood-opacity="0" result="BackgroundImageFix"/>
<feColorMatrix in="SourceAlpha" type="matrix" values="0 0 0 0 0 0 0 0 0 0 0 0 0 0 0 0 0 0 127 0" result="hardAlpha"/>
<feOffset dy="4"/>
<feGaussianBlur stdDeviation="2"/>
<feComposite in2="hardAlpha" operator="out"/>
<feColorMatrix type="matrix" values="0 0 0 0 0 0 0 0 0 0 0 0 0 0 0 0 0 0 0.25 0"/>
<feBlend mode="normal" in2="BackgroundImageFix" result="effect1_dropShadow"/>
<feBlend mode="normal" in="SourceGraphic" in2="effect1_dropShadow" result="shape"/>
</filter>
<filter id="filter2_d23" x="48.6704" y="56.9642" width="91.3828" height="123.35" filterUnits="userSpaceOnUse" color-interpolation-filters="sRGB">
<feFlood flood-opacity="0" result="BackgroundImageFix"/>
<feColorMatrix in="SourceAlpha" type="matrix" values="0 0 0 0 0 0 0 0 0 0 0 0 0 0 0 0 0 0 127 0" result="hardAlpha"/>
<feOffset dy="4"/>
<feGaussianBlur stdDeviation="2"/>
<feComposite in2="hardAlpha" operator="out"/>
<feColorMatrix type="matrix" values="0 0 0 0 0 0 0 0 0 0 0 0 0 0 0 0 0 0 0.25 0"/>
<feBlend mode="normal" in2="BackgroundImageFix" result="effect1_dropShadow"/>
<feBlend mode="normal" in="SourceGraphic" in2="effect1_dropShadow" result="shape"/>
</filter>
<filter id="filter3_ddiif23" x="239.22" y="54.9827" width="50.7799" height="152" filterUnits="userSpaceOnUse" color-interpolation-filters="sRGB">
<feFlood flood-opacity="0" result="BackgroundImageFix"/>
<feColorMatrix in="SourceAlpha" type="matrix" values="0 0 0 0 0 0 0 0 0 0 0 0 0 0 0 0 0 0 127 0" result="hardAlpha"/>
<feOffset dx="-5" dy="4"/>
<feGaussianBlur stdDeviation="7.5"/>
<feComposite in2="hardAlpha" operator="out"/>
<feColorMatrix type="matrix" values="0 0 0 0 0 0 0 0 0 0 0 0 0 0 0 0 0 0 0.5 0"/>
<feBlend mode="normal" in2="BackgroundImageFix" result="effect1_dropShadow"/>
<feColorMatrix in="SourceAlpha" type="matrix" values="0 0 0 0 0 0 0 0 0 0 0 0 0 0 0 0 0 0 127 0" result="hardAlpha"/>
<feOffset dy="4"/>
<feGaussianBlur stdDeviation="2"/>
<feComposite in2="hardAlpha" operator="out"/>
<feColorMatrix type="matrix" values="0 0 0 0 0 0 0 0 0 0 0 0 0 0 0 0 0 0 0.25 0"/>
<feBlend mode="normal" in2="effect1_dropShadow" result="effect2_dropShadow"/>
<feBlend mode="normal" in="SourceGraphic" in2="effect2_dropShadow" result="shape"/>
<feColorMatrix in="SourceAlpha" type="matrix" values="0 0 0 0 0 0 0 0 0 0 0 0 0 0 0 0 0 0 127 0" result="hardAlpha"/>
<feOffset dy="4"/>
<feGaussianBlur stdDeviation="10"/>
<feComposite in2="hardAlpha" operator="arithmetic" k2="-1" k3="1"/>
<feColorMatrix type="matrix" values="0 0 0 0 0.221771 0 0 0 0 0.213542 0 0 0 0 0.625 0 0 0 0.63 0"/>
<feBlend mode="normal" in2="shape" result="effect3_innerShadow"/>
<feColorMatrix in="SourceAlpha" type="matrix" values="0 0 0 0 0 0 0 0 0 0 0 0 0 0 0 0 0 0 127 0" result="hardAlpha"/>
<feOffset dx="-4"/>
<feGaussianBlur stdDeviation="12.5"/>
<feComposite in2="hardAlpha" operator="arithmetic" k2="-1" k3="1"/>
<feColorMatrix type="matrix" values="0 0 0 0 0 0 0 0 0 0 0 0 0 0 0 0 0 0 0.92 0"/>
<feBlend mode="normal" in2="effect3_innerShadow" result="effect4_innerShadow"/>
<feGaussianBlur stdDeviation="5" result="effect5_foregroundBlur"/>
</filter>
<filter id="filter4_ii23" x="0" y="62.1774" width="21.7904" height="129" filterUnits="userSpaceOnUse" color-interpolation-filters="sRGB">
<feFlood flood-opacity="0" result="BackgroundImageFix"/>
<feBlend mode="normal" in="SourceGraphic" in2="BackgroundImageFix" result="shape"/>
<feColorMatrix in="SourceAlpha" type="matrix" values="0 0 0 0 0 0 0 0 0 0 0 0 0 0 0 0 0 0 127 0" result="hardAlpha"/>
<feOffset dy="4"/>
<feGaussianBlur stdDeviation="2"/>
<feComposite in2="hardAlpha" operator="arithmetic" k2="-1" k3="1"/>
<feColorMatrix type="matrix" values="0 0 0 0 0 0 0 0 0 0 0 0 0 0 0 0 0 0 0.25 0"/>
<feBlend mode="normal" in2="shape" result="effect1_innerShadow"/>
<feColorMatrix in="SourceAlpha" type="matrix" values="0 0 0 0 0 0 0 0 0 0 0 0 0 0 0 0 0 0 127 0" result="hardAlpha"/>
<feOffset dx="2" dy="-4"/>
<feGaussianBlur stdDeviation="2"/>
<feComposite in2="hardAlpha" operator="arithmetic" k2="-1" k3="1"/>
<feColorMatrix type="matrix" values="0 0 0 0 0 0 0 0 0 0 0 0 0 0 0 0 0 0 0.4 0"/>
<feBlend mode="normal" in2="effect1_innerShadow" result="effect2_innerShadow"/>
</filter>
<filter id="filter5_ii23" x="164.256" y="62.1599" width="21.7904" height="129" filterUnits="userSpaceOnUse" color-interpolation-filters="sRGB">
<feFlood flood-opacity="0" result="BackgroundImageFix"/>
<feBlend mode="normal" in="SourceGraphic" in2="BackgroundImageFix" result="shape"/>
<feColorMatrix in="SourceAlpha" type="matrix" values="0 0 0 0 0 0 0 0 0 0 0 0 0 0 0 0 0 0 127 0" result="hardAlpha"/>
<feOffset dy="4"/>
<feGaussianBlur stdDeviation="2"/>
<feComposite in2="hardAlpha" operator="arithmetic" k2="-1" k3="1"/>
<feColorMatrix type="matrix" values="0 0 0 0 0 0 0 0 0 0 0 0 0 0 0 0 0 0 0.25 0"/>
<feBlend mode="normal" in2="shape" result="effect1_innerShadow"/>
<feColorMatrix in="SourceAlpha" type="matrix" values="0 0 0 0 0 0 0 0 0 0 0 0 0 0 0 0 0 0 127 0" result="hardAlpha"/>
<feOffset dx="2" dy="-4"/>
<feGaussianBlur stdDeviation="2"/>
<feComposite in2="hardAlpha" operator="arithmetic" k2="-1" k3="1"/>
<feColorMatrix type="matrix" values="0 0 0 0 0 0 0 0 0 0 0 0 0 0 0 0 0 0 0.4 0"/>
<feBlend mode="normal" in2="effect1_innerShadow" result="effect2_innerShadow"/>
</filter>
<filter id="filter6_d23" x="191.918" y="52.6741" width="35.9907" height="150.088" filterUnits="userSpaceOnUse" color-interpolation-filters="sRGB">
<feFlood flood-opacity="0" result="BackgroundImageFix"/>
<feColorMatrix in="SourceAlpha" type="matrix" values="0 0 0 0 0 0 0 0 0 0 0 0 0 0 0 0 0 0 127 0" result="hardAlpha"/>
<feOffset dy="4"/>
<feGaussianBlur stdDeviation="2"/>
<feComposite in2="hardAlpha" operator="out"/>
<feColorMatrix type="matrix" values="0 0 0 0 0 0 0 0 0 0 0 0 0 0 0 0 0 0 0.25 0"/>
<feBlend mode="normal" in2="BackgroundImageFix" result="effect1_dropShadow"/>
<feBlend mode="normal" in="SourceGraphic" in2="effect1_dropShadow" result="shape"/>
</filter>
<filter id="filter7_d23" x="189.6" y="93.512" width="61.1308" height="117.116" filterUnits="userSpaceOnUse" color-interpolation-filters="sRGB">
<feFlood flood-opacity="0" result="BackgroundImageFix"/>
<feColorMatrix in="SourceAlpha" type="matrix" values="0 0 0 0 0 0 0 0 0 0 0 0 0 0 0 0 0 0 127 0" result="hardAlpha"/>
<feOffset dy="4"/>
<feGaussianBlur stdDeviation="2"/>
<feComposite in2="hardAlpha" operator="out"/>
<feColorMatrix type="matrix" values="0 0 0 0 0 0 0 0 0 0 0 0 0 0 0 0 0 0 0.25 0"/>
<feBlend mode="normal" in2="BackgroundImageFix" result="effect1_dropShadow"/>
<feBlend mode="normal" in="SourceGraphic" in2="effect1_dropShadow" result="shape"/>
</filter>
<filter id="filter8_d23" x="204.891" y="39.9861" width="35.1342" height="158.1" filterUnits="userSpaceOnUse" color-interpolation-filters="sRGB">
<feFlood flood-opacity="0" result="BackgroundImageFix"/>
<feColorMatrix in="SourceAlpha" type="matrix" values="0 0 0 0 0 0 0 0 0 0 0 0 0 0 0 0 0 0 127 0" result="hardAlpha"/>
<feOffset dy="4"/>
<feGaussianBlur stdDeviation="2"/>
<feComposite in2="hardAlpha" operator="out"/>
<feColorMatrix type="matrix" values="0 0 0 0 0 0 0 0 0 0 0 0 0 0 0 0 0 0 0.25 0"/>
<feBlend mode="normal" in2="BackgroundImageFix" result="effect1_dropShadow"/>
<feBlend mode="normal" in="SourceGraphic" in2="effect1_dropShadow" result="shape"/>
</filter>
<filter id="filter9_d23" x="184.137" y="61.4053" width="67.1946" height="127.007" filterUnits="userSpaceOnUse" color-interpolation-filters="sRGB">
<feFlood flood-opacity="0" result="BackgroundImageFix"/>
<feColorMatrix in="SourceAlpha" type="matrix" values="0 0 0 0 0 0 0 0 0 0 0 0 0 0 0 0 0 0 127 0" result="hardAlpha"/>
<feOffset dy="4"/>
<feGaussianBlur stdDeviation="2"/>
<feComposite in2="hardAlpha" operator="out"/>
<feColorMatrix type="matrix" values="0 0 0 0 0 0 0 0 0 0 0 0 0 0 0 0 0 0 0.25 0"/>
<feBlend mode="normal" in2="BackgroundImageFix" result="effect1_dropShadow"/>
<feBlend mode="normal" in="SourceGraphic" in2="effect1_dropShadow" result="shape"/>
</filter>
<filter id="filter10_d23" x="197.32" y="53.837" width="45.6036" height="113.07" filterUnits="userSpaceOnUse" color-interpolation-filters="sRGB">
<feFlood flood-opacity="0" result="BackgroundImageFix"/>
<feColorMatrix in="SourceAlpha" type="matrix" values="0 0 0 0 0 0 0 0 0 0 0 0 0 0 0 0 0 0 127 0" result="hardAlpha"/>
<feOffset dy="4"/>
<feGaussianBlur stdDeviation="2"/>
<feComposite in2="hardAlpha" operator="out"/>
<feColorMatrix type="matrix" values="0 0 0 0 0 0 0 0 0 0 0 0 0 0 0 0 0 0 0.25 0"/>
<feBlend mode="normal" in2="BackgroundImageFix" result="effect1_dropShadow"/>
<feBlend mode="normal" in="SourceGraphic" in2="effect1_dropShadow" result="shape"/>
</filter>
<filter id="filter11_d23" x="185.479" y="65.5209" width="42.1479" height="113.062" filterUnits="userSpaceOnUse" color-interpolation-filters="sRGB">
<feFlood flood-opacity="0" result="BackgroundImageFix"/>
<feColorMatrix in="SourceAlpha" type="matrix" values="0 0 0 0 0 0 0 0 0 0 0 0 0 0 0 0 0 0 127 0" result="hardAlpha"/>
<feOffset dy="4"/>
<feGaussianBlur stdDeviation="2"/>
<feComposite in2="hardAlpha" operator="out"/>
<feColorMatrix type="matrix" values="0 0 0 0 0 0 0 0 0 0 0 0 0 0 0 0 0 0 0.25 0"/>
<feBlend mode="normal" in2="BackgroundImageFix" result="effect1_dropShadow"/>
<feBlend mode="normal" in="SourceGraphic" in2="effect1_dropShadow" result="shape"/>
</filter>
<radialGradient id="paint0_diamond23" cx="0" cy="0" r="1" gradientUnits="userSpaceOnUse" gradientTransform="translate(105.557 110.237) rotate(-164.381) scale(91.9362 109.068)">
<stop stop-color="#717371"/>
<stop offset="0.208333" stop-color="#545954"/>
<stop offset="0.46875" stop-color="#747874"/>
<stop offset="0.723958" stop-color="#595F5A"/>
<stop offset="1" stop-color="#323532"/>
</radialGradient>
<radialGradient id="paint1_diamond23" cx="0" cy="0" r="1" gradientUnits="userSpaceOnUse" gradientTransform="translate(105.385 113.477) rotate(-159.077) scale(70.1635 107.133)">
<stop stop-color="#BA4141"/>
<stop offset="1" stop-color="#830101"/>
</radialGradient>
<radialGradient id="paint2_diamond23" cx="0" cy="0" r="1" gradientUnits="userSpaceOnUse" gradientTransform="translate(93.4943 115.485) rotate(-158.85) scale(67.1707 103.471)">
<stop stop-color="#775D00"/>
<stop offset="1" stop-color="#CFA202"/>
</radialGradient>
<radialGradient id="paint3_diamond23" cx="0" cy="0" r="1" gradientUnits="userSpaceOnUse" gradientTransform="translate(264.663 129.983) rotate(167.248) scale(262.767 99.4826)">
<stop stop-color="#9D5603"/>
<stop offset="0.0595529" stop-color="#8C673B"/>
<stop offset="0.114583" stop-color="#7B766F"/>
<stop offset="0.208333" stop-color="#545954"/>
<stop offset="0.275597" stop-color="#5B5443"/>
<stop offset="0.338542" stop-color="#615033"/>
<stop offset="0.400564" stop-color="#81591B"/>
<stop offset="0.46875" stop-color="#696052"/>
<stop offset="0.513012" stop-color="#A16410"/>
<stop offset="0.554561" stop-color="#7D5829"/>
<stop offset="0.597769" stop-color="#9A672E"/>
<stop offset="0.636274" stop-color="#5F4B38"/>
<stop offset="0.680571" stop-color="#936A4C"/>
<stop offset="0.723958" stop-color="#8F6B5B"/>
<stop offset="0.758968" stop-color="#543E33"/>
<stop offset="0.809127" stop-color="#925E3F"/>
<stop offset="0.852879" stop-color="#432919"/>
<stop offset="0.887523" stop-color="#955225"/>
<stop offset="0.936274" stop-color="#716054"/>
<stop offset="1" stop-color="#994000"/>
</radialGradient>
<radialGradient id="paint4_diamond23" cx="0" cy="0" r="1" gradientUnits="userSpaceOnUse" gradientTransform="translate(207.731 124.488) rotate(-129.923) scale(38.5429 86.9449)">
<stop stop-color="#775D00"/>
<stop offset="1" stop-color="#CFA202"/>
</radialGradient>
<radialGradient id="paint5_diamond23" cx="0" cy="0" r="1" gradientUnits="userSpaceOnUse" gradientTransform="translate(223.724 149.831) rotate(26.1121) scale(46.0152 83.2729)">
<stop stop-color="#717371"/>
<stop offset="0.208333" stop-color="#545954"/>
<stop offset="0.46875" stop-color="#747874"/>
<stop offset="0.723958" stop-color="#595F5A"/>
<stop offset="1" stop-color="#323532"/>
</radialGradient>
<radialGradient id="paint6_diamond23" cx="0" cy="0" r="1" gradientUnits="userSpaceOnUse" gradientTransform="translate(220.161 115.227) rotate(-127.255) scale(39.5815 87.422)">
<stop stop-color="#BA4141"/>
<stop offset="1" stop-color="#830101"/>
</radialGradient>
<radialGradient id="paint7_diamond23" cx="0" cy="0" r="1" gradientUnits="userSpaceOnUse" gradientTransform="translate(220.509 98.4017) rotate(64.4167) scale(103.207 212.698)">
<stop stop-color="#9D5603"/>
<stop offset="0.114583" stop-color="#7B766F"/>
<stop offset="0.208333" stop-color="#545954"/>
<stop offset="0.275597" stop-color="#5B5443"/>
<stop offset="0.338542" stop-color="#615033"/>
<stop offset="0.400564" stop-color="#81591B"/>
<stop offset="0.46875" stop-color="#696052"/>
<stop offset="0.513012" stop-color="#A16410"/>
<stop offset="0.554561" stop-color="#7D5829"/>
<stop offset="0.597769" stop-color="#9A672E"/>
<stop offset="0.636274" stop-color="#5F4B38"/>
<stop offset="0.680571" stop-color="#936A4C"/>
<stop offset="0.723958" stop-color="#8F6B5B"/>
<stop offset="0.758968" stop-color="#543E33"/>
<stop offset="0.809127" stop-color="#925E3F"/>
<stop offset="0.852879" stop-color="#432919"/>
<stop offset="0.887523" stop-color="#955225"/>
<stop offset="0.936274" stop-color="#716054"/>
<stop offset="1" stop-color="#994000"/>
</radialGradient>
<radialGradient id="paint8_diamond23" cx="0" cy="0" r="1" gradientUnits="userSpaceOnUse" gradientTransform="translate(219.857 126.351) rotate(-114.648) scale(83.1427 148.919)">
<stop stop-color="#9D5603"/>
<stop offset="0.114583" stop-color="#7B766F"/>
<stop offset="0.208333" stop-color="#545954"/>
<stop offset="0.275597" stop-color="#5B5443"/>
<stop offset="0.338542" stop-color="#615033"/>
<stop offset="0.400564" stop-color="#81591B"/>
<stop offset="0.46875" stop-color="#696052"/>
<stop offset="0.513012" stop-color="#A16410"/>
<stop offset="0.554561" stop-color="#7D5829"/>
<stop offset="0.597769" stop-color="#9A672E"/>
<stop offset="0.636274" stop-color="#5F4B38"/>
<stop offset="0.680571" stop-color="#936A4C"/>
<stop offset="0.723958" stop-color="#8F6B5B"/>
<stop offset="0.758968" stop-color="#543E33"/>
<stop offset="0.809127" stop-color="#925E3F"/>
<stop offset="0.852879" stop-color="#432919"/>
<stop offset="0.887523" stop-color="#955225"/>
<stop offset="0.936274" stop-color="#716054"/>
<stop offset="1" stop-color="#994000"/>
</radialGradient>
<radialGradient id="paint9_diamond23" cx="0" cy="0" r="1" gradientUnits="userSpaceOnUse" gradientTransform="translate(207.893 98.0738) rotate(114.494) scale(83.0491 147.978)">
<stop stop-color="#9D5603"/>
<stop offset="0.114583" stop-color="#7B766F"/>
<stop offset="0.208333" stop-color="#545954"/>
<stop offset="0.275597" stop-color="#5B5443"/>
<stop offset="0.338542" stop-color="#615033"/>
<stop offset="0.400564" stop-color="#81591B"/>
<stop offset="0.46875" stop-color="#696052"/>
<stop offset="0.513012" stop-color="#A16410"/>
<stop offset="0.554561" stop-color="#7D5829"/>
<stop offset="0.597769" stop-color="#9A672E"/>
<stop offset="0.636274" stop-color="#5F4B38"/>
<stop offset="0.680571" stop-color="#936A4C"/>
<stop offset="0.723958" stop-color="#8F6B5B"/>
<stop offset="0.758968" stop-color="#543E33"/>
<stop offset="0.809127" stop-color="#925E3F"/>
<stop offset="0.852879" stop-color="#432919"/>
<stop offset="0.887523" stop-color="#955225"/>
<stop offset="0.936274" stop-color="#716054"/>
<stop offset="1" stop-color="#994000"/>
</radialGradient>
</defs>
</svg>
