<svg width="324" height="248" viewBox="0 0 324 248" fill="none" xmlns="http://www.w3.org/2000/svg">
<rect width="324" height="248" fill="#C4C4C4"/>
<rect x="1" y="67" width="277" height="119" fill="#706F6F" stroke="black" stroke-width="2"/>
<path d="M1 99H124V154H1V99Z" fill="#FF0000" stroke="black" stroke-width="2"/>
<g filter="url(#filter0_d)">
<rect x="22" y="77" width="22" height="95" fill="#FF0000"/>
<rect x="23" y="78" width="20" height="93" stroke="black" stroke-width="2"/>
</g>
<g filter="url(#filter1_d)">
<rect x="49" y="77" width="22" height="95" fill="#FF0000"/>
<rect x="50" y="78" width="20" height="93" stroke="black" stroke-width="2"/>
</g>
<g filter="url(#filter2_d)">
<rect x="76" y="77" width="22" height="95" fill="#FF0000"/>
<rect x="77" y="78" width="20" height="93" stroke="black" stroke-width="2"/>
</g>
<path d="M225.883 185.621L127.417 156.119C123.608 154.977 121 151.473 121 147.497V105.503C121 101.527 123.608 98.0226 127.417 96.8815L225.883 67.3787C226.721 67.1276 227.591 67 228.466 67H270C274.971 67 279 71.0294 279 76V177C279 181.971 274.971 186 270 186H228.466C227.591 186 226.721 185.872 225.883 185.621Z" fill="#FF0101" stroke="black" stroke-width="2"/>
<g filter="url(#filter3_d)">
<rect x="103" y="77" width="22" height="95" fill="#FF0000"/>
<rect x="104" y="78" width="20" height="93" stroke="black" stroke-width="2"/>
</g>
<defs>
<filter id="filter0_d" x="12" y="77" width="32" height="103" filterUnits="userSpaceOnUse" color-interpolation-filters="sRGB">
<feFlood flood-opacity="0" result="BackgroundImageFix"/>
<feColorMatrix in="SourceAlpha" type="matrix" values="0 0 0 0 0 0 0 0 0 0 0 0 0 0 0 0 0 0 127 0" result="hardAlpha"/>
<feOffset dx="-6" dy="4"/>
<feGaussianBlur stdDeviation="2"/>
<feComposite in2="hardAlpha" operator="out"/>
<feColorMatrix type="matrix" values="0 0 0 0 0 0 0 0 0 0 0 0 0 0 0 0 0 0 0.25 0"/>
<feBlend mode="normal" in2="BackgroundImageFix" result="effect1_dropShadow"/>
<feBlend mode="normal" in="SourceGraphic" in2="effect1_dropShadow" result="shape"/>
</filter>
<filter id="filter1_d" x="39" y="77" width="32" height="103" filterUnits="userSpaceOnUse" color-interpolation-filters="sRGB">
<feFlood flood-opacity="0" result="BackgroundImageFix"/>
<feColorMatrix in="SourceAlpha" type="matrix" values="0 0 0 0 0 0 0 0 0 0 0 0 0 0 0 0 0 0 127 0" result="hardAlpha"/>
<feOffset dx="-6" dy="4"/>
<feGaussianBlur stdDeviation="2"/>
<feComposite in2="hardAlpha" operator="out"/>
<feColorMatrix type="matrix" values="0 0 0 0 0 0 0 0 0 0 0 0 0 0 0 0 0 0 0.25 0"/>
<feBlend mode="normal" in2="BackgroundImageFix" result="effect1_dropShadow"/>
<feBlend mode="normal" in="SourceGraphic" in2="effect1_dropShadow" result="shape"/>
</filter>
<filter id="filter2_d" x="66" y="77" width="32" height="103" filterUnits="userSpaceOnUse" color-interpolation-filters="sRGB">
<feFlood flood-opacity="0" result="BackgroundImageFix"/>
<feColorMatrix in="SourceAlpha" type="matrix" values="0 0 0 0 0 0 0 0 0 0 0 0 0 0 0 0 0 0 127 0" result="hardAlpha"/>
<feOffset dx="-6" dy="4"/>
<feGaussianBlur stdDeviation="2"/>
<feComposite in2="hardAlpha" operator="out"/>
<feColorMatrix type="matrix" values="0 0 0 0 0 0 0 0 0 0 0 0 0 0 0 0 0 0 0.25 0"/>
<feBlend mode="normal" in2="BackgroundImageFix" result="effect1_dropShadow"/>
<feBlend mode="normal" in="SourceGraphic" in2="effect1_dropShadow" result="shape"/>
</filter>
<filter id="filter3_d" x="93" y="77" width="32" height="103" filterUnits="userSpaceOnUse" color-interpolation-filters="sRGB">
<feFlood flood-opacity="0" result="BackgroundImageFix"/>
<feColorMatrix in="SourceAlpha" type="matrix" values="0 0 0 0 0 0 0 0 0 0 0 0 0 0 0 0 0 0 127 0" result="hardAlpha"/>
<feOffset dx="-6" dy="4"/>
<feGaussianBlur stdDeviation="2"/>
<feComposite in2="hardAlpha" operator="out"/>
<feColorMatrix type="matrix" values="0 0 0 0 0 0 0 0 0 0 0 0 0 0 0 0 0 0 0.25 0"/>
<feBlend mode="normal" in2="BackgroundImageFix" result="effect1_dropShadow"/>
<feBlend mode="normal" in="SourceGraphic" in2="effect1_dropShadow" result="shape"/>
</filter>
</defs>
</svg>
