<svg width="281" height="248" viewBox="0 0 281 248" fill="none" xmlns="http://www.w3.org/2000/svg">
<rect width="281" height="248" fill="#C4C4C4"/>
<rect x="1" y="67" width="279" height="119" fill="#706F6F" stroke="black" strokeWidth="2"/>
<rect x="49" y="47" width="144" height="56" fill="#C4C4C4" stroke="black" strokeWidth="2"/>
<rect x="59" y="47" width="123" height="27" fill="#C4C4C4" stroke="black" strokeWidth="2"/>
<line x1="70.5" y1="46" x2="70.5" y2="75" stroke="black"/>
<line x1="81.5" y1="46" x2="81.5" y2="75" stroke="black"/>
<path d="M105.5 46V75" stroke="black"/>
<line y1="-0.5" x2="29" y2="-0.5" transform="matrix(0 1 1 0 94 46)" stroke="black"/>
<line x1="105.5" y1="46" x2="105.5" y2="75" stroke="black"/>
<line x1="116.5" y1="46" x2="116.5" y2="75" stroke="black"/>
<line y1="-0.5" x2="29" y2="-0.5" transform="matrix(0 1 1 0 129 46)" stroke="black"/>
<line x1="141.5" y1="46" x2="141.5" y2="75" stroke="black"/>
<line x1="152.5" y1="46" x2="152.5" y2="75" stroke="black"/>
<line y1="-0.5" x2="29" y2="-0.5" transform="matrix(0 1 1 0 165 46)" stroke="black"/>
<rect x="227" y="67" width="18" height="119" fill="#C4C4C4" stroke="black" strokeWidth="2"/>
<rect x="15" y="67" width="23" height="119" fill="#C4C4C4" stroke="black" strokeWidth="2"/>
</svg>
