<svg
//           className="saber-emitter"
//           width={324 * multiplier}
//           height={248 * multiplier}
//           viewBox="1.5 -1 324 250.5"
//           fill="none"
//           xmlns="http://www.w3.org/2000/svg"
//         >
//           {getDefs()}
//           <rect
//             x="1"
//             y="67"
//             width="277"
//             height="119"
//             stroke="transparent"
//             fill="url(#silver-vertical)"
//             strokeWidth="2"
//           />
<rect x="9" y="67" width="277" height="119" fill="transparent" stroke="black" stroke-width="2"/>
<path d="M87.5 174.5H8.5V78.5H87.5V174.5Z" fill="url(#matte-vertical)" stroke="black"/>
<g filter="url(#filter0_d27)">
<path d="M9 72C9 69.2386 11.2404 67 14.0018 67C24.5469 67 31.7864 67 43.5 67L74.6973 71.394C77.165 71.7415 79 73.8531 79 76.3451V176.655C79 179.147 77.165 181.258 74.6973 181.606L43.5 186H14C11.2386 186 9 183.761 9 181V72Z" fill={bodyColor}/>
<path d="M9 72C9 69.2386 11.2404 67 14.0018 67C24.5469 67 31.7864 67 43.5 67L74.6973 71.394C77.165 71.7415 79 73.8531 79 76.3451V176.655C79 179.147 77.165 181.258 74.6973 181.606L43.5 186H14C11.2386 186 9 183.761 9 181V72Z" stroke="black" stroke-width="2"/>
</g>
<g filter="url(#filter1_d27)">
<path d="M85.6181 77.487C85.6181 74.5396 88.1546 72.2317 91.0889 72.5092L165 79.5L245.118 87.5479C247.673 87.8046 249.618 89.955 249.618 92.5229V96.625C249.618 99.3864 247.38 101.625 244.618 101.625H144.618H141.252C136.046 101.625 135.471 109.216 140.618 110V110L244.938 116.692C247.57 116.86 249.618 119.044 249.618 121.681V126.492V132.322C249.618 134.954 247.577 137.136 244.95 137.311L144.618 143.992L140.837 144.207C135.06 144.535 134.524 152.849 140.212 153.916V153.916C140.482 153.966 140.756 153.994 141.031 153.999L244.704 155.79C247.432 155.837 249.618 158.062 249.618 160.789V164.842C249.618 167.466 247.589 169.644 244.972 169.829L165 175.5L90.9632 180.622C88.0728 180.822 85.6181 178.531 85.6181 175.634V77.487Z" fill={bodyColor}/>
<path d="M85.6181 77.487C85.6181 74.5396 88.1546 72.2317 91.0889 72.5092L165 79.5L245.118 87.5479C247.673 87.8046 249.618 89.955 249.618 92.5229V96.625C249.618 99.3864 247.38 101.625 244.618 101.625H144.618H141.252C136.046 101.625 135.471 109.216 140.618 110V110L244.938 116.692C247.57 116.86 249.618 119.044 249.618 121.681V126.492V132.322C249.618 134.954 247.577 137.136 244.95 137.311L144.618 143.992L140.837 144.207C135.06 144.535 134.524 152.849 140.212 153.916V153.916C140.482 153.966 140.756 153.994 141.031 153.999L244.704 155.79C247.432 155.837 249.618 158.062 249.618 160.789V164.842C249.618 167.466 247.589 169.644 244.972 169.829L165 175.5L90.9632 180.622C88.0728 180.822 85.6181 178.531 85.6181 175.634V77.487Z" stroke="black" stroke-width="2"/>
</g>
<line x1="24.5" y1="67.9958" x2="25.5" y2="186.996" stroke="black"/>
<line x1="30.5" y1="65.9958" x2="31.5" y2="184.996" stroke="black"/>
<line x1="18.5" y1="66.9958" x2="19.5" y2="185.996" stroke="black"/>
<defs>
<filter id="filter0_d27" x="0" y="62" width="80" height="129" filterUnits="userSpaceOnUse" color-interpolation-filters="sRGB">
<feFlood flood-opacity="0" result="BackgroundImageFix"/>
<feColorMatrix in="SourceAlpha" type="matrix" values="0 0 0 0 0 0 0 0 0 0 0 0 0 0 0 0 0 0 127 0" result="hardAlpha"/>
<feOffset dx="-4"/>
<feGaussianBlur stdDeviation="2"/>
<feComposite in2="hardAlpha" operator="out"/>
<feColorMatrix type="matrix" values="0 0 0 0 0 0 0 0 0 0 0 0 0 0 0 0 0 0 0.25 0"/>
<feBlend mode="normal" in2="BackgroundImageFix" result="effect1_dropShadow"/>
<feBlend mode="normal" in="SourceGraphic" in2="effect1_dropShadow" result="shape"/>
</filter>
<filter id="filter1_d27" x="76.6181" y="67.4865" width="174" height="118.148" filterUnits="userSpaceOnUse" color-interpolation-filters="sRGB">
<feFlood flood-opacity="0" result="BackgroundImageFix"/>
<feColorMatrix in="SourceAlpha" type="matrix" values="0 0 0 0 0 0 0 0 0 0 0 0 0 0 0 0 0 0 127 0" result="hardAlpha"/>
<feOffset dx="-4"/>
<feGaussianBlur stdDeviation="2"/>
<feComposite in2="hardAlpha" operator="out"/>
<feColorMatrix type="matrix" values="0 0 0 0 0 0 0 0 0 0 0 0 0 0 0 0 0 0 0.25 0"/>
<feBlend mode="normal" in2="BackgroundImageFix" result="effect1_dropShadow"/>
<feBlend mode="normal" in="SourceGraphic" in2="effect1_dropShadow" result="shape"/>
</filter>
</defs>
</svg>
